<svg xmlns="http://www.w3.org/2000/svg" xmlns:xlink="http://www.w3.org/1999/xlink" width="500" zoomAndPan="magnify" viewBox="0 0 375 374.999991" height="500" preserveAspectRatio="xMidYMid meet" version="1.0"><defs><g/><clipPath id="7d071b47eb"><path d="M 133 179 L 138 179 L 138 189 L 133 189 Z M 133 179 " clip-rule="nonzero"/></clipPath><clipPath id="4c639d693a"><path d="M 85.78125 0 L 354.636719 51.542969 L 306.34375 303.453125 L 37.488281 251.914062 Z M 85.78125 0 " clip-rule="nonzero"/></clipPath><clipPath id="acffb861c6"><path d="M 85.78125 0 L 354.636719 51.542969 L 306.34375 303.453125 L 37.488281 251.914062 Z M 85.78125 0 " clip-rule="nonzero"/></clipPath><clipPath id="edc8222fd9"><path d="M 105 150 L 160 150 L 160 204 L 105 204 Z M 105 150 " clip-rule="nonzero"/></clipPath><clipPath id="f1eb66f786"><path d="M 85.78125 0 L 354.636719 51.542969 L 306.34375 303.453125 L 37.488281 251.914062 Z M 85.78125 0 " clip-rule="nonzero"/></clipPath><clipPath id="39e098678a"><path d="M 85.78125 0 L 354.636719 51.542969 L 306.34375 303.453125 L 37.488281 251.914062 Z M 85.78125 0 " clip-rule="nonzero"/></clipPath><clipPath id="d82be409a8"><path d="M 128 166 L 135 166 L 135 176 L 128 176 Z M 128 166 " clip-rule="nonzero"/></clipPath><clipPath id="ce706c7262"><path d="M 85.78125 0 L 354.636719 51.542969 L 306.34375 303.453125 L 37.488281 251.914062 Z M 85.78125 0 " clip-rule="nonzero"/></clipPath><clipPath id="62cf63d6b4"><path d="M 85.78125 0 L 354.636719 51.542969 L 306.34375 303.453125 L 37.488281 251.914062 Z M 85.78125 0 " clip-rule="nonzero"/></clipPath><clipPath id="73f81fd132"><path d="M 258 172 L 265 172 L 265 184 L 258 184 Z M 258 172 " clip-rule="nonzero"/></clipPath><clipPath id="2606279544"><path d="M 85.78125 0 L 354.636719 51.542969 L 306.34375 303.453125 L 37.488281 251.914062 Z M 85.78125 0 " clip-rule="nonzero"/></clipPath><clipPath id="5d5ff890ad"><path d="M 85.78125 0 L 354.636719 51.542969 L 306.34375 303.453125 L 37.488281 251.914062 Z M 85.78125 0 " clip-rule="nonzero"/></clipPath><clipPath id="4aefc1e348"><path d="M 252 154 L 260 154 L 260 167 L 252 167 Z M 252 154 " clip-rule="nonzero"/></clipPath><clipPath id="96e6949e1f"><path d="M 85.78125 0 L 354.636719 51.542969 L 306.34375 303.453125 L 37.488281 251.914062 Z M 85.78125 0 " clip-rule="nonzero"/></clipPath><clipPath id="9adebff863"><path d="M 85.78125 0 L 354.636719 51.542969 L 306.34375 303.453125 L 37.488281 251.914062 Z M 85.78125 0 " clip-rule="nonzero"/></clipPath><clipPath id="cd6d311d12"><path d="M 221 132 L 294 132 L 294 206 L 221 206 Z M 221 132 " clip-rule="nonzero"/></clipPath><clipPath id="2d43509291"><path d="M 85.78125 0 L 354.636719 51.542969 L 306.34375 303.453125 L 37.488281 251.914062 Z M 85.78125 0 " clip-rule="nonzero"/></clipPath><clipPath id="273626e904"><path d="M 85.78125 0 L 354.636719 51.542969 L 306.34375 303.453125 L 37.488281 251.914062 Z M 85.78125 0 " clip-rule="nonzero"/></clipPath><clipPath id="989a33b66b"><path d="M 73 100 L 104 100 L 104 131 L 73 131 Z M 73 100 " clip-rule="nonzero"/></clipPath><clipPath id="592ab55fb9"><path d="M 85.78125 0 L 354.636719 51.542969 L 306.34375 303.453125 L 37.488281 251.914062 Z M 85.78125 0 " clip-rule="nonzero"/></clipPath><clipPath id="ae0d6cc389"><path d="M 85.78125 0 L 354.636719 51.542969 L 306.34375 303.453125 L 37.488281 251.914062 Z M 85.78125 0 " clip-rule="nonzero"/></clipPath><clipPath id="d9a7e7e541"><path d="M 251 212 L 282 212 L 282 243 L 251 243 Z M 251 212 " clip-rule="nonzero"/></clipPath><clipPath id="9828b7b71c"><path d="M 85.78125 0 L 354.636719 51.542969 L 306.34375 303.453125 L 37.488281 251.914062 Z M 85.78125 0 " clip-rule="nonzero"/></clipPath><clipPath id="4268338e2b"><path d="M 85.78125 0 L 354.636719 51.542969 L 306.34375 303.453125 L 37.488281 251.914062 Z M 85.78125 0 " clip-rule="nonzero"/></clipPath><clipPath id="bbb09b3de5"><path d="M 70 23 L 339 23 L 339 275 L 70 275 Z M 70 23 " clip-rule="nonzero"/></clipPath><clipPath id="9425480edf"><path d="M 85.78125 0 L 354.636719 51.542969 L 306.34375 303.453125 L 37.488281 251.914062 Z M 85.78125 0 " clip-rule="nonzero"/></clipPath><clipPath id="5b8bfd8f0e"><path d="M 85.78125 0 L 354.636719 51.542969 L 306.34375 303.453125 L 37.488281 251.914062 Z M 85.78125 0 " clip-rule="nonzero"/></clipPath></defs><g clip-path="url(#7d071b47eb)"><g clip-path="url(#4c639d693a)"><g clip-path="url(#acffb861c6)"><path fill="#004aad" d="M 135.144531 179.855469 L 133.5625 188.101562 C 134.109375 188.105469 134.566406 188.050781 134.933594 187.929688 C 135.53125 187.742188 136.027344 187.492188 136.375 187.199219 C 136.710938 186.910156 136.972656 186.59375 137.148438 186.265625 C 137.394531 185.820312 137.464844 185.574219 137.484375 185.464844 L 137.488281 185.445312 C 137.828125 183.859375 137.734375 182.589844 137.210938 181.679688 C 136.800781 180.984375 136.121094 180.378906 135.144531 179.855469 " fill-opacity="1" fill-rule="nonzero"/></g></g></g><g clip-path="url(#edc8222fd9)"><g clip-path="url(#f1eb66f786)"><g clip-path="url(#39e098678a)"><path fill="#004aad" d="M 137.886719 189.910156 C 136.65625 190.839844 135.003906 191.257812 132.976562 191.15625 L 132.765625 192.273438 C 132.652344 192.847656 132.335938 193.289062 131.863281 193.519531 C 131.449219 193.722656 131.035156 193.785156 130.628906 193.707031 C 130.214844 193.625 129.859375 193.410156 129.566406 193.066406 C 129.332031 192.757812 129.117188 192.289062 129.246094 191.597656 L 129.453125 190.53125 C 127.433594 189.953125 125.746094 189.035156 124.417969 187.789062 C 122.832031 186.300781 122.03125 184.40625 122.042969 182.160156 C 122.023438 181.507812 122.351562 181.136719 122.554688 180.980469 C 122.796875 180.785156 123.203125 180.589844 123.875 180.757812 C 124.902344 180.972656 125.242188 181.753906 125.203125 182.402344 C 125.25 183.492188 125.703125 184.550781 126.601562 185.542969 C 127.355469 186.375 128.503906 187.027344 130.035156 187.488281 L 131.730469 178.605469 C 129.613281 177.910156 128.015625 176.875 126.917969 175.515625 C 125.683594 173.960938 125.148438 172.128906 125.316406 170.058594 C 125.417969 168.9375 125.773438 167.894531 126.371094 166.949219 C 126.96875 166.023438 127.722656 165.269531 128.625 164.691406 C 129.507812 164.105469 130.550781 163.714844 131.792969 163.496094 C 132.703125 163.34375 133.65625 163.304688 134.648438 163.386719 L 134.875 162.191406 C 134.972656 161.691406 135.234375 161.28125 135.632812 161.007812 C 136.585938 160.476562 137.417969 160.707031 138.023438 161.375 C 138.386719 161.839844 138.5 162.335938 138.398438 162.867188 L 138.132812 164.253906 C 139.683594 164.890625 140.914062 165.863281 141.796875 167.15625 C 142.855469 168.695312 143.210938 170.554688 142.851562 172.691406 L 142.835938 172.792969 L 142.796875 172.890625 C 142.46875 173.703125 141.8125 174.160156 141.054688 174.113281 C 140.296875 174.046875 139.597656 173.496094 139.683594 172.40625 C 139.734375 171.914062 139.726562 171.394531 139.65625 170.789062 C 139.582031 170.269531 139.414062 169.761719 139.167969 169.304688 C 138.886719 168.785156 138.527344 168.3125 138.101562 167.890625 C 137.929688 167.71875 137.734375 167.5625 137.523438 167.421875 L 135.753906 176.683594 C 136.929688 177.195312 137.851562 177.78125 138.5625 178.449219 C 139.394531 179.234375 140.003906 180.078125 140.371094 180.964844 C 140.726562 181.851562 140.898438 182.757812 140.886719 183.679688 C 140.886719 184.578125 140.769531 185.394531 140.539062 186.15625 C 140.160156 187.597656 139.261719 188.871094 137.886719 189.910156 Z M 159.085938 182.074219 C 161.882812 167.492188 152.300781 153.355469 137.730469 150.5625 C 123.164062 147.773438 109.035156 157.363281 106.238281 171.941406 C 103.445312 186.523438 113.023438 200.65625 127.59375 203.449219 C 142.160156 206.242188 156.289062 196.652344 159.085938 182.074219 " fill-opacity="1" fill-rule="nonzero"/></g></g></g><g clip-path="url(#d82be409a8)"><g clip-path="url(#ce706c7262)"><g clip-path="url(#62cf63d6b4)"><path fill="#004aad" d="M 128.589844 170.507812 C 128.550781 170.921875 128.5625 171.378906 128.632812 171.875 C 128.703125 172.277344 128.890625 172.703125 129.1875 173.121094 C 129.53125 173.605469 130.019531 174.089844 130.636719 174.5625 C 131.066406 174.894531 131.636719 175.207031 132.324219 175.492188 L 134.0625 166.429688 C 132.632812 166.359375 131.46875 166.652344 130.53125 167.316406 C 129.410156 168.121094 128.773438 169.164062 128.589844 170.507812 " fill-opacity="1" fill-rule="nonzero"/></g></g></g><g clip-path="url(#73f81fd132)"><g clip-path="url(#2606279544)"><g clip-path="url(#5d5ff890ad)"><path fill="#004aad" d="M 261.078125 172.71875 L 258.953125 183.804688 C 259.6875 183.8125 260.304688 183.734375 260.792969 183.574219 C 261.597656 183.320312 262.265625 182.984375 262.730469 182.59375 C 263.179688 182.207031 263.539062 181.777344 263.773438 181.335938 C 264.101562 180.742188 264.199219 180.40625 264.226562 180.261719 L 264.230469 180.234375 C 264.691406 178.101562 264.5625 176.398438 263.855469 175.171875 C 263.304688 174.230469 262.390625 173.417969 261.078125 172.71875 " fill-opacity="1" fill-rule="nonzero"/></g></g></g><g clip-path="url(#4aefc1e348)"><g clip-path="url(#96e6949e1f)"><g clip-path="url(#9adebff863)"><path fill="#004aad" d="M 252.265625 160.144531 C 252.207031 160.699219 252.226562 161.316406 252.320312 161.980469 C 252.414062 162.523438 252.667969 163.097656 253.066406 163.660156 C 253.527344 164.3125 254.183594 164.964844 255.011719 165.597656 C 255.597656 166.042969 256.359375 166.464844 257.289062 166.847656 L 259.625 154.660156 C 257.695312 154.566406 256.132812 154.960938 254.875 155.855469 C 253.363281 156.933594 252.507812 158.335938 252.265625 160.144531 " fill-opacity="1" fill-rule="nonzero"/></g></g></g><g clip-path="url(#cd6d311d12)"><g clip-path="url(#2d43509291)"><g clip-path="url(#273626e904)"><path fill="#004aad" d="M 264.765625 186.238281 C 263.109375 187.488281 260.890625 188.046875 258.164062 187.914062 L 257.875 189.414062 C 257.726562 190.1875 257.296875 190.777344 256.664062 191.089844 C 256.105469 191.363281 255.546875 191.449219 255.003906 191.34375 C 254.449219 191.238281 253.96875 190.945312 253.578125 190.480469 C 253.261719 190.066406 252.96875 189.4375 253.148438 188.507812 L 253.421875 187.070312 C 250.710938 186.296875 248.4375 185.0625 246.652344 183.382812 C 244.519531 181.382812 243.445312 178.835938 243.460938 175.816406 C 243.429688 174.9375 243.875 174.4375 244.144531 174.226562 C 244.472656 173.964844 245.019531 173.699219 245.917969 173.929688 C 247.304688 174.21875 247.761719 175.265625 247.707031 176.140625 C 247.769531 177.609375 248.382812 179.03125 249.589844 180.367188 C 250.597656 181.484375 252.152344 182.359375 254.207031 182.984375 L 256.484375 171.035156 C 253.636719 170.097656 251.492188 168.707031 250.011719 166.875 C 248.355469 164.789062 247.632812 162.324219 247.863281 159.539062 C 248 158.03125 248.476562 156.628906 249.277344 155.359375 C 250.078125 154.113281 251.097656 153.097656 252.308594 152.324219 C 253.496094 151.539062 254.898438 151.007812 256.574219 150.714844 C 257.792969 150.507812 259.078125 150.457031 260.410156 150.566406 L 260.714844 148.960938 C 260.847656 148.285156 261.199219 147.734375 261.734375 147.371094 C 263.011719 146.652344 264.136719 146.964844 264.949219 147.863281 C 265.433594 148.488281 265.589844 149.15625 265.453125 149.871094 L 265.097656 151.734375 C 267.179688 152.589844 268.835938 153.898438 270.023438 155.640625 C 271.449219 157.703125 271.929688 160.210938 271.445312 163.082031 L 271.421875 163.21875 L 271.367188 163.351562 C 270.929688 164.445312 270.046875 165.058594 269.023438 164.992188 C 268.007812 164.90625 267.066406 164.167969 267.179688 162.699219 C 267.253906 162.035156 267.242188 161.339844 267.144531 160.527344 C 267.046875 159.828125 266.820312 159.144531 266.484375 158.527344 C 266.109375 157.832031 265.628906 157.191406 265.054688 156.625 C 264.824219 156.390625 264.5625 156.183594 264.277344 155.996094 L 261.894531 168.453125 C 263.476562 169.140625 264.71875 169.925781 265.671875 170.828125 C 266.792969 171.882812 267.613281 173.019531 268.105469 174.207031 C 268.582031 175.398438 268.816406 176.621094 268.800781 177.859375 C 268.796875 179.070312 268.644531 180.164062 268.332031 181.1875 C 267.824219 183.125 266.617188 184.839844 264.765625 186.238281 Z M 264.558594 133.324219 C 244.964844 129.566406 225.964844 142.464844 222.207031 162.074219 C 218.445312 181.683594 231.328125 200.691406 250.921875 204.449219 C 270.515625 208.203125 289.515625 195.308594 293.273438 175.695312 C 297.03125 156.089844 284.148438 137.078125 264.558594 133.324219 " fill-opacity="1" fill-rule="nonzero"/></g></g></g><g clip-path="url(#989a33b66b)"><g clip-path="url(#592ab55fb9)"><g clip-path="url(#ae0d6cc389)"><path fill="#004aad" d="M 91.199219 100.476562 C 83.097656 98.921875 75.242188 104.253906 73.6875 112.363281 C 72.132812 120.472656 77.460938 128.335938 85.5625 129.886719 C 93.664062 131.441406 101.519531 126.105469 103.074219 117.996094 C 104.628906 109.890625 99.304688 102.027344 91.199219 100.476562 " fill-opacity="1" fill-rule="nonzero"/></g></g></g><g clip-path="url(#d9a7e7e541)"><g clip-path="url(#9828b7b71c)"><g clip-path="url(#4268338e2b)"><path fill="#004aad" d="M 269.339844 213.203125 C 261.234375 211.652344 253.378906 216.984375 251.824219 225.09375 C 250.273438 233.203125 255.597656 241.0625 263.699219 242.617188 C 271.800781 244.167969 279.660156 238.835938 281.214844 230.726562 C 282.765625 222.617188 277.441406 214.757812 269.339844 213.203125 " fill-opacity="1" fill-rule="nonzero"/></g></g></g><g clip-path="url(#bbb09b3de5)"><g clip-path="url(#9425480edf)"><g clip-path="url(#5b8bfd8f0e)"><path fill="#004aad" d="M 338.082031 133.203125 C 337.863281 132.316406 315.582031 44.222656 220.179688 25.933594 C 124.769531 7.640625 71.492188 81.253906 70.964844 81.996094 C 69.722656 83.746094 69.917969 86.121094 71.410156 87.648438 C 72.917969 89.175781 75.28125 89.402344 77.046875 88.210938 C 97.554688 74.296875 125.484375 98.011719 125.757812 98.269531 C 127.273438 99.542969 129.480469 99.714844 131.132812 98.578125 C 150.351562 85.535156 173.378906 107.109375 173.609375 107.316406 C 175.308594 108.917969 177.96875 108.972656 179.675781 107.355469 C 185.261719 102.152344 193.359375 100.941406 199.074219 100.816406 L 180.003906 200.289062 C 178.410156 201.5625 177.179688 203.304688 176.761719 205.46875 L 169.539062 243.25 C 169.265625 245.449219 167.570312 252.371094 163.566406 255.277344 C 162.304688 256.1875 160.121094 257.308594 155.679688 256.457031 C 141.667969 253.773438 141.847656 246.972656 143.632812 237.660156 C 144.550781 232.859375 141.414062 228.230469 136.617188 227.3125 C 131.824219 226.390625 127.195312 229.53125 126.273438 234.332031 C 121.003906 261.832031 137.542969 270.992188 152.351562 273.828125 C 162.734375 275.820312 169.890625 272.574219 174.074219 269.5 C 184.960938 261.488281 186.90625 246.9375 186.992188 245.972656 L 194.121094 208.792969 C 194.535156 206.632812 194.035156 204.554688 193.023438 202.785156 L 212.097656 103.289062 C 217.347656 105.503906 224.410156 109.613281 227.6875 116.5625 C 228.316406 117.882812 229.511719 118.753906 230.847656 119.011719 C 231.664062 119.167969 232.527344 119.097656 233.339844 118.769531 C 233.632812 118.648438 262.929688 107.011719 276.046875 126.359375 C 277.175781 128.027344 279.265625 128.6875 281.15625 128.046875 C 281.5 127.933594 316.171875 116.128906 330.128906 136.726562 C 331.328125 138.488281 333.609375 139.152344 335.578125 138.289062 C 337.527344 137.421875 338.585938 135.285156 338.082031 133.203125 " fill-opacity="1" fill-rule="nonzero"/></g></g></g><g fill="#004aad" fill-opacity="1"><g transform="translate(11.059574, 331.510905)"><g><path d="M 14.375 -27.84375 C 16.375 -27.84375 18.078125 -27.476562 19.484375 -26.75 C 20.898438 -26.019531 21.96875 -24.992188 22.6875 -23.671875 C 23.414062 -22.359375 23.78125 -20.832031 23.78125 -19.09375 C 23.78125 -17.351562 23.414062 -15.828125 22.6875 -14.515625 C 21.96875 -13.210938 20.898438 -12.195312 19.484375 -11.46875 C 18.078125 -10.738281 16.375 -10.375 14.375 -10.375 L 9.125 -10.375 L 9.125 0 L 3.625 0 L 3.625 -27.84375 Z M 13.65625 -14.734375 C 16.71875 -14.734375 18.25 -16.1875 18.25 -19.09375 C 18.25 -22.019531 16.71875 -23.484375 13.65625 -23.484375 L 9.125 -23.484375 L 9.125 -14.734375 Z M 13.65625 -14.734375 "/></g></g></g><g fill="#004aad" fill-opacity="1"><g transform="translate(36.493334, 331.510905)"><g><path d="M 8.1875 0.40625 C 6.84375 0.40625 5.675781 0.160156 4.6875 -0.328125 C 3.695312 -0.828125 2.929688 -1.554688 2.390625 -2.515625 C 1.859375 -3.484375 1.59375 -4.640625 1.59375 -5.984375 C 1.59375 -7.222656 1.859375 -8.265625 2.390625 -9.109375 C 2.929688 -9.953125 3.757812 -10.644531 4.875 -11.1875 C 5.988281 -11.726562 7.445312 -12.144531 9.25 -12.4375 C 10.507812 -12.632812 11.46875 -12.851562 12.125 -13.09375 C 12.78125 -13.34375 13.21875 -13.617188 13.4375 -13.921875 C 13.664062 -14.222656 13.78125 -14.609375 13.78125 -15.078125 C 13.78125 -15.753906 13.546875 -16.269531 13.078125 -16.625 C 12.609375 -16.976562 11.828125 -17.15625 10.734375 -17.15625 C 9.566406 -17.15625 8.457031 -16.894531 7.40625 -16.375 C 6.351562 -15.851562 5.441406 -15.171875 4.671875 -14.328125 L 4.28125 -14.328125 L 2.078125 -17.65625 C 3.140625 -18.832031 4.4375 -19.75 5.96875 -20.40625 C 7.507812 -21.070312 9.1875 -21.40625 11 -21.40625 C 13.78125 -21.40625 15.789062 -20.8125 17.03125 -19.625 C 18.28125 -18.445312 18.90625 -16.773438 18.90625 -14.609375 L 18.90625 -5.484375 C 18.90625 -4.546875 19.316406 -4.078125 20.140625 -4.078125 C 20.460938 -4.078125 20.773438 -4.132812 21.078125 -4.25 L 21.34375 -4.171875 L 21.734375 -0.5 C 21.441406 -0.300781 21.035156 -0.140625 20.515625 -0.015625 C 19.992188 0.0976562 19.421875 0.15625 18.796875 0.15625 C 17.535156 0.15625 16.550781 -0.0820312 15.84375 -0.5625 C 15.144531 -1.050781 14.644531 -1.8125 14.34375 -2.84375 L 13.9375 -2.875 C 12.90625 -0.6875 10.988281 0.40625 8.1875 0.40625 Z M 9.859375 -3.546875 C 11.078125 -3.546875 12.050781 -3.953125 12.78125 -4.765625 C 13.507812 -5.585938 13.875 -6.726562 13.875 -8.1875 L 13.875 -10.328125 L 13.515625 -10.390625 C 13.203125 -10.140625 12.785156 -9.925781 12.265625 -9.75 C 11.753906 -9.582031 11.019531 -9.414062 10.0625 -9.25 C 8.914062 -9.0625 8.09375 -8.734375 7.59375 -8.265625 C 7.09375 -7.804688 6.84375 -7.148438 6.84375 -6.296875 C 6.84375 -5.398438 7.109375 -4.71875 7.640625 -4.25 C 8.171875 -3.78125 8.910156 -3.546875 9.859375 -3.546875 Z M 9.859375 -3.546875 "/></g></g></g><g fill="#004aad" fill-opacity="1"><g transform="translate(58.633657, 331.510905)"><g><path d="M 4.640625 8.90625 C 3.742188 8.90625 2.929688 8.835938 2.203125 8.703125 C 1.472656 8.566406 0.878906 8.382812 0.421875 8.15625 L 1.25 3.890625 L 1.59375 3.765625 C 1.914062 3.929688 2.3125 4.066406 2.78125 4.171875 C 3.25 4.273438 3.734375 4.328125 4.234375 4.328125 C 5.078125 4.328125 5.78125 4.210938 6.34375 3.984375 C 6.914062 3.765625 7.394531 3.394531 7.78125 2.875 C 8.175781 2.363281 8.53125 1.65625 8.84375 0.75 L 0.453125 -21 L 5.984375 -21 L 11.203125 -6.40625 L 11.65625 -6.40625 L 16.734375 -21 L 22.109375 -21 L 13.671875 1.3125 C 12.992188 3.113281 12.253906 4.5625 11.453125 5.65625 C 10.648438 6.757812 9.695312 7.578125 8.59375 8.109375 C 7.5 8.640625 6.179688 8.90625 4.640625 8.90625 Z M 4.640625 8.90625 "/></g></g></g><g fill="#004aad" fill-opacity="1"><g transform="translate(81.173755, 331.510905)"><g><path d="M 10.375 0.40625 C 8.71875 0.40625 7.25 0.00390625 5.96875 -0.796875 C 4.695312 -1.609375 3.695312 -2.828125 2.96875 -4.453125 C 2.25 -6.085938 1.890625 -8.101562 1.890625 -10.5 C 1.890625 -12.894531 2.257812 -14.90625 3 -16.53125 C 3.738281 -18.164062 4.765625 -19.382812 6.078125 -20.1875 C 7.398438 -21 8.921875 -21.40625 10.640625 -21.40625 C 11.953125 -21.40625 13.085938 -21.175781 14.046875 -20.71875 C 15.003906 -20.269531 15.8125 -19.570312 16.46875 -18.625 L 16.875 -18.71875 L 16.875 -29.4375 L 22.140625 -29.4375 L 22.140625 0 L 16.875 0 L 16.875 -2.71875 L 16.46875 -2.796875 C 15.882812 -1.804688 15.082031 -1.023438 14.0625 -0.453125 C 13.050781 0.117188 11.820312 0.40625 10.375 0.40625 Z M 12.09375 -4.078125 C 13.582031 -4.078125 14.753906 -4.601562 15.609375 -5.65625 C 16.472656 -6.71875 16.90625 -8.332031 16.90625 -10.5 C 16.90625 -12.65625 16.472656 -14.265625 15.609375 -15.328125 C 14.753906 -16.390625 13.582031 -16.921875 12.09375 -16.921875 C 10.539062 -16.921875 9.351562 -16.40625 8.53125 -15.375 C 7.71875 -14.34375 7.3125 -12.71875 7.3125 -10.5 C 7.3125 -8.28125 7.71875 -6.65625 8.53125 -5.625 C 9.351562 -4.59375 10.539062 -4.078125 12.09375 -4.078125 Z M 12.09375 -4.078125 "/></g></g></g><g fill="#004aad" fill-opacity="1"><g transform="translate(106.340994, 331.510905)"><g><path d="M 8.1875 0.40625 C 6.84375 0.40625 5.675781 0.160156 4.6875 -0.328125 C 3.695312 -0.828125 2.929688 -1.554688 2.390625 -2.515625 C 1.859375 -3.484375 1.59375 -4.640625 1.59375 -5.984375 C 1.59375 -7.222656 1.859375 -8.265625 2.390625 -9.109375 C 2.929688 -9.953125 3.757812 -10.644531 4.875 -11.1875 C 5.988281 -11.726562 7.445312 -12.144531 9.25 -12.4375 C 10.507812 -12.632812 11.46875 -12.851562 12.125 -13.09375 C 12.78125 -13.34375 13.21875 -13.617188 13.4375 -13.921875 C 13.664062 -14.222656 13.78125 -14.609375 13.78125 -15.078125 C 13.78125 -15.753906 13.546875 -16.269531 13.078125 -16.625 C 12.609375 -16.976562 11.828125 -17.15625 10.734375 -17.15625 C 9.566406 -17.15625 8.457031 -16.894531 7.40625 -16.375 C 6.351562 -15.851562 5.441406 -15.171875 4.671875 -14.328125 L 4.28125 -14.328125 L 2.078125 -17.65625 C 3.140625 -18.832031 4.4375 -19.75 5.96875 -20.40625 C 7.507812 -21.070312 9.1875 -21.40625 11 -21.40625 C 13.78125 -21.40625 15.789062 -20.8125 17.03125 -19.625 C 18.28125 -18.445312 18.90625 -16.773438 18.90625 -14.609375 L 18.90625 -5.484375 C 18.90625 -4.546875 19.316406 -4.078125 20.140625 -4.078125 C 20.460938 -4.078125 20.773438 -4.132812 21.078125 -4.25 L 21.34375 -4.171875 L 21.734375 -0.5 C 21.441406 -0.300781 21.035156 -0.140625 20.515625 -0.015625 C 19.992188 0.0976562 19.421875 0.15625 18.796875 0.15625 C 17.535156 0.15625 16.550781 -0.0820312 15.84375 -0.5625 C 15.144531 -1.050781 14.644531 -1.8125 14.34375 -2.84375 L 13.9375 -2.875 C 12.90625 -0.6875 10.988281 0.40625 8.1875 0.40625 Z M 9.859375 -3.546875 C 11.078125 -3.546875 12.050781 -3.953125 12.78125 -4.765625 C 13.507812 -5.585938 13.875 -6.726562 13.875 -8.1875 L 13.875 -10.328125 L 13.515625 -10.390625 C 13.203125 -10.140625 12.785156 -9.925781 12.265625 -9.75 C 11.753906 -9.582031 11.019531 -9.414062 10.0625 -9.25 C 8.914062 -9.0625 8.09375 -8.734375 7.59375 -8.265625 C 7.09375 -7.804688 6.84375 -7.148438 6.84375 -6.296875 C 6.84375 -5.398438 7.109375 -4.71875 7.640625 -4.25 C 8.171875 -3.78125 8.910156 -3.546875 9.859375 -3.546875 Z M 9.859375 -3.546875 "/></g></g></g><g fill="#004aad" fill-opacity="1"><g transform="translate(128.481316, 331.510905)"><g><path d="M 4.640625 8.90625 C 3.742188 8.90625 2.929688 8.835938 2.203125 8.703125 C 1.472656 8.566406 0.878906 8.382812 0.421875 8.15625 L 1.25 3.890625 L 1.59375 3.765625 C 1.914062 3.929688 2.3125 4.066406 2.78125 4.171875 C 3.25 4.273438 3.734375 4.328125 4.234375 4.328125 C 5.078125 4.328125 5.78125 4.210938 6.34375 3.984375 C 6.914062 3.765625 7.394531 3.394531 7.78125 2.875 C 8.175781 2.363281 8.53125 1.65625 8.84375 0.75 L 0.453125 -21 L 5.984375 -21 L 11.203125 -6.40625 L 11.65625 -6.40625 L 16.734375 -21 L 22.109375 -21 L 13.671875 1.3125 C 12.992188 3.113281 12.253906 4.5625 11.453125 5.65625 C 10.648438 6.757812 9.695312 7.578125 8.59375 8.109375 C 7.5 8.640625 6.179688 8.90625 4.640625 8.90625 Z M 4.640625 8.90625 "/></g></g></g><g fill="#004aad" fill-opacity="1"><g transform="translate(151.021415, 331.510905)"><g/></g></g><g fill="#004aad" fill-opacity="1"><g transform="translate(160.21641, 331.510905)"><g><path d="M 14.375 -27.84375 C 16.375 -27.84375 18.078125 -27.476562 19.484375 -26.75 C 20.898438 -26.019531 21.96875 -24.992188 22.6875 -23.671875 C 23.414062 -22.359375 23.78125 -20.832031 23.78125 -19.09375 C 23.78125 -17.351562 23.414062 -15.828125 22.6875 -14.515625 C 21.96875 -13.210938 20.898438 -12.195312 19.484375 -11.46875 C 18.078125 -10.738281 16.375 -10.375 14.375 -10.375 L 9.125 -10.375 L 9.125 0 L 3.625 0 L 3.625 -27.84375 Z M 13.65625 -14.734375 C 16.71875 -14.734375 18.25 -16.1875 18.25 -19.09375 C 18.25 -22.019531 16.71875 -23.484375 13.65625 -23.484375 L 9.125 -23.484375 L 9.125 -14.734375 Z M 13.65625 -14.734375 "/></g></g></g><g fill="#004aad" fill-opacity="1"><g transform="translate(185.65017, 331.510905)"><g><path d="M 3.03125 0 L 3.03125 -21 L 8.15625 -21 L 8.15625 -17.875 L 8.546875 -17.8125 C 9.054688 -18.976562 9.722656 -19.832031 10.546875 -20.375 C 11.367188 -20.914062 12.375 -21.1875 13.5625 -21.1875 C 14.75 -21.1875 15.65625 -20.984375 16.28125 -20.578125 L 15.390625 -16.03125 L 14.984375 -15.953125 C 14.640625 -16.097656 14.304688 -16.203125 13.984375 -16.265625 C 13.671875 -16.328125 13.285156 -16.359375 12.828125 -16.359375 C 11.359375 -16.359375 10.234375 -15.835938 9.453125 -14.796875 C 8.679688 -13.765625 8.296875 -12.109375 8.296875 -9.828125 L 8.296875 0 Z M 3.03125 0 "/></g></g></g><g fill="#004aad" fill-opacity="1"><g transform="translate(202.117393, 331.510905)"><g><path d="M 12.203125 0.40625 C 10.148438 0.40625 8.34375 -0.015625 6.78125 -0.859375 C 5.226562 -1.710938 4.023438 -2.953125 3.171875 -4.578125 C 2.316406 -6.210938 1.890625 -8.1875 1.890625 -10.5 C 1.890625 -12.800781 2.316406 -14.769531 3.171875 -16.40625 C 4.023438 -18.050781 5.226562 -19.296875 6.78125 -20.140625 C 8.34375 -20.984375 10.148438 -21.40625 12.203125 -21.40625 C 14.265625 -21.40625 16.070312 -20.984375 17.625 -20.140625 C 19.175781 -19.296875 20.382812 -18.050781 21.25 -16.40625 C 22.113281 -14.769531 22.546875 -12.800781 22.546875 -10.5 C 22.546875 -8.1875 22.113281 -6.210938 21.25 -4.578125 C 20.382812 -2.953125 19.175781 -1.710938 17.625 -0.859375 C 16.070312 -0.015625 14.265625 0.40625 12.203125 0.40625 Z M 12.203125 -4.078125 C 15.460938 -4.078125 17.09375 -6.21875 17.09375 -10.5 C 17.09375 -12.71875 16.675781 -14.34375 15.84375 -15.375 C 15.007812 -16.40625 13.796875 -16.921875 12.203125 -16.921875 C 8.941406 -16.921875 7.3125 -14.78125 7.3125 -10.5 C 7.3125 -6.21875 8.941406 -4.078125 12.203125 -4.078125 Z M 12.203125 -4.078125 "/></g></g></g><g fill="#004aad" fill-opacity="1"><g transform="translate(226.523154, 331.510905)"><g><path d="M 14.484375 -5.015625 L 15.859375 -1.109375 C 15.285156 -0.640625 14.566406 -0.269531 13.703125 0 C 12.847656 0.269531 11.875 0.40625 10.78125 0.40625 C 8.507812 0.40625 6.78125 -0.210938 5.59375 -1.453125 C 4.414062 -2.691406 3.828125 -4.492188 3.828125 -6.859375 L 3.828125 -16.828125 L 0.625 -16.828125 L 0.625 -21.03125 L 3.828125 -21.03125 L 3.828125 -25.125 L 9.109375 -25.96875 L 9.109375 -21.03125 L 15.0625 -21.03125 L 15.0625 -16.828125 L 9.109375 -16.828125 L 9.109375 -7.234375 C 9.109375 -6.191406 9.320312 -5.429688 9.75 -4.953125 C 10.175781 -4.484375 10.804688 -4.25 11.640625 -4.25 C 12.578125 -4.25 13.394531 -4.503906 14.09375 -5.015625 Z M 14.484375 -5.015625 "/></g></g></g><g fill="#004aad" fill-opacity="1"><g transform="translate(242.838079, 331.510905)"><g><path d="M 20.75 -9.3125 L 7.25 -9.3125 C 7.40625 -7.476562 7.925781 -6.144531 8.8125 -5.3125 C 9.707031 -4.488281 10.921875 -4.078125 12.453125 -4.078125 C 13.660156 -4.078125 14.640625 -4.300781 15.390625 -4.75 C 16.140625 -5.195312 16.742188 -5.878906 17.203125 -6.796875 L 17.59375 -6.796875 L 21.09375 -4.546875 C 20.414062 -3.078125 19.382812 -1.882812 18 -0.96875 C 16.613281 -0.0507812 14.765625 0.40625 12.453125 0.40625 C 10.285156 0.40625 8.410156 -0.00390625 6.828125 -0.828125 C 5.242188 -1.660156 4.023438 -2.890625 3.171875 -4.515625 C 2.316406 -6.148438 1.890625 -8.144531 1.890625 -10.5 C 1.890625 -12.882812 2.335938 -14.894531 3.234375 -16.53125 C 4.140625 -18.164062 5.359375 -19.382812 6.890625 -20.1875 C 8.429688 -21 10.160156 -21.40625 12.078125 -21.40625 C 15.046875 -21.40625 17.316406 -20.617188 18.890625 -19.046875 C 20.472656 -17.472656 21.265625 -15.160156 21.265625 -12.109375 C 21.265625 -11.003906 21.226562 -10.148438 21.15625 -9.546875 Z M 16.21875 -12.71875 C 16.175781 -14.320312 15.804688 -15.488281 15.109375 -16.21875 C 14.421875 -16.945312 13.410156 -17.3125 12.078125 -17.3125 C 9.410156 -17.3125 7.84375 -15.78125 7.375 -12.71875 Z M 16.21875 -12.71875 "/></g></g></g><g fill="#004aad" fill-opacity="1"><g transform="translate(265.66373, 331.510905)"><g><path d="M 12.25 0.40625 C 10.21875 0.40625 8.421875 -0.015625 6.859375 -0.859375 C 5.296875 -1.710938 4.078125 -2.957031 3.203125 -4.59375 C 2.328125 -6.226562 1.890625 -8.195312 1.890625 -10.5 C 1.890625 -12.800781 2.328125 -14.769531 3.203125 -16.40625 C 4.078125 -18.050781 5.285156 -19.296875 6.828125 -20.140625 C 8.378906 -20.984375 10.15625 -21.40625 12.15625 -21.40625 C 16.582031 -21.40625 19.414062 -19.800781 20.65625 -16.59375 L 17.046875 -14 L 16.640625 -14 C 16.210938 -14.988281 15.648438 -15.722656 14.953125 -16.203125 C 14.265625 -16.679688 13.332031 -16.921875 12.15625 -16.921875 C 10.625 -16.921875 9.429688 -16.394531 8.578125 -15.34375 C 7.734375 -14.289062 7.3125 -12.675781 7.3125 -10.5 C 7.3125 -8.332031 7.742188 -6.71875 8.609375 -5.65625 C 9.472656 -4.601562 10.6875 -4.078125 12.25 -4.078125 C 13.382812 -4.078125 14.347656 -4.382812 15.140625 -5 C 15.941406 -5.613281 16.515625 -6.5 16.859375 -7.65625 L 17.25 -7.6875 L 21 -5.640625 C 20.46875 -3.859375 19.476562 -2.40625 18.03125 -1.28125 C 16.59375 -0.15625 14.664062 0.40625 12.25 0.40625 Z M 12.25 0.40625 "/></g></g></g><g fill="#004aad" fill-opacity="1"><g transform="translate(287.309084, 331.510905)"><g><path d="M 14.484375 -5.015625 L 15.859375 -1.109375 C 15.285156 -0.640625 14.566406 -0.269531 13.703125 0 C 12.847656 0.269531 11.875 0.40625 10.78125 0.40625 C 8.507812 0.40625 6.78125 -0.210938 5.59375 -1.453125 C 4.414062 -2.691406 3.828125 -4.492188 3.828125 -6.859375 L 3.828125 -16.828125 L 0.625 -16.828125 L 0.625 -21.03125 L 3.828125 -21.03125 L 3.828125 -25.125 L 9.109375 -25.96875 L 9.109375 -21.03125 L 15.0625 -21.03125 L 15.0625 -16.828125 L 9.109375 -16.828125 L 9.109375 -7.234375 C 9.109375 -6.191406 9.320312 -5.429688 9.75 -4.953125 C 10.175781 -4.484375 10.804688 -4.25 11.640625 -4.25 C 12.578125 -4.25 13.394531 -4.503906 14.09375 -5.015625 Z M 14.484375 -5.015625 "/></g></g></g><g fill="#004aad" fill-opacity="1"><g transform="translate(303.62401, 331.510905)"><g><path d="M 5.65625 -23.515625 C 4.707031 -23.515625 3.929688 -23.800781 3.328125 -24.375 C 2.734375 -24.957031 2.4375 -25.707031 2.4375 -26.625 C 2.4375 -27.519531 2.734375 -28.253906 3.328125 -28.828125 C 3.929688 -29.410156 4.707031 -29.703125 5.65625 -29.703125 C 6.289062 -29.703125 6.851562 -29.566406 7.34375 -29.296875 C 7.84375 -29.035156 8.226562 -28.671875 8.5 -28.203125 C 8.769531 -27.742188 8.90625 -27.21875 8.90625 -26.625 C 8.90625 -26.03125 8.769531 -25.492188 8.5 -25.015625 C 8.226562 -24.546875 7.84375 -24.175781 7.34375 -23.90625 C 6.851562 -23.644531 6.289062 -23.515625 5.65625 -23.515625 Z M 3.03125 0 L 3.03125 -21 L 8.296875 -21 L 8.296875 0 Z M 3.03125 0 "/></g></g></g><g fill="#004aad" fill-opacity="1"><g transform="translate(314.932145, 331.510905)"><g><path d="M 12.203125 0.40625 C 10.148438 0.40625 8.34375 -0.015625 6.78125 -0.859375 C 5.226562 -1.710938 4.023438 -2.953125 3.171875 -4.578125 C 2.316406 -6.210938 1.890625 -8.1875 1.890625 -10.5 C 1.890625 -12.800781 2.316406 -14.769531 3.171875 -16.40625 C 4.023438 -18.050781 5.226562 -19.296875 6.78125 -20.140625 C 8.34375 -20.984375 10.148438 -21.40625 12.203125 -21.40625 C 14.265625 -21.40625 16.070312 -20.984375 17.625 -20.140625 C 19.175781 -19.296875 20.382812 -18.050781 21.25 -16.40625 C 22.113281 -14.769531 22.546875 -12.800781 22.546875 -10.5 C 22.546875 -8.1875 22.113281 -6.210938 21.25 -4.578125 C 20.382812 -2.953125 19.175781 -1.710938 17.625 -0.859375 C 16.070312 -0.015625 14.265625 0.40625 12.203125 0.40625 Z M 12.203125 -4.078125 C 15.460938 -4.078125 17.09375 -6.21875 17.09375 -10.5 C 17.09375 -12.71875 16.675781 -14.34375 15.84375 -15.375 C 15.007812 -16.40625 13.796875 -16.921875 12.203125 -16.921875 C 8.941406 -16.921875 7.3125 -14.78125 7.3125 -10.5 C 7.3125 -6.21875 8.941406 -4.078125 12.203125 -4.078125 Z M 12.203125 -4.078125 "/></g></g></g><g fill="#004aad" fill-opacity="1"><g transform="translate(339.337905, 331.510905)"><g><path d="M 3.03125 0 L 3.03125 -21 L 8.09375 -21 L 8.09375 -17.921875 L 8.5 -17.828125 C 9.800781 -20.210938 11.921875 -21.40625 14.859375 -21.40625 C 17.273438 -21.40625 19.050781 -20.742188 20.1875 -19.421875 C 21.332031 -18.097656 21.90625 -16.175781 21.90625 -13.65625 L 21.90625 0 L 16.625 0 L 16.625 -13 C 16.625 -14.394531 16.34375 -15.398438 15.78125 -16.015625 C 15.226562 -16.640625 14.335938 -16.953125 13.109375 -16.953125 C 11.585938 -16.953125 10.40625 -16.460938 9.5625 -15.484375 C 8.71875 -14.503906 8.296875 -12.96875 8.296875 -10.875 L 8.296875 0 Z M 3.03125 0 "/></g></g></g></svg>