<svg xmlns="http://www.w3.org/2000/svg" xmlns:xlink="http://www.w3.org/1999/xlink" width="500" zoomAndPan="magnify" viewBox="0 0 375 374.999991" height="500" preserveAspectRatio="xMidYMid meet" version="1.0"><defs><g/><clipPath id="4eff36dd73"><path d="M 134 152 L 139 152 L 139 159 L 134 159 Z M 134 152 " clip-rule="nonzero"/></clipPath><clipPath id="8959de177a"><path d="M 94.132812 0 L 321.738281 43.632812 L 280.929688 256.507812 L 53.324219 212.875 Z M 94.132812 0 " clip-rule="nonzero"/></clipPath><clipPath id="139ea624e9"><path d="M 94.132812 0 L 321.738281 43.632812 L 280.929688 256.507812 L 53.324219 212.875 Z M 94.132812 0 " clip-rule="nonzero"/></clipPath><clipPath id="0e1674eba3"><path d="M 111 126 L 157 126 L 157 173 L 111 173 Z M 111 126 " clip-rule="nonzero"/></clipPath><clipPath id="561f399d57"><path d="M 94.132812 0 L 321.738281 43.632812 L 280.929688 256.507812 L 53.324219 212.875 Z M 94.132812 0 " clip-rule="nonzero"/></clipPath><clipPath id="a2734d51a3"><path d="M 94.132812 0 L 321.738281 43.632812 L 280.929688 256.507812 L 53.324219 212.875 Z M 94.132812 0 " clip-rule="nonzero"/></clipPath><clipPath id="1e28b94864"><path d="M 130 140 L 136 140 L 136 149 L 130 149 Z M 130 140 " clip-rule="nonzero"/></clipPath><clipPath id="7e0fe143cf"><path d="M 94.132812 0 L 321.738281 43.632812 L 280.929688 256.507812 L 53.324219 212.875 Z M 94.132812 0 " clip-rule="nonzero"/></clipPath><clipPath id="2b59f37fdb"><path d="M 94.132812 0 L 321.738281 43.632812 L 280.929688 256.507812 L 53.324219 212.875 Z M 94.132812 0 " clip-rule="nonzero"/></clipPath><clipPath id="1eb9447c38"><path d="M 240 146 L 246 146 L 246 156 L 240 156 Z M 240 146 " clip-rule="nonzero"/></clipPath><clipPath id="1313ead887"><path d="M 94.132812 0 L 321.738281 43.632812 L 280.929688 256.507812 L 53.324219 212.875 Z M 94.132812 0 " clip-rule="nonzero"/></clipPath><clipPath id="a04e79051c"><path d="M 94.132812 0 L 321.738281 43.632812 L 280.929688 256.507812 L 53.324219 212.875 Z M 94.132812 0 " clip-rule="nonzero"/></clipPath><clipPath id="67da7aee72"><path d="M 235 130 L 242 130 L 242 142 L 235 142 Z M 235 130 " clip-rule="nonzero"/></clipPath><clipPath id="b59fb2a19e"><path d="M 94.132812 0 L 321.738281 43.632812 L 280.929688 256.507812 L 53.324219 212.875 Z M 94.132812 0 " clip-rule="nonzero"/></clipPath><clipPath id="e3fa92e649"><path d="M 94.132812 0 L 321.738281 43.632812 L 280.929688 256.507812 L 53.324219 212.875 Z M 94.132812 0 " clip-rule="nonzero"/></clipPath><clipPath id="89d09ec06d"><path d="M 209 112 L 271 112 L 271 174 L 209 174 Z M 209 112 " clip-rule="nonzero"/></clipPath><clipPath id="b5afd1b258"><path d="M 94.132812 0 L 321.738281 43.632812 L 280.929688 256.507812 L 53.324219 212.875 Z M 94.132812 0 " clip-rule="nonzero"/></clipPath><clipPath id="7ccd35bc52"><path d="M 94.132812 0 L 321.738281 43.632812 L 280.929688 256.507812 L 53.324219 212.875 Z M 94.132812 0 " clip-rule="nonzero"/></clipPath><clipPath id="9f8ecbfaa9"><path d="M 83 84 L 110 84 L 110 110 L 83 110 Z M 83 84 " clip-rule="nonzero"/></clipPath><clipPath id="3486ab58e1"><path d="M 94.132812 0 L 321.738281 43.632812 L 280.929688 256.507812 L 53.324219 212.875 Z M 94.132812 0 " clip-rule="nonzero"/></clipPath><clipPath id="970846a58e"><path d="M 94.132812 0 L 321.738281 43.632812 L 280.929688 256.507812 L 53.324219 212.875 Z M 94.132812 0 " clip-rule="nonzero"/></clipPath><clipPath id="13594283a0"><path d="M 234 180 L 260 180 L 260 206 L 234 206 Z M 234 180 " clip-rule="nonzero"/></clipPath><clipPath id="66843d8042"><path d="M 94.132812 0 L 321.738281 43.632812 L 280.929688 256.507812 L 53.324219 212.875 Z M 94.132812 0 " clip-rule="nonzero"/></clipPath><clipPath id="00da9ebcea"><path d="M 94.132812 0 L 321.738281 43.632812 L 280.929688 256.507812 L 53.324219 212.875 Z M 94.132812 0 " clip-rule="nonzero"/></clipPath><clipPath id="1c39604679"><path d="M 80 19 L 308 19 L 308 232 L 80 232 Z M 80 19 " clip-rule="nonzero"/></clipPath><clipPath id="44ab2e239a"><path d="M 94.132812 0 L 321.738281 43.632812 L 280.929688 256.507812 L 53.324219 212.875 Z M 94.132812 0 " clip-rule="nonzero"/></clipPath><clipPath id="e459749076"><path d="M 94.132812 0 L 321.738281 43.632812 L 280.929688 256.507812 L 53.324219 212.875 Z M 94.132812 0 " clip-rule="nonzero"/></clipPath></defs><g clip-path="url(#4eff36dd73)"><g clip-path="url(#8959de177a)"><g clip-path="url(#139ea624e9)"><path fill="#089d79" d="M 135.96875 152.007812 L 134.632812 158.972656 C 135.097656 158.976562 135.484375 158.929688 135.792969 158.828125 C 136.300781 158.671875 136.71875 158.460938 137.015625 158.214844 C 137.296875 157.96875 137.519531 157.699219 137.667969 157.425781 C 137.875 157.050781 137.9375 156.839844 137.953125 156.75 L 137.957031 156.730469 C 138.246094 155.390625 138.164062 154.320312 137.71875 153.550781 C 137.375 152.960938 136.796875 152.449219 135.96875 152.007812 " fill-opacity="1" fill-rule="nonzero"/></g></g></g><g clip-path="url(#0e1674eba3)"><g clip-path="url(#561f399d57)"><g clip-path="url(#a2734d51a3)"><path fill="#089d79" d="M 138.296875 160.503906 C 137.253906 161.289062 135.855469 161.640625 134.140625 161.554688 L 133.957031 162.5 C 133.867188 162.984375 133.59375 163.355469 133.195312 163.550781 C 132.847656 163.722656 132.496094 163.773438 132.152344 163.710938 C 131.800781 163.640625 131.5 163.460938 131.25 163.167969 C 131.050781 162.90625 130.871094 162.511719 130.984375 161.929688 L 131.15625 161.027344 C 129.449219 160.539062 128.015625 159.761719 126.894531 158.707031 C 125.546875 157.449219 124.871094 155.847656 124.882812 153.953125 C 124.863281 153.398438 125.140625 153.085938 125.3125 152.953125 C 125.519531 152.789062 125.863281 152.621094 126.429688 152.765625 C 127.300781 152.949219 127.589844 153.605469 127.554688 154.15625 C 127.59375 155.078125 127.980469 155.972656 128.738281 156.8125 C 129.378906 157.515625 130.351562 158.066406 131.648438 158.453125 L 133.078125 150.949219 C 131.289062 150.359375 129.9375 149.484375 129.003906 148.335938 C 127.960938 147.023438 127.507812 145.472656 127.648438 143.722656 C 127.734375 142.777344 128.035156 141.894531 128.539062 141.097656 C 129.042969 140.3125 129.683594 139.675781 130.445312 139.1875 C 131.195312 138.695312 132.078125 138.367188 133.128906 138.179688 C 133.898438 138.050781 134.707031 138.019531 135.542969 138.089844 L 135.738281 137.078125 C 135.820312 136.65625 136.039062 136.308594 136.378906 136.082031 C 137.183594 135.628906 137.890625 135.824219 138.402344 136.390625 C 138.707031 136.78125 138.804688 137.203125 138.71875 137.652344 L 138.496094 138.820312 C 139.808594 139.359375 140.847656 140.183594 141.597656 141.277344 C 142.496094 142.578125 142.796875 144.148438 142.492188 145.953125 L 142.480469 146.039062 L 142.445312 146.121094 C 142.171875 146.808594 141.613281 147.195312 140.96875 147.15625 C 140.332031 147.101562 139.738281 146.636719 139.808594 145.710938 C 139.855469 145.296875 139.847656 144.859375 139.785156 144.347656 C 139.722656 143.90625 139.582031 143.480469 139.371094 143.089844 C 139.132812 142.652344 138.832031 142.253906 138.46875 141.894531 C 138.324219 141.75 138.160156 141.617188 137.980469 141.5 L 136.484375 149.324219 C 137.480469 149.761719 138.261719 150.253906 138.863281 150.820312 C 139.570312 151.484375 140.085938 152.195312 140.394531 152.945312 C 140.695312 153.691406 140.839844 154.460938 140.832031 155.238281 C 140.832031 156 140.734375 156.6875 140.539062 157.332031 C 140.21875 158.550781 139.460938 159.628906 138.296875 160.503906 Z M 156.238281 153.886719 C 158.601562 141.566406 150.484375 129.617188 138.152344 127.253906 C 125.820312 124.890625 113.859375 132.988281 111.5 145.3125 C 109.136719 157.632812 117.253906 169.578125 129.585938 171.945312 C 141.917969 174.308594 153.875 166.207031 156.238281 153.886719 " fill-opacity="1" fill-rule="nonzero"/></g></g></g><g clip-path="url(#1e28b94864)"><g clip-path="url(#7e0fe143cf)"><g clip-path="url(#2b59f37fdb)"><path fill="#089d79" d="M 130.421875 144.105469 C 130.386719 144.453125 130.398438 144.839844 130.457031 145.261719 C 130.515625 145.601562 130.675781 145.960938 130.925781 146.3125 C 131.214844 146.722656 131.628906 147.132812 132.152344 147.53125 C 132.515625 147.8125 133 148.078125 133.582031 148.316406 L 135.050781 140.660156 C 133.839844 140.601562 132.855469 140.847656 132.0625 141.410156 C 131.113281 142.085938 130.574219 142.96875 130.421875 144.105469 " fill-opacity="1" fill-rule="nonzero"/></g></g></g><g clip-path="url(#1eb9447c38)"><g clip-path="url(#1313ead887)"><g clip-path="url(#a04e79051c)"><path fill="#089d79" d="M 242.574219 146.011719 L 240.777344 155.378906 C 241.398438 155.386719 241.921875 155.320312 242.335938 155.183594 C 243.015625 154.972656 243.582031 154.6875 243.976562 154.355469 C 244.355469 154.03125 244.65625 153.667969 244.855469 153.296875 C 245.136719 152.792969 245.21875 152.511719 245.242188 152.386719 L 245.246094 152.363281 C 245.632812 150.558594 245.527344 149.121094 244.925781 148.085938 C 244.460938 147.289062 243.683594 146.605469 242.574219 146.011719 " fill-opacity="1" fill-rule="nonzero"/></g></g></g><g clip-path="url(#67da7aee72)"><g clip-path="url(#b59fb2a19e)"><g clip-path="url(#e3fa92e649)"><path fill="#089d79" d="M 235.113281 135.386719 C 235.0625 135.851562 235.078125 136.375 235.15625 136.9375 C 235.238281 137.394531 235.453125 137.878906 235.789062 138.355469 C 236.179688 138.90625 236.734375 139.457031 237.4375 139.992188 C 237.929688 140.371094 238.578125 140.722656 239.363281 141.046875 L 241.335938 130.753906 C 239.707031 130.671875 238.382812 131.003906 237.320312 131.757812 C 236.039062 132.671875 235.316406 133.855469 235.113281 135.386719 " fill-opacity="1" fill-rule="nonzero"/></g></g></g><g clip-path="url(#89d09ec06d)"><g clip-path="url(#b5afd1b258)"><g clip-path="url(#7ccd35bc52)"><path fill="#089d79" d="M 245.699219 157.4375 C 244.296875 158.492188 242.421875 158.964844 240.109375 158.851562 L 239.867188 160.121094 C 239.742188 160.769531 239.378906 161.273438 238.84375 161.535156 C 238.371094 161.765625 237.898438 161.839844 237.4375 161.75 C 236.96875 161.660156 236.558594 161.414062 236.226562 161.019531 C 235.960938 160.667969 235.714844 160.136719 235.867188 159.351562 L 236.097656 158.140625 C 233.800781 157.484375 231.878906 156.4375 230.363281 155.019531 C 228.558594 153.328125 227.648438 151.175781 227.660156 148.625 C 227.636719 147.878906 228.011719 147.460938 228.238281 147.28125 C 228.515625 147.0625 228.980469 146.835938 229.742188 147.03125 C 230.914062 147.277344 231.304688 148.160156 231.253906 148.902344 C 231.3125 150.140625 231.832031 151.34375 232.851562 152.472656 C 233.707031 153.414062 235.019531 154.15625 236.761719 154.683594 L 238.683594 144.589844 C 236.273438 143.792969 234.457031 142.621094 233.203125 141.070312 C 231.800781 139.308594 231.191406 137.222656 231.382812 134.871094 C 231.496094 133.597656 231.898438 132.414062 232.578125 131.335938 C 233.257812 130.285156 234.117188 129.425781 235.144531 128.773438 C 236.148438 128.109375 237.335938 127.664062 238.753906 127.417969 C 239.789062 127.242188 240.875 127.199219 242 127.292969 L 242.261719 125.9375 C 242.371094 125.363281 242.667969 124.898438 243.121094 124.59375 C 244.203125 123.984375 245.15625 124.25 245.84375 125.007812 C 246.253906 125.535156 246.386719 126.101562 246.269531 126.703125 L 245.96875 128.28125 C 247.734375 129.003906 249.132812 130.109375 250.140625 131.582031 C 251.351562 133.328125 251.753906 135.445312 251.347656 137.871094 L 251.324219 137.988281 L 251.28125 138.097656 C 250.910156 139.023438 250.164062 139.539062 249.296875 139.484375 C 248.4375 139.414062 247.640625 138.785156 247.734375 137.546875 C 247.796875 136.984375 247.789062 136.398438 247.707031 135.710938 C 247.625 135.121094 247.433594 134.542969 247.144531 134.019531 C 246.828125 133.433594 246.421875 132.890625 245.933594 132.410156 C 245.738281 132.214844 245.519531 132.039062 245.277344 131.878906 L 243.265625 142.40625 C 244.601562 142.988281 245.652344 143.652344 246.460938 144.417969 C 247.410156 145.304688 248.105469 146.265625 248.523438 147.273438 C 248.925781 148.277344 249.125 149.3125 249.113281 150.355469 C 249.109375 151.382812 248.980469 152.308594 248.71875 153.171875 C 248.289062 154.808594 247.265625 156.257812 245.699219 157.4375 Z M 245.507812 112.722656 C 228.921875 109.542969 212.839844 120.4375 209.664062 137.003906 C 206.488281 153.574219 217.398438 169.644531 233.988281 172.824219 C 250.574219 176 266.652344 165.109375 269.828125 148.539062 C 273.003906 131.96875 262.09375 115.902344 245.507812 112.722656 " fill-opacity="1" fill-rule="nonzero"/></g></g></g><g clip-path="url(#9f8ecbfaa9)"><g clip-path="url(#3486ab58e1)"><g clip-path="url(#970846a58e)"><path fill="#089d79" d="M 98.746094 84.910156 C 91.890625 83.597656 85.238281 88.101562 83.925781 94.953125 C 82.613281 101.804688 87.125 108.449219 93.984375 109.765625 C 100.84375 111.082031 107.492188 106.574219 108.804688 99.722656 C 110.117188 92.871094 105.609375 86.226562 98.746094 84.910156 " fill-opacity="1" fill-rule="nonzero"/></g></g></g><g clip-path="url(#13594283a0)"><g clip-path="url(#66843d8042)"><g clip-path="url(#00da9ebcea)"><path fill="#089d79" d="M 249.578125 180.226562 C 242.71875 178.910156 236.070312 183.417969 234.757812 190.269531 C 233.441406 197.121094 237.953125 203.765625 244.8125 205.082031 C 251.671875 206.394531 258.320312 201.890625 259.636719 195.039062 C 260.949219 188.1875 256.4375 181.542969 249.578125 180.226562 " fill-opacity="1" fill-rule="nonzero"/></g></g></g><g clip-path="url(#1c39604679)"><g clip-path="url(#44ab2e239a)"><g clip-path="url(#e459749076)"><path fill="#089d79" d="M 307.746094 112.640625 C 307.5625 111.894531 288.675781 37.4375 207.910156 21.957031 C 127.136719 6.472656 82.058594 68.664062 81.613281 69.289062 C 80.5625 70.769531 80.726562 72.777344 81.992188 74.066406 C 83.265625 75.359375 85.269531 75.550781 86.765625 74.542969 C 104.117188 62.792969 127.769531 82.839844 128.003906 83.058594 C 129.28125 84.136719 131.152344 84.277344 132.550781 83.320312 C 148.816406 72.304688 168.316406 90.539062 168.511719 90.71875 C 169.949219 92.070312 172.199219 92.117188 173.644531 90.753906 C 178.371094 86.355469 185.226562 85.335938 190.066406 85.230469 L 173.953125 169.285156 C 172.601562 170.359375 171.558594 171.835938 171.210938 173.660156 L 165.105469 205.589844 C 164.871094 207.445312 163.441406 213.296875 160.054688 215.75 C 158.984375 216.519531 157.136719 217.46875 153.375 216.746094 C 141.515625 214.472656 141.664062 208.726562 143.171875 200.855469 C 143.949219 196.800781 141.292969 192.886719 137.230469 192.109375 C 133.171875 191.332031 129.253906 193.984375 128.476562 198.039062 C 124.023438 221.277344 138.027344 229.023438 150.5625 231.425781 C 159.351562 233.109375 165.410156 230.371094 168.953125 227.773438 C 178.164062 221.007812 179.804688 208.710938 179.882812 207.894531 L 185.902344 176.480469 C 186.253906 174.652344 185.828125 172.898438 184.972656 171.398438 L 201.089844 87.324219 C 205.535156 89.199219 211.515625 92.675781 214.292969 98.546875 C 214.824219 99.664062 215.835938 100.398438 216.96875 100.617188 C 217.65625 100.75 218.390625 100.691406 219.074219 100.414062 C 219.324219 100.3125 244.121094 90.484375 255.230469 106.839844 C 256.1875 108.25 257.957031 108.808594 259.554688 108.269531 C 259.847656 108.171875 289.195312 98.207031 301.015625 115.617188 C 302.03125 117.105469 303.964844 117.667969 305.628906 116.9375 C 307.277344 116.207031 308.175781 114.402344 307.746094 112.640625 " fill-opacity="1" fill-rule="nonzero"/></g></g></g><g fill="#000000" fill-opacity="1"><g transform="translate(95.941404, 295.599883)"><g><path d="M 2.765625 -37.953125 L 16.609375 -37.953125 C 20.472656 -37.953125 23.597656 -36.953125 25.984375 -34.953125 C 28.378906 -32.960938 29.578125 -30.066406 29.578125 -26.265625 C 29.578125 -22.460938 28.363281 -19.476562 25.9375 -17.3125 C 23.519531 -15.15625 20.410156 -14.078125 16.609375 -14.078125 L 11.40625 -14.078125 L 11.40625 0 L 2.765625 0 Z M 11.40625 -20.96875 L 13.84375 -20.96875 C 15.78125 -20.96875 17.367188 -21.359375 18.609375 -22.140625 C 19.847656 -22.929688 20.46875 -24.210938 20.46875 -25.984375 C 20.46875 -27.796875 19.847656 -29.09375 18.609375 -29.875 C 17.367188 -30.65625 15.78125 -31.046875 13.84375 -31.046875 L 11.40625 -31.046875 Z M 11.40625 -20.96875 "/></g></g></g><g fill="#000000" fill-opacity="1"><g transform="translate(126.574822, 295.599883)"><g><path d="M 4.375 -2.921875 C 2.164062 -5.328125 1.0625 -8.273438 1.0625 -11.765625 C 1.0625 -15.265625 2.164062 -18.222656 4.375 -20.640625 C 6.582031 -23.066406 9.382812 -24.28125 12.78125 -24.28125 C 15.914062 -24.28125 18.492188 -23.300781 20.515625 -21.34375 L 20.515625 -23.59375 L 28.65625 -23.59375 L 28.65625 0 L 20.609375 0 L 20.609375 -2.671875 L 20.515625 -2.671875 C 18.492188 -0.429688 15.914062 0.6875 12.78125 0.6875 C 9.382812 0.6875 6.582031 -0.515625 4.375 -2.921875 Z M 11.28125 -15.78125 C 10.226562 -14.738281 9.703125 -13.40625 9.703125 -11.78125 C 9.703125 -10.15625 10.207031 -8.828125 11.21875 -7.796875 C 12.226562 -6.765625 13.5625 -6.25 15.21875 -6.25 C 16.820312 -6.25 18.132812 -6.769531 19.15625 -7.8125 C 20.1875 -8.863281 20.703125 -10.1875 20.703125 -11.78125 C 20.703125 -13.40625 20.171875 -14.738281 19.109375 -15.78125 C 18.054688 -16.820312 16.757812 -17.34375 15.21875 -17.34375 C 13.65625 -17.34375 12.34375 -16.820312 11.28125 -15.78125 Z M 11.28125 -15.78125 "/></g></g></g><g fill="#000000" fill-opacity="1"><g transform="translate(157.990179, 295.599883)"><g><path d="M 20.65625 -23.59375 L 30.03125 -23.59375 L 11.5 11.953125 L 2.109375 11.953125 L 10.265625 -3.6875 L -0.921875 -23.59375 L 8.46875 -23.59375 L 15.046875 -11.5 Z M 20.65625 -23.59375 "/></g></g></g><g fill="#000000" fill-opacity="1"><g transform="translate(187.105732, 295.599883)"><g><path d="M 4.375 -2.921875 C 2.164062 -5.328125 1.0625 -8.273438 1.0625 -11.765625 C 1.0625 -15.265625 2.164062 -18.222656 4.375 -20.640625 C 6.582031 -23.066406 9.382812 -24.28125 12.78125 -24.28125 C 15.914062 -24.28125 18.492188 -23.300781 20.515625 -21.34375 L 20.515625 -39.5625 L 28.65625 -39.5625 L 28.65625 0 L 20.609375 0 L 20.609375 -2.671875 L 20.515625 -2.671875 C 18.492188 -0.429688 15.914062 0.6875 12.78125 0.6875 C 9.382812 0.6875 6.582031 -0.515625 4.375 -2.921875 Z M 11.28125 -15.78125 C 10.226562 -14.738281 9.703125 -13.40625 9.703125 -11.78125 C 9.703125 -10.15625 10.207031 -8.828125 11.21875 -7.796875 C 12.226562 -6.765625 13.5625 -6.25 15.21875 -6.25 C 16.820312 -6.25 18.132812 -6.769531 19.15625 -7.8125 C 20.1875 -8.863281 20.703125 -10.1875 20.703125 -11.78125 C 20.703125 -13.40625 20.171875 -14.738281 19.109375 -15.78125 C 18.054688 -16.820312 16.757812 -17.34375 15.21875 -17.34375 C 13.65625 -17.34375 12.34375 -16.820312 11.28125 -15.78125 Z M 11.28125 -15.78125 "/></g></g></g><g fill="#000000" fill-opacity="1"><g transform="translate(218.52109, 295.599883)"><g><path d="M 4.375 -2.921875 C 2.164062 -5.328125 1.0625 -8.273438 1.0625 -11.765625 C 1.0625 -15.265625 2.164062 -18.222656 4.375 -20.640625 C 6.582031 -23.066406 9.382812 -24.28125 12.78125 -24.28125 C 15.914062 -24.28125 18.492188 -23.300781 20.515625 -21.34375 L 20.515625 -23.59375 L 28.65625 -23.59375 L 28.65625 0 L 20.609375 0 L 20.609375 -2.671875 L 20.515625 -2.671875 C 18.492188 -0.429688 15.914062 0.6875 12.78125 0.6875 C 9.382812 0.6875 6.582031 -0.515625 4.375 -2.921875 Z M 11.28125 -15.78125 C 10.226562 -14.738281 9.703125 -13.40625 9.703125 -11.78125 C 9.703125 -10.15625 10.207031 -8.828125 11.21875 -7.796875 C 12.226562 -6.765625 13.5625 -6.25 15.21875 -6.25 C 16.820312 -6.25 18.132812 -6.769531 19.15625 -7.8125 C 20.1875 -8.863281 20.703125 -10.1875 20.703125 -11.78125 C 20.703125 -13.40625 20.171875 -14.738281 19.109375 -15.78125 C 18.054688 -16.820312 16.757812 -17.34375 15.21875 -17.34375 C 13.65625 -17.34375 12.34375 -16.820312 11.28125 -15.78125 Z M 11.28125 -15.78125 "/></g></g></g><g fill="#000000" fill-opacity="1"><g transform="translate(249.936447, 295.599883)"><g><path d="M 20.65625 -23.59375 L 30.03125 -23.59375 L 11.5 11.953125 L 2.109375 11.953125 L 10.265625 -3.6875 L -0.921875 -23.59375 L 8.46875 -23.59375 L 15.046875 -11.5 Z M 20.65625 -23.59375 "/></g></g></g><g fill="#000000" fill-opacity="1"><g transform="translate(64.851563, 359.349879)"><g><path d="M 2.765625 -37.953125 L 16.609375 -37.953125 C 20.472656 -37.953125 23.597656 -36.953125 25.984375 -34.953125 C 28.378906 -32.960938 29.578125 -30.066406 29.578125 -26.265625 C 29.578125 -22.460938 28.363281 -19.476562 25.9375 -17.3125 C 23.519531 -15.15625 20.410156 -14.078125 16.609375 -14.078125 L 11.40625 -14.078125 L 11.40625 0 L 2.765625 0 Z M 11.40625 -20.96875 L 13.84375 -20.96875 C 15.78125 -20.96875 17.367188 -21.359375 18.609375 -22.140625 C 19.847656 -22.929688 20.46875 -24.210938 20.46875 -25.984375 C 20.46875 -27.796875 19.847656 -29.09375 18.609375 -29.875 C 17.367188 -30.65625 15.78125 -31.046875 13.84375 -31.046875 L 11.40625 -31.046875 Z M 11.40625 -20.96875 "/></g></g></g><g fill="#000000" fill-opacity="1"><g transform="translate(95.48498, 359.349879)"><g><path d="M 2.765625 0 L 2.765625 -23.59375 L 10.90625 -23.59375 L 10.90625 -20.1875 L 11 -20.1875 C 11.0625 -20.3125 11.160156 -20.46875 11.296875 -20.65625 C 11.429688 -20.84375 11.726562 -21.164062 12.1875 -21.625 C 12.644531 -22.082031 13.132812 -22.492188 13.65625 -22.859375 C 14.175781 -23.222656 14.847656 -23.550781 15.671875 -23.84375 C 16.503906 -24.132812 17.351562 -24.28125 18.21875 -24.28125 C 19.101562 -24.28125 19.972656 -24.15625 20.828125 -23.90625 C 21.691406 -23.664062 22.320312 -23.425781 22.71875 -23.1875 L 23.375 -22.8125 L 19.96875 -15.921875 C 18.957031 -16.773438 17.546875 -17.203125 15.734375 -17.203125 C 14.753906 -17.203125 13.910156 -16.988281 13.203125 -16.5625 C 12.492188 -16.132812 11.992188 -15.613281 11.703125 -15 C 11.410156 -14.382812 11.203125 -13.859375 11.078125 -13.421875 C 10.960938 -12.992188 10.90625 -12.660156 10.90625 -12.421875 L 10.90625 0 Z M 2.765625 0 "/></g></g></g><g fill="#000000" fill-opacity="1"><g transform="translate(118.391049, 359.349879)"><g><path d="M 4.984375 -2.796875 C 2.367188 -5.128906 1.0625 -8.117188 1.0625 -11.765625 C 1.0625 -15.421875 2.425781 -18.421875 5.15625 -20.765625 C 7.882812 -23.109375 11.253906 -24.28125 15.265625 -24.28125 C 19.222656 -24.28125 22.554688 -23.097656 25.265625 -20.734375 C 27.984375 -18.378906 29.34375 -15.390625 29.34375 -11.765625 C 29.34375 -8.148438 28.015625 -5.171875 25.359375 -2.828125 C 22.710938 -0.484375 19.347656 0.6875 15.265625 0.6875 C 11.035156 0.6875 7.609375 -0.472656 4.984375 -2.796875 Z M 11.28125 -15.78125 C 10.226562 -14.738281 9.703125 -13.40625 9.703125 -11.78125 C 9.703125 -10.15625 10.207031 -8.828125 11.21875 -7.796875 C 12.226562 -6.765625 13.5625 -6.25 15.21875 -6.25 C 16.820312 -6.25 18.132812 -6.769531 19.15625 -7.8125 C 20.1875 -8.863281 20.703125 -10.1875 20.703125 -11.78125 C 20.703125 -13.40625 20.171875 -14.738281 19.109375 -15.78125 C 18.054688 -16.820312 16.757812 -17.34375 15.21875 -17.34375 C 13.65625 -17.34375 12.34375 -16.820312 11.28125 -15.78125 Z M 11.28125 -15.78125 "/></g></g></g><g fill="#000000" fill-opacity="1"><g transform="translate(148.794486, 359.349879)"><g><path d="M 4.140625 -23.59375 L 4.140625 -32.390625 L 12.28125 -32.390625 L 12.28125 -23.59375 L 17.25 -23.59375 L 17.25 -17.390625 L 12.28125 -17.390625 L 12.28125 -9.890625 C 12.28125 -7.710938 12.894531 -6.625 14.125 -6.625 C 14.425781 -6.625 14.742188 -6.679688 15.078125 -6.796875 C 15.421875 -6.921875 15.6875 -7.046875 15.875 -7.171875 L 16.140625 -7.359375 L 18.171875 -0.78125 C 16.421875 0.195312 14.425781 0.6875 12.1875 0.6875 C 10.65625 0.6875 9.335938 0.421875 8.234375 -0.109375 C 7.128906 -0.648438 6.289062 -1.375 5.71875 -2.28125 C 5.15625 -3.1875 4.75 -4.132812 4.5 -5.125 C 4.257812 -6.125 4.140625 -7.191406 4.140625 -8.328125 L 4.140625 -17.390625 L 0.734375 -17.390625 L 0.734375 -23.59375 Z M 4.140625 -23.59375 "/></g></g></g><g fill="#000000" fill-opacity="1"><g transform="translate(166.962954, 359.349879)"><g><path d="M 26.640625 -10.671875 L 9.515625 -10.671875 C 9.515625 -9.015625 10.050781 -7.785156 11.125 -6.984375 C 12.195312 -6.191406 13.363281 -5.796875 14.625 -5.796875 C 15.945312 -5.796875 16.988281 -5.972656 17.75 -6.328125 C 18.519531 -6.679688 19.394531 -7.378906 20.375 -8.421875 L 26.265625 -5.46875 C 23.816406 -1.363281 19.738281 0.6875 14.03125 0.6875 C 10.46875 0.6875 7.414062 -0.53125 4.875 -2.96875 C 2.332031 -5.40625 1.0625 -8.335938 1.0625 -11.765625 C 1.0625 -15.203125 2.332031 -18.144531 4.875 -20.59375 C 7.414062 -23.050781 10.46875 -24.28125 14.03125 -24.28125 C 17.769531 -24.28125 20.8125 -23.195312 23.15625 -21.03125 C 25.507812 -18.875 26.6875 -15.789062 26.6875 -11.78125 C 26.6875 -11.226562 26.671875 -10.859375 26.640625 -10.671875 Z M 9.75 -15.1875 L 18.71875 -15.1875 C 18.539062 -16.40625 18.054688 -17.34375 17.265625 -18 C 16.484375 -18.664062 15.484375 -19 14.265625 -19 C 12.910156 -19 11.832031 -18.644531 11.03125 -17.9375 C 10.238281 -17.226562 9.8125 -16.3125 9.75 -15.1875 Z M 9.75 -15.1875 "/></g></g></g><g fill="#000000" fill-opacity="1"><g transform="translate(194.698612, 359.349879)"><g><path d="M 15.3125 -17.625 C 13.78125 -17.625 12.460938 -17.054688 11.359375 -15.921875 C 10.253906 -14.785156 9.703125 -13.421875 9.703125 -11.828125 C 9.703125 -10.203125 10.253906 -8.820312 11.359375 -7.6875 C 12.460938 -6.550781 13.78125 -5.984375 15.3125 -5.984375 C 16.050781 -5.984375 16.75 -6.070312 17.40625 -6.25 C 18.070312 -6.4375 18.554688 -6.625 18.859375 -6.8125 L 19.28125 -7.078125 L 22.03125 -1.421875 C 21.820312 -1.273438 21.523438 -1.082031 21.140625 -0.84375 C 20.753906 -0.613281 19.878906 -0.300781 18.515625 0.09375 C 17.148438 0.488281 15.6875 0.6875 14.125 0.6875 C 10.65625 0.6875 7.609375 -0.53125 4.984375 -2.96875 C 2.367188 -5.40625 1.0625 -8.328125 1.0625 -11.734375 C 1.0625 -15.160156 2.367188 -18.109375 4.984375 -20.578125 C 7.609375 -23.046875 10.65625 -24.28125 14.125 -24.28125 C 15.6875 -24.28125 17.125 -24.097656 18.4375 -23.734375 C 19.757812 -23.367188 20.695312 -23 21.25 -22.625 L 22.03125 -22.078125 L 19.28125 -16.515625 C 18.257812 -17.253906 16.9375 -17.625 15.3125 -17.625 Z M 15.3125 -17.625 "/></g></g></g><g fill="#000000" fill-opacity="1"><g transform="translate(217.282714, 359.349879)"><g><path d="M 4.140625 -23.59375 L 4.140625 -32.390625 L 12.28125 -32.390625 L 12.28125 -23.59375 L 17.25 -23.59375 L 17.25 -17.390625 L 12.28125 -17.390625 L 12.28125 -9.890625 C 12.28125 -7.710938 12.894531 -6.625 14.125 -6.625 C 14.425781 -6.625 14.742188 -6.679688 15.078125 -6.796875 C 15.421875 -6.921875 15.6875 -7.046875 15.875 -7.171875 L 16.140625 -7.359375 L 18.171875 -0.78125 C 16.421875 0.195312 14.425781 0.6875 12.1875 0.6875 C 10.65625 0.6875 9.335938 0.421875 8.234375 -0.109375 C 7.128906 -0.648438 6.289062 -1.375 5.71875 -2.28125 C 5.15625 -3.1875 4.75 -4.132812 4.5 -5.125 C 4.257812 -6.125 4.140625 -7.191406 4.140625 -8.328125 L 4.140625 -17.390625 L 0.734375 -17.390625 L 0.734375 -23.59375 Z M 4.140625 -23.59375 "/></g></g></g><g fill="#000000" fill-opacity="1"><g transform="translate(235.451181, 359.349879)"><g><path d="M 3.53125 -36.75 C 4.488281 -37.707031 5.625 -38.1875 6.9375 -38.1875 C 8.257812 -38.1875 9.394531 -37.707031 10.34375 -36.75 C 11.300781 -35.800781 11.78125 -34.664062 11.78125 -33.34375 C 11.78125 -32.03125 11.300781 -30.894531 10.34375 -29.9375 C 9.394531 -28.988281 8.257812 -28.515625 6.9375 -28.515625 C 5.625 -28.515625 4.488281 -28.988281 3.53125 -29.9375 C 2.582031 -30.894531 2.109375 -32.03125 2.109375 -33.34375 C 2.109375 -34.664062 2.582031 -35.800781 3.53125 -36.75 Z M 2.765625 -23.59375 L 2.765625 0 L 10.90625 0 L 10.90625 -23.59375 Z M 2.765625 -23.59375 "/></g></g></g><g fill="#000000" fill-opacity="1"><g transform="translate(249.342008, 359.349879)"><g><path d="M 4.984375 -2.796875 C 2.367188 -5.128906 1.0625 -8.117188 1.0625 -11.765625 C 1.0625 -15.421875 2.425781 -18.421875 5.15625 -20.765625 C 7.882812 -23.109375 11.253906 -24.28125 15.265625 -24.28125 C 19.222656 -24.28125 22.554688 -23.097656 25.265625 -20.734375 C 27.984375 -18.378906 29.34375 -15.390625 29.34375 -11.765625 C 29.34375 -8.148438 28.015625 -5.171875 25.359375 -2.828125 C 22.710938 -0.484375 19.347656 0.6875 15.265625 0.6875 C 11.035156 0.6875 7.609375 -0.472656 4.984375 -2.796875 Z M 11.28125 -15.78125 C 10.226562 -14.738281 9.703125 -13.40625 9.703125 -11.78125 C 9.703125 -10.15625 10.207031 -8.828125 11.21875 -7.796875 C 12.226562 -6.765625 13.5625 -6.25 15.21875 -6.25 C 16.820312 -6.25 18.132812 -6.769531 19.15625 -7.8125 C 20.1875 -8.863281 20.703125 -10.1875 20.703125 -11.78125 C 20.703125 -13.40625 20.171875 -14.738281 19.109375 -15.78125 C 18.054688 -16.820312 16.757812 -17.34375 15.21875 -17.34375 C 13.65625 -17.34375 12.34375 -16.820312 11.28125 -15.78125 Z M 11.28125 -15.78125 "/></g></g></g><g fill="#000000" fill-opacity="1"><g transform="translate(279.745455, 359.349879)"><g><path d="M 2.765625 0 L 2.765625 -23.59375 L 10.90625 -23.59375 L 10.90625 -21.109375 L 11 -21.109375 C 13.113281 -23.222656 15.363281 -24.28125 17.75 -24.28125 C 18.914062 -24.28125 20.070312 -24.128906 21.21875 -23.828125 C 22.375 -23.523438 23.476562 -23.050781 24.53125 -22.40625 C 25.59375 -21.757812 26.453125 -20.84375 27.109375 -19.65625 C 27.773438 -18.476562 28.109375 -17.109375 28.109375 -15.546875 L 28.109375 0 L 19.96875 0 L 19.96875 -13.34375 C 19.96875 -14.570312 19.578125 -15.644531 18.796875 -16.5625 C 18.015625 -17.476562 16.992188 -17.9375 15.734375 -17.9375 C 14.503906 -17.9375 13.390625 -17.460938 12.390625 -16.515625 C 11.398438 -15.566406 10.90625 -14.507812 10.90625 -13.34375 L 10.90625 0 Z M 2.765625 0 "/></g></g></g></svg>