<svg xmlns="http://www.w3.org/2000/svg" xmlns:xlink="http://www.w3.org/1999/xlink" width="500" zoomAndPan="magnify" viewBox="0 0 375 374.999991" height="500" preserveAspectRatio="xMidYMid meet" version="1.0"><defs><clipPath id="c9ac779d7b"><path d="M 113 220 L 119 220 L 119 231 L 113 231 Z M 113 220 " clip-rule="nonzero"/></clipPath><clipPath id="26f60fa104"><path d="M 57.0625 8.117188 L 375.269531 69.117188 L 318.222656 366.699219 L 0.015625 305.695312 Z M 57.0625 8.117188 " clip-rule="nonzero"/></clipPath><clipPath id="966f9a9044"><path d="M 57.0625 8.117188 L 375.269531 69.117188 L 318.222656 366.699219 L 0.015625 305.695312 Z M 57.0625 8.117188 " clip-rule="nonzero"/></clipPath><clipPath id="de6b01b171"><path d="M 80 185 L 145 185 L 145 250 L 80 250 Z M 80 185 " clip-rule="nonzero"/></clipPath><clipPath id="c06ce0bcdb"><path d="M 57.0625 8.117188 L 375.269531 69.117188 L 318.222656 366.699219 L 0.015625 305.695312 Z M 57.0625 8.117188 " clip-rule="nonzero"/></clipPath><clipPath id="4efb882049"><path d="M 57.0625 8.117188 L 375.269531 69.117188 L 318.222656 366.699219 L 0.015625 305.695312 Z M 57.0625 8.117188 " clip-rule="nonzero"/></clipPath><clipPath id="f3f264e943"><path d="M 107 204 L 115 204 L 115 216 L 107 216 Z M 107 204 " clip-rule="nonzero"/></clipPath><clipPath id="e2dd398471"><path d="M 57.0625 8.117188 L 375.269531 69.117188 L 318.222656 366.699219 L 0.015625 305.695312 Z M 57.0625 8.117188 " clip-rule="nonzero"/></clipPath><clipPath id="aa28c6673f"><path d="M 57.0625 8.117188 L 375.269531 69.117188 L 318.222656 366.699219 L 0.015625 305.695312 Z M 57.0625 8.117188 " clip-rule="nonzero"/></clipPath><clipPath id="c1911fce96"><path d="M 262 212 L 269 212 L 269 226 L 262 226 Z M 262 212 " clip-rule="nonzero"/></clipPath><clipPath id="f26e2abe45"><path d="M 57.0625 8.117188 L 375.269531 69.117188 L 318.222656 366.699219 L 0.015625 305.695312 Z M 57.0625 8.117188 " clip-rule="nonzero"/></clipPath><clipPath id="55e40d7e43"><path d="M 57.0625 8.117188 L 375.269531 69.117188 L 318.222656 366.699219 L 0.015625 305.695312 Z M 57.0625 8.117188 " clip-rule="nonzero"/></clipPath><clipPath id="e6b7e0a889"><path d="M 254 190 L 263 190 L 263 206 L 254 206 Z M 254 190 " clip-rule="nonzero"/></clipPath><clipPath id="be8013ff3a"><path d="M 57.0625 8.117188 L 375.269531 69.117188 L 318.222656 366.699219 L 0.015625 305.695312 Z M 57.0625 8.117188 " clip-rule="nonzero"/></clipPath><clipPath id="2176e9217a"><path d="M 57.0625 8.117188 L 375.269531 69.117188 L 318.222656 366.699219 L 0.015625 305.695312 Z M 57.0625 8.117188 " clip-rule="nonzero"/></clipPath><clipPath id="2dd666d31f"><path d="M 217 164 L 304 164 L 304 251 L 217 251 Z M 217 164 " clip-rule="nonzero"/></clipPath><clipPath id="e555bd0fac"><path d="M 57.0625 8.117188 L 375.269531 69.117188 L 318.222656 366.699219 L 0.015625 305.695312 Z M 57.0625 8.117188 " clip-rule="nonzero"/></clipPath><clipPath id="2915394dc8"><path d="M 57.0625 8.117188 L 375.269531 69.117188 L 318.222656 366.699219 L 0.015625 305.695312 Z M 57.0625 8.117188 " clip-rule="nonzero"/></clipPath><clipPath id="1c778f2a7e"><path d="M 42 126 L 78 126 L 78 162 L 42 162 Z M 42 126 " clip-rule="nonzero"/></clipPath><clipPath id="7f211edb6d"><path d="M 57.0625 8.117188 L 375.269531 69.117188 L 318.222656 366.699219 L 0.015625 305.695312 Z M 57.0625 8.117188 " clip-rule="nonzero"/></clipPath><clipPath id="33a213bc53"><path d="M 57.0625 8.117188 L 375.269531 69.117188 L 318.222656 366.699219 L 0.015625 305.695312 Z M 57.0625 8.117188 " clip-rule="nonzero"/></clipPath><clipPath id="0a71cc82b8"><path d="M 253 259 L 289 259 L 289 296 L 253 296 Z M 253 259 " clip-rule="nonzero"/></clipPath><clipPath id="7bf3641194"><path d="M 57.0625 8.117188 L 375.269531 69.117188 L 318.222656 366.699219 L 0.015625 305.695312 Z M 57.0625 8.117188 " clip-rule="nonzero"/></clipPath><clipPath id="8fb4c6240e"><path d="M 57.0625 8.117188 L 375.269531 69.117188 L 318.222656 366.699219 L 0.015625 305.695312 Z M 57.0625 8.117188 " clip-rule="nonzero"/></clipPath><clipPath id="b68bc67e4a"><path d="M 38 35 L 356 35 L 356 333 L 38 333 Z M 38 35 " clip-rule="nonzero"/></clipPath><clipPath id="9bdf1055c9"><path d="M 57.0625 8.117188 L 375.269531 69.117188 L 318.222656 366.699219 L 0.015625 305.695312 Z M 57.0625 8.117188 " clip-rule="nonzero"/></clipPath><clipPath id="961ded8c57"><path d="M 57.0625 8.117188 L 375.269531 69.117188 L 318.222656 366.699219 L 0.015625 305.695312 Z M 57.0625 8.117188 " clip-rule="nonzero"/></clipPath></defs><g clip-path="url(#c9ac779d7b)"><g clip-path="url(#26f60fa104)"><g clip-path="url(#966f9a9044)"><path fill="#089d79" d="M 115.558594 220.609375 L 113.691406 230.351562 C 114.335938 230.355469 114.878906 230.289062 115.3125 230.148438 C 116.019531 229.925781 116.605469 229.632812 117.019531 229.289062 C 117.414062 228.945312 117.726562 228.570312 117.933594 228.183594 C 118.222656 227.660156 118.308594 227.367188 118.332031 227.238281 L 118.335938 227.214844 C 118.738281 225.339844 118.625 223.84375 118.003906 222.765625 C 117.519531 221.945312 116.714844 221.230469 115.558594 220.609375 " fill-opacity="1" fill-rule="nonzero"/></g></g></g><g clip-path="url(#de6b01b171)"><g clip-path="url(#c06ce0bcdb)"><g clip-path="url(#4efb882049)"><path fill="#089d79" d="M 118.808594 232.492188 C 117.351562 233.585938 115.398438 234.078125 113 233.960938 L 112.746094 235.277344 C 112.617188 235.957031 112.238281 236.476562 111.679688 236.75 C 111.191406 236.988281 110.699219 237.0625 110.21875 236.96875 C 109.730469 236.875 109.308594 236.625 108.960938 236.214844 C 108.683594 235.847656 108.429688 235.296875 108.585938 234.480469 L 108.828125 233.21875 C 106.4375 232.535156 104.4375 231.449219 102.867188 229.976562 C 100.988281 228.21875 100.042969 225.980469 100.054688 223.328125 C 100.03125 222.554688 100.417969 222.121094 100.65625 221.933594 C 100.945312 221.703125 101.425781 221.46875 102.21875 221.667969 C 103.4375 221.925781 103.839844 222.847656 103.792969 223.617188 C 103.847656 224.90625 104.386719 226.15625 105.449219 227.328125 C 106.339844 228.3125 107.703125 229.082031 109.515625 229.625 L 111.515625 219.132812 C 109.011719 218.308594 107.121094 217.085938 105.820312 215.480469 C 104.359375 213.644531 103.726562 211.476562 103.925781 209.03125 C 104.042969 207.707031 104.460938 206.472656 105.167969 205.359375 C 105.875 204.265625 106.769531 203.375 107.835938 202.691406 C 108.878906 202.003906 110.113281 201.539062 111.585938 201.28125 C 112.660156 201.101562 113.792969 201.058594 114.960938 201.152344 L 115.230469 199.742188 C 115.347656 199.148438 115.65625 198.664062 116.125 198.347656 C 117.253906 197.714844 118.242188 197.992188 118.957031 198.78125 C 119.386719 199.328125 119.523438 199.914062 119.402344 200.542969 L 119.089844 202.179688 C 120.925781 202.929688 122.378906 204.082031 123.425781 205.609375 C 124.679688 207.429688 125.101562 209.628906 124.675781 212.148438 L 124.65625 212.269531 L 124.613281 212.386719 C 124.226562 213.347656 123.449219 213.886719 122.546875 213.828125 C 121.65625 213.753906 120.824219 213.101562 120.925781 211.808594 C 120.988281 211.226562 120.980469 210.617188 120.894531 209.902344 C 120.804688 209.289062 120.609375 208.6875 120.3125 208.148438 C 119.980469 207.535156 119.558594 206.976562 119.050781 206.476562 C 118.847656 206.273438 118.621094 206.085938 118.371094 205.921875 L 116.277344 216.863281 C 117.667969 217.46875 118.761719 218.160156 119.601562 218.953125 C 120.589844 219.878906 121.3125 220.878906 121.742188 221.921875 C 122.164062 222.96875 122.367188 224.042969 122.355469 225.128906 C 122.355469 226.195312 122.21875 227.15625 121.945312 228.054688 C 121.5 229.757812 120.4375 231.265625 118.808594 232.492188 Z M 143.894531 223.242188 C 147.195312 206.015625 135.851562 189.3125 118.605469 186.007812 C 101.367188 182.703125 84.648438 194.027344 81.34375 211.25 C 78.042969 228.472656 89.390625 245.175781 106.628906 248.480469 C 123.875 251.789062 140.589844 240.464844 143.894531 223.242188 " fill-opacity="1" fill-rule="nonzero"/></g></g></g><g clip-path="url(#f3f264e943)"><g clip-path="url(#e2dd398471)"><g clip-path="url(#aa28c6673f)"><path fill="#089d79" d="M 107.800781 209.566406 C 107.75 210.054688 107.765625 210.59375 107.851562 211.179688 C 107.933594 211.652344 108.15625 212.160156 108.503906 212.648438 C 108.910156 213.226562 109.488281 213.796875 110.21875 214.355469 C 110.730469 214.746094 111.402344 215.117188 112.21875 215.453125 L 114.273438 204.75 C 112.578125 204.667969 111.203125 205.011719 110.09375 205.796875 C 108.765625 206.742188 108.011719 207.976562 107.800781 209.566406 " fill-opacity="1" fill-rule="nonzero"/></g></g></g><g clip-path="url(#c1911fce96)"><g clip-path="url(#f26e2abe45)"><g clip-path="url(#55e40d7e43)"><path fill="#089d79" d="M 264.59375 212.234375 L 262.082031 225.328125 C 262.953125 225.335938 263.683594 225.246094 264.261719 225.054688 C 265.214844 224.757812 266.003906 224.359375 266.558594 223.898438 C 267.085938 223.441406 267.507812 222.933594 267.789062 222.414062 C 268.175781 221.710938 268.289062 221.316406 268.324219 221.144531 L 268.332031 221.109375 C 268.871094 218.589844 268.722656 216.578125 267.882812 215.128906 C 267.234375 214.019531 266.148438 213.058594 264.59375 212.234375 " fill-opacity="1" fill-rule="nonzero"/></g></g></g><g clip-path="url(#e6b7e0a889)"><g clip-path="url(#be8013ff3a)"><g clip-path="url(#2176e9217a)"><path fill="#089d79" d="M 254.164062 197.375 C 254.09375 198.03125 254.117188 198.757812 254.226562 199.542969 C 254.339844 200.183594 254.640625 200.863281 255.109375 201.527344 C 255.65625 202.296875 256.429688 203.070312 257.414062 203.816406 C 258.105469 204.34375 259.007812 204.839844 260.105469 205.292969 L 262.867188 190.898438 C 260.585938 190.789062 258.738281 191.253906 257.25 192.304688 C 255.457031 193.582031 254.445312 195.238281 254.164062 197.375 " fill-opacity="1" fill-rule="nonzero"/></g></g></g><g clip-path="url(#2dd666d31f)"><g clip-path="url(#e555bd0fac)"><g clip-path="url(#2915394dc8)"><path fill="#089d79" d="M 268.964844 228.207031 C 267.003906 229.679688 264.382812 230.339844 261.152344 230.183594 L 260.8125 231.953125 C 260.636719 232.867188 260.128906 233.566406 259.378906 233.933594 C 258.71875 234.257812 258.058594 234.359375 257.410156 234.234375 C 256.757812 234.109375 256.1875 233.761719 255.722656 233.214844 C 255.351562 232.71875 255.007812 231.980469 255.214844 230.882812 L 255.542969 229.183594 C 252.332031 228.269531 249.640625 226.808594 247.527344 224.824219 C 245 222.460938 243.726562 219.453125 243.746094 215.886719 C 243.710938 214.84375 244.238281 214.257812 244.554688 214.003906 C 244.941406 213.699219 245.589844 213.382812 246.652344 213.65625 C 248.292969 214 248.839844 215.234375 248.769531 216.269531 C 248.847656 218.003906 249.574219 219.6875 251 221.261719 C 252.199219 222.582031 254.035156 223.617188 256.46875 224.355469 L 259.160156 210.242188 C 255.789062 209.132812 253.25 207.488281 251.496094 205.324219 C 249.535156 202.859375 248.679688 199.945312 248.949219 196.65625 C 249.109375 194.875 249.671875 193.222656 250.621094 191.71875 C 251.570312 190.246094 252.773438 189.046875 254.207031 188.132812 C 255.609375 187.207031 257.269531 186.582031 259.253906 186.238281 C 260.699219 185.992188 262.21875 185.933594 263.792969 186.0625 L 264.15625 184.167969 C 264.308594 183.367188 264.726562 182.71875 265.359375 182.289062 C 266.875 181.441406 268.207031 181.808594 269.164062 182.871094 C 269.742188 183.609375 269.921875 184.398438 269.761719 185.242188 L 269.34375 187.441406 C 271.808594 188.453125 273.765625 190.003906 275.175781 192.058594 C 276.863281 194.5 277.429688 197.460938 276.859375 200.851562 L 276.832031 201.011719 L 276.769531 201.171875 C 276.25 202.460938 275.207031 203.1875 273.992188 203.109375 C 272.792969 203.007812 271.679688 202.132812 271.8125 200.394531 C 271.898438 199.613281 271.886719 198.792969 271.769531 197.832031 C 271.652344 197.003906 271.386719 196.199219 270.988281 195.46875 C 270.542969 194.648438 269.972656 193.890625 269.292969 193.21875 C 269.019531 192.945312 268.714844 192.699219 268.375 192.476562 L 265.558594 207.191406 C 267.429688 208.003906 268.902344 208.933594 270.03125 210 C 271.359375 211.246094 272.332031 212.589844 272.914062 213.996094 C 273.476562 215.402344 273.753906 216.847656 273.734375 218.304688 C 273.734375 219.738281 273.554688 221.03125 273.183594 222.242188 C 272.582031 224.53125 271.15625 226.554688 268.964844 228.207031 Z M 268.699219 165.695312 C 245.507812 161.25 223.027344 176.476562 218.585938 199.640625 C 214.144531 222.804688 229.402344 245.265625 252.589844 249.710938 C 275.777344 254.15625 298.257812 238.929688 302.699219 215.765625 C 307.140625 192.601562 291.882812 170.140625 268.699219 165.695312 " fill-opacity="1" fill-rule="nonzero"/></g></g></g><g clip-path="url(#1c778f2a7e)"><g clip-path="url(#7f211edb6d)"><g clip-path="url(#33a213bc53)"><path fill="#089d79" d="M 63.515625 126.8125 C 53.929688 124.976562 44.632812 131.273438 42.796875 140.851562 C 40.960938 150.429688 47.269531 159.71875 56.855469 161.558594 C 66.449219 163.398438 75.742188 157.097656 77.578125 147.519531 C 79.414062 137.941406 73.109375 128.652344 63.515625 126.8125 " fill-opacity="1" fill-rule="nonzero"/></g></g></g><g clip-path="url(#0a71cc82b8)"><g clip-path="url(#7bf3641194)"><g clip-path="url(#8fb4c6240e)"><path fill="#089d79" d="M 274.386719 260.0625 C 264.796875 258.226562 255.503906 264.523438 253.667969 274.101562 C 251.832031 283.679688 258.136719 292.96875 267.726562 294.808594 C 277.316406 296.644531 286.613281 290.347656 288.449219 280.769531 C 290.285156 271.191406 283.976562 261.902344 274.386719 260.0625 " fill-opacity="1" fill-rule="nonzero"/></g></g></g><g clip-path="url(#b68bc67e4a)"><g clip-path="url(#9bdf1055c9)"><g clip-path="url(#961ded8c57)"><path fill="#089d79" d="M 355.710938 165.582031 C 355.453125 164.535156 329.042969 60.453125 216.128906 38.804688 C 103.207031 17.160156 40.1875 104.097656 39.5625 104.976562 C 38.09375 107.039062 38.324219 109.851562 40.089844 111.652344 C 41.875 113.457031 44.671875 113.726562 46.765625 112.320312 C 71.027344 95.890625 104.089844 123.921875 104.417969 124.222656 C 106.207031 125.730469 108.820312 125.929688 110.773438 124.589844 C 133.515625 109.191406 160.777344 134.683594 161.050781 134.933594 C 163.058594 136.824219 166.207031 136.890625 168.230469 134.980469 C 174.835938 128.835938 184.421875 127.40625 191.183594 127.261719 L 168.660156 244.769531 C 166.773438 246.269531 165.3125 248.332031 164.824219 250.882812 L 156.289062 295.515625 C 155.964844 298.113281 153.960938 306.289062 149.226562 309.722656 C 147.734375 310.796875 145.152344 312.121094 139.894531 311.113281 C 123.3125 307.9375 123.519531 299.902344 125.628906 288.902344 C 126.714844 283.230469 123 277.761719 117.320312 276.671875 C 111.648438 275.585938 106.171875 279.292969 105.082031 284.964844 C 98.855469 317.449219 118.433594 328.273438 135.960938 331.636719 C 148.25 333.992188 156.71875 330.160156 161.667969 326.527344 C 174.546875 317.070312 176.84375 299.882812 176.949219 298.742188 L 185.367188 254.824219 C 185.855469 252.269531 185.265625 249.816406 184.066406 247.722656 L 206.597656 130.191406 C 212.8125 132.808594 221.171875 137.667969 225.054688 145.875 C 225.800781 147.4375 227.210938 148.46875 228.796875 148.773438 C 229.761719 148.957031 230.785156 148.875 231.742188 148.484375 C 232.09375 148.34375 266.757812 134.609375 282.289062 157.46875 C 283.628906 159.441406 286.101562 160.226562 288.335938 159.46875 C 288.746094 159.332031 329.773438 145.402344 346.300781 169.742188 C 347.722656 171.820312 350.421875 172.609375 352.75 171.589844 C 355.054688 170.566406 356.308594 168.042969 355.710938 165.582031 " fill-opacity="1" fill-rule="nonzero"/></g></g></g></svg>