<svg xmlns="http://www.w3.org/2000/svg" xmlns:xlink="http://www.w3.org/1999/xlink" width="500" zoomAndPan="magnify" viewBox="0 0 375 374.999991" height="500" preserveAspectRatio="xMidYMid meet" version="1.0"><defs><g/><clipPath id="19ed937b09"><path d="M 153 188 L 156 188 L 156 193 L 153 193 Z M 153 188 " clip-rule="nonzero"/></clipPath><clipPath id="7f89d81a73"><path d="M 127.300781 90.160156 L 273.882812 118.257812 L 247.476562 256 L 100.894531 227.898438 Z M 127.300781 90.160156 " clip-rule="nonzero"/></clipPath><clipPath id="5f00130214"><path d="M 127.300781 90.160156 L 273.882812 118.257812 L 247.476562 256 L 100.894531 227.898438 Z M 127.300781 90.160156 " clip-rule="nonzero"/></clipPath><clipPath id="80edeae441"><path d="M 138 172 L 168 172 L 168 202 L 138 202 Z M 138 172 " clip-rule="nonzero"/></clipPath><clipPath id="c0d471682f"><path d="M 127.300781 90.160156 L 273.882812 118.257812 L 247.476562 256 L 100.894531 227.898438 Z M 127.300781 90.160156 " clip-rule="nonzero"/></clipPath><clipPath id="7040789af6"><path d="M 127.300781 90.160156 L 273.882812 118.257812 L 247.476562 256 L 100.894531 227.898438 Z M 127.300781 90.160156 " clip-rule="nonzero"/></clipPath><clipPath id="4508d593be"><path d="M 150 181 L 154 181 L 154 187 L 150 187 Z M 150 181 " clip-rule="nonzero"/></clipPath><clipPath id="b7e5dc3dce"><path d="M 127.300781 90.160156 L 273.882812 118.257812 L 247.476562 256 L 100.894531 227.898438 Z M 127.300781 90.160156 " clip-rule="nonzero"/></clipPath><clipPath id="0b9c120998"><path d="M 127.300781 90.160156 L 273.882812 118.257812 L 247.476562 256 L 100.894531 227.898438 Z M 127.300781 90.160156 " clip-rule="nonzero"/></clipPath><clipPath id="bc24934ac6"><path d="M 221 184 L 225 184 L 225 191 L 221 191 Z M 221 184 " clip-rule="nonzero"/></clipPath><clipPath id="810e7fffbe"><path d="M 127.300781 90.160156 L 273.882812 118.257812 L 247.476562 256 L 100.894531 227.898438 Z M 127.300781 90.160156 " clip-rule="nonzero"/></clipPath><clipPath id="4176f144c2"><path d="M 127.300781 90.160156 L 273.882812 118.257812 L 247.476562 256 L 100.894531 227.898438 Z M 127.300781 90.160156 " clip-rule="nonzero"/></clipPath><clipPath id="a6ab66dc82"><path d="M 218 174 L 223 174 L 223 182 L 218 182 Z M 218 174 " clip-rule="nonzero"/></clipPath><clipPath id="be1eb36f98"><path d="M 127.300781 90.160156 L 273.882812 118.257812 L 247.476562 256 L 100.894531 227.898438 Z M 127.300781 90.160156 " clip-rule="nonzero"/></clipPath><clipPath id="1702fdfa9e"><path d="M 127.300781 90.160156 L 273.882812 118.257812 L 247.476562 256 L 100.894531 227.898438 Z M 127.300781 90.160156 " clip-rule="nonzero"/></clipPath><clipPath id="f370184b4d"><path d="M 201 162 L 241 162 L 241 203 L 201 203 Z M 201 162 " clip-rule="nonzero"/></clipPath><clipPath id="90ea4fc87b"><path d="M 127.300781 90.160156 L 273.882812 118.257812 L 247.476562 256 L 100.894531 227.898438 Z M 127.300781 90.160156 " clip-rule="nonzero"/></clipPath><clipPath id="af46dd28a6"><path d="M 127.300781 90.160156 L 273.882812 118.257812 L 247.476562 256 L 100.894531 227.898438 Z M 127.300781 90.160156 " clip-rule="nonzero"/></clipPath><clipPath id="1fe7891623"><path d="M 120 144 L 137 144 L 137 162 L 120 162 Z M 120 144 " clip-rule="nonzero"/></clipPath><clipPath id="eaf044c2aa"><path d="M 127.300781 90.160156 L 273.882812 118.257812 L 247.476562 256 L 100.894531 227.898438 Z M 127.300781 90.160156 " clip-rule="nonzero"/></clipPath><clipPath id="4168a1c053"><path d="M 127.300781 90.160156 L 273.882812 118.257812 L 247.476562 256 L 100.894531 227.898438 Z M 127.300781 90.160156 " clip-rule="nonzero"/></clipPath><clipPath id="b5828c3ac4"><path d="M 217 206 L 234 206 L 234 223 L 217 223 Z M 217 206 " clip-rule="nonzero"/></clipPath><clipPath id="0f4929380b"><path d="M 127.300781 90.160156 L 273.882812 118.257812 L 247.476562 256 L 100.894531 227.898438 Z M 127.300781 90.160156 " clip-rule="nonzero"/></clipPath><clipPath id="eb3e9b1a0a"><path d="M 127.300781 90.160156 L 273.882812 118.257812 L 247.476562 256 L 100.894531 227.898438 Z M 127.300781 90.160156 " clip-rule="nonzero"/></clipPath><clipPath id="fabdae7370"><path d="M 118 102 L 265 102 L 265 241 L 118 241 Z M 118 102 " clip-rule="nonzero"/></clipPath><clipPath id="8424858237"><path d="M 127.300781 90.160156 L 273.882812 118.257812 L 247.476562 256 L 100.894531 227.898438 Z M 127.300781 90.160156 " clip-rule="nonzero"/></clipPath><clipPath id="cddfe117a3"><path d="M 127.300781 90.160156 L 273.882812 118.257812 L 247.476562 256 L 100.894531 227.898438 Z M 127.300781 90.160156 " clip-rule="nonzero"/></clipPath></defs><g clip-path="url(#19ed937b09)"><g clip-path="url(#7f89d81a73)"><g clip-path="url(#5f00130214)"><path fill="#29d49c" d="M 154.164062 188.476562 L 153.300781 192.984375 C 153.597656 192.988281 153.847656 192.957031 154.046875 192.890625 C 154.371094 192.785156 154.644531 192.652344 154.832031 192.492188 C 155.015625 192.332031 155.160156 192.160156 155.253906 191.980469 C 155.386719 191.738281 155.429688 191.601562 155.4375 191.542969 L 155.441406 191.53125 C 155.625 190.664062 155.574219 189.972656 155.289062 189.472656 C 155.066406 189.09375 154.695312 188.761719 154.164062 188.476562 " fill-opacity="1" fill-rule="nonzero"/></g></g></g><g clip-path="url(#80edeae441)"><g clip-path="url(#c0d471682f)"><g clip-path="url(#7040789af6)"><path fill="#29d49c" d="M 155.65625 193.972656 C 154.984375 194.480469 154.085938 194.710938 152.980469 194.65625 L 152.863281 195.265625 C 152.800781 195.578125 152.628906 195.820312 152.371094 195.945312 C 152.144531 196.058594 151.917969 196.09375 151.699219 196.050781 C 151.472656 196.007812 151.277344 195.890625 151.117188 195.699219 C 150.992188 195.53125 150.875 195.277344 150.945312 194.898438 L 151.058594 194.3125 C 149.957031 194 149.035156 193.496094 148.3125 192.816406 C 147.449219 192.003906 147.011719 190.96875 147.019531 189.742188 C 147.011719 189.382812 147.1875 189.179688 147.296875 189.09375 C 147.429688 188.988281 147.652344 188.878906 148.019531 188.972656 C 148.578125 189.089844 148.765625 189.515625 148.742188 189.871094 C 148.765625 190.46875 149.015625 191.046875 149.503906 191.589844 C 149.914062 192.042969 150.542969 192.398438 151.375 192.648438 L 152.300781 187.792969 C 151.148438 187.414062 150.277344 186.847656 149.679688 186.105469 C 149.007812 185.257812 148.714844 184.253906 148.808594 183.121094 C 148.863281 182.507812 149.058594 181.9375 149.382812 181.421875 C 149.710938 180.914062 150.121094 180.503906 150.613281 180.1875 C 151.09375 179.867188 151.664062 179.652344 152.34375 179.53125 C 152.835938 179.449219 153.359375 179.425781 153.898438 179.472656 L 154.023438 178.820312 C 154.074219 178.542969 154.21875 178.320312 154.433594 178.171875 C 154.957031 177.878906 155.410156 178.007812 155.738281 178.371094 C 155.9375 178.625 156 178.898438 155.945312 179.1875 L 155.796875 179.945312 C 156.644531 180.292969 157.3125 180.824219 157.796875 181.53125 C 158.371094 182.371094 158.566406 183.390625 158.371094 184.554688 L 158.359375 184.613281 L 158.339844 184.664062 C 158.160156 185.109375 157.800781 185.359375 157.386719 185.335938 C 156.976562 185.300781 156.59375 185 156.640625 184.402344 C 156.667969 184.132812 156.664062 183.847656 156.625 183.519531 C 156.585938 183.234375 156.496094 182.957031 156.359375 182.707031 C 156.207031 182.421875 156.011719 182.164062 155.78125 181.933594 C 155.6875 181.839844 155.582031 181.753906 155.464844 181.675781 L 154.496094 186.742188 C 155.136719 187.023438 155.640625 187.339844 156.027344 187.707031 C 156.484375 188.136719 156.816406 188.597656 157.011719 189.082031 C 157.207031 189.566406 157.300781 190.0625 157.292969 190.566406 C 157.292969 191.058594 157.230469 191.503906 157.105469 191.917969 C 156.898438 192.707031 156.40625 193.40625 155.65625 193.972656 Z M 167.21875 189.679688 C 168.746094 181.707031 163.527344 173.984375 155.582031 172.460938 C 147.640625 170.9375 139.933594 176.183594 138.40625 184.15625 C 136.878906 192.128906 142.097656 199.855469 150.039062 201.378906 C 157.984375 202.902344 165.691406 197.652344 167.21875 189.679688 " fill-opacity="1" fill-rule="nonzero"/></g></g></g><g clip-path="url(#4508d593be)"><g clip-path="url(#b7e5dc3dce)"><g clip-path="url(#0b9c120998)"><path fill="#29d49c" d="M 150.59375 183.367188 C 150.570312 183.59375 150.578125 183.84375 150.617188 184.113281 C 150.65625 184.335938 150.757812 184.566406 150.917969 184.792969 C 151.105469 185.0625 151.371094 185.324219 151.707031 185.582031 C 151.941406 185.765625 152.253906 185.933594 152.628906 186.089844 L 153.578125 181.136719 C 152.796875 181.097656 152.164062 181.257812 151.652344 181.621094 C 151.039062 182.0625 150.691406 182.632812 150.59375 183.367188 " fill-opacity="1" fill-rule="nonzero"/></g></g></g><g clip-path="url(#bc24934ac6)"><g clip-path="url(#810e7fffbe)"><g clip-path="url(#4176f144c2)"><path fill="#29d49c" d="M 222.832031 184.539062 L 221.671875 190.597656 C 222.070312 190.601562 222.40625 190.558594 222.675781 190.472656 C 223.113281 190.335938 223.476562 190.148438 223.730469 189.933594 C 223.976562 189.722656 224.171875 189.488281 224.300781 189.246094 C 224.480469 188.921875 224.53125 188.738281 224.546875 188.660156 L 224.550781 188.644531 C 224.800781 187.476562 224.734375 186.546875 224.347656 185.878906 C 224.046875 185.363281 223.546875 184.917969 222.832031 184.539062 " fill-opacity="1" fill-rule="nonzero"/></g></g></g><g clip-path="url(#a6ab66dc82)"><g clip-path="url(#be1eb36f98)"><g clip-path="url(#1702fdfa9e)"><path fill="#29d49c" d="M 218.03125 177.664062 C 218 177.96875 218.011719 178.304688 218.0625 178.667969 C 218.113281 178.964844 218.25 179.28125 218.46875 179.585938 C 218.71875 179.945312 219.074219 180.300781 219.527344 180.644531 C 219.847656 180.890625 220.261719 181.117188 220.769531 181.328125 L 222.046875 174.664062 C 220.996094 174.613281 220.144531 174.828125 219.457031 175.320312 C 218.632812 175.910156 218.164062 176.675781 218.03125 177.664062 " fill-opacity="1" fill-rule="nonzero"/></g></g></g><g clip-path="url(#f370184b4d)"><g clip-path="url(#90ea4fc87b)"><g clip-path="url(#af46dd28a6)"><path fill="#29d49c" d="M 224.839844 191.929688 C 223.9375 192.609375 222.726562 192.917969 221.238281 192.84375 L 221.082031 193.664062 C 221 194.085938 220.765625 194.414062 220.421875 194.582031 C 220.117188 194.730469 219.8125 194.777344 219.515625 194.722656 C 219.210938 194.664062 218.949219 194.503906 218.738281 194.25 C 218.566406 194.023438 218.40625 193.679688 218.503906 193.171875 L 218.65625 192.386719 C 217.175781 191.964844 215.9375 191.289062 214.964844 190.371094 C 213.800781 189.277344 213.214844 187.886719 213.226562 186.238281 C 213.210938 185.753906 213.453125 185.484375 213.597656 185.367188 C 213.777344 185.222656 214.078125 185.078125 214.566406 185.203125 C 215.320312 185.363281 215.570312 185.933594 215.539062 186.414062 C 215.574219 187.214844 215.910156 187.992188 216.566406 188.722656 C 217.117188 189.332031 217.960938 189.8125 219.082031 190.152344 L 220.328125 183.617188 C 218.777344 183.105469 217.609375 182.347656 216.800781 181.347656 C 215.898438 180.207031 215.503906 178.859375 215.632812 177.335938 C 215.707031 176.511719 215.964844 175.746094 216.402344 175.046875 C 216.839844 174.367188 217.398438 173.8125 218.054688 173.386719 C 218.703125 172.957031 219.46875 172.667969 220.382812 172.507812 C 221.050781 172.394531 221.75 172.367188 222.476562 172.425781 L 222.644531 171.546875 C 222.714844 171.179688 222.90625 170.878906 223.199219 170.679688 C 223.894531 170.285156 224.507812 170.457031 224.949219 170.945312 C 225.214844 171.289062 225.300781 171.652344 225.226562 172.042969 L 225.03125 173.0625 C 226.167969 173.53125 227.066406 174.246094 227.714844 175.195312 C 228.492188 176.324219 228.753906 177.695312 228.488281 179.265625 L 228.476562 179.339844 L 228.445312 179.414062 C 228.207031 180.011719 227.726562 180.347656 227.167969 180.308594 C 226.613281 180.265625 226.101562 179.859375 226.164062 179.054688 C 226.203125 178.695312 226.199219 178.3125 226.144531 177.871094 C 226.089844 177.488281 225.96875 177.113281 225.785156 176.777344 C 225.582031 176.394531 225.316406 176.046875 225.003906 175.734375 C 224.878906 175.609375 224.738281 175.496094 224.582031 175.390625 L 223.28125 182.203125 C 224.140625 182.578125 224.820312 183.007812 225.335938 183.503906 C 225.949219 184.078125 226.398438 184.699219 226.664062 185.347656 C 226.925781 186 227.050781 186.667969 227.042969 187.34375 C 227.039062 188.007812 226.957031 188.605469 226.785156 189.164062 C 226.507812 190.226562 225.851562 191.164062 224.839844 191.929688 Z M 224.742188 162.996094 C 214.058594 160.949219 203.695312 168.007812 201.640625 178.726562 C 199.585938 189.453125 206.605469 199.839844 217.285156 201.886719 C 227.96875 203.933594 238.332031 196.878906 240.386719 186.15625 C 242.441406 175.433594 235.421875 165.046875 224.742188 162.996094 " fill-opacity="1" fill-rule="nonzero"/></g></g></g><g clip-path="url(#1fe7891623)"><g clip-path="url(#eaf044c2aa)"><g clip-path="url(#4168a1c053)"><path fill="#29d49c" d="M 130.226562 145.089844 C 125.808594 144.242188 121.523438 147.160156 120.675781 151.59375 C 119.824219 156.027344 122.726562 160.324219 127.144531 161.171875 C 131.5625 162.019531 135.84375 159.097656 136.695312 154.664062 C 137.546875 150.230469 134.644531 145.933594 130.226562 145.089844 " fill-opacity="1" fill-rule="nonzero"/></g></g></g><g clip-path="url(#b5828c3ac4)"><g clip-path="url(#0f4929380b)"><g clip-path="url(#eb3e9b1a0a)"><path fill="#29d49c" d="M 227.324219 206.667969 C 222.90625 205.824219 218.621094 208.742188 217.773438 213.175781 C 216.921875 217.609375 219.824219 221.90625 224.242188 222.75 C 228.660156 223.597656 232.945312 220.679688 233.792969 216.246094 C 234.644531 211.8125 231.742188 207.515625 227.324219 206.667969 " fill-opacity="1" fill-rule="nonzero"/></g></g></g><g clip-path="url(#fabdae7370)"><g clip-path="url(#8424858237)"><g clip-path="url(#cddfe117a3)"><path fill="#29d49c" d="M 264.832031 162.910156 C 264.714844 162.425781 252.589844 114.265625 200.574219 104.296875 C 148.558594 94.324219 119.484375 134.585938 119.199219 134.992188 C 118.519531 135.949219 118.625 137.246094 119.441406 138.082031 C 120.261719 138.917969 121.550781 139.039062 122.511719 138.386719 C 133.699219 130.773438 148.921875 143.730469 149.070312 143.871094 C 149.894531 144.570312 151.101562 144.660156 152 144.039062 C 162.484375 136.902344 175.03125 148.691406 175.160156 148.804688 C 176.085938 149.679688 177.535156 149.710938 178.464844 148.824219 C 181.511719 145.976562 185.929688 145.3125 189.046875 145.242188 L 178.621094 199.632812 C 177.75 200.332031 177.078125 201.285156 176.851562 202.464844 L 172.898438 223.125 C 172.75 224.328125 171.824219 228.113281 169.640625 229.703125 C 168.949219 230.203125 167.761719 230.816406 165.339844 230.351562 C 157.699219 228.886719 157.800781 225.167969 158.773438 220.078125 C 159.277344 217.453125 157.570312 214.921875 154.953125 214.421875 C 152.339844 213.921875 149.816406 215.636719 149.3125 218.261719 C 146.429688 233.300781 155.445312 238.300781 163.519531 239.851562 C 169.179688 240.933594 173.082031 239.160156 175.363281 237.476562 C 181.300781 233.09375 182.367188 225.136719 182.417969 224.609375 L 186.3125 204.28125 C 186.539062 203.097656 186.269531 201.964844 185.714844 200.996094 L 196.144531 146.589844 C 199.007812 147.800781 202.859375 150.046875 204.644531 153.84375 C 204.984375 154.566406 205.636719 155.042969 206.367188 155.183594 C 206.808594 155.265625 207.28125 155.230469 207.722656 155.046875 C 207.882812 154.984375 223.863281 148.613281 231.007812 159.1875 C 231.625 160.097656 232.761719 160.457031 233.792969 160.109375 C 233.980469 160.042969 252.890625 153.582031 260.496094 164.839844 C 261.148438 165.800781 262.390625 166.164062 263.464844 165.691406 C 264.527344 165.21875 265.105469 164.046875 264.832031 162.910156 " fill-opacity="1" fill-rule="nonzero"/></g></g></g><g fill="#18adc2" fill-opacity="1"><g transform="translate(67.698996, 276.331843)"><g><path d="M 6.328125 -5.765625 L 6.328125 -1.65625 L 9.234375 -1.234375 L 9.21875 0 L 0.796875 0 L 0.65625 -0.78125 C 1.15625 -1.082031 1.8125 -1.40625 2.625 -1.75 L 2.625 -14.53125 L 0.828125 -14.75 L 0.84375 -16 L 8.703125 -16.1875 C 10.585938 -16.1875 12.109375 -15.6875 13.265625 -14.6875 C 14.421875 -13.695312 15 -12.441406 15 -10.921875 C 15 -9.472656 14.445312 -8.257812 13.34375 -7.28125 C 12.238281 -6.3125 10.820312 -5.8125 9.09375 -5.78125 Z M 6.328125 -13.9375 L 6.328125 -7.921875 C 6.972656 -7.796875 7.59375 -7.734375 8.1875 -7.734375 C 9.175781 -7.734375 9.921875 -8.046875 10.421875 -8.671875 C 10.929688 -9.296875 11.1875 -10.0625 11.1875 -10.96875 C 11.1875 -11.664062 11.054688 -12.328125 10.796875 -12.953125 C 10.535156 -13.585938 10.171875 -14.035156 9.703125 -14.296875 Z M 6.328125 -13.9375 "/></g></g></g><g fill="#18adc2" fill-opacity="1"><g transform="translate(81.849662, 276.331843)"><g><path d="M 17.65625 -1.234375 L 17.625 0 L 9.96875 0 L 9.828125 -0.78125 C 10.273438 -1.050781 10.976562 -1.390625 11.9375 -1.796875 L 10.921875 -4.421875 L 5.125 -4.421875 L 4.0625 -1.5625 L 6.296875 -1.234375 L 6.265625 0 L -0.34375 0 L -0.484375 -0.78125 C 0.00390625 -1.082031 0.675781 -1.40625 1.53125 -1.75 L 6.90625 -14.953125 L 6.609375 -15.703125 L 9.796875 -16.578125 L 15.921875 -1.484375 Z M 10.21875 -6.265625 L 8.015625 -12.015625 L 5.828125 -6.265625 Z M 10.21875 -6.265625 "/></g></g></g><g fill="#18adc2" fill-opacity="1"><g transform="translate(98.115643, 276.331843)"><g><path d="M 9.65625 -1.53125 L 11.671875 -1.234375 L 11.640625 0 L 4.234375 0 L 4.078125 -0.78125 C 4.585938 -1.082031 5.242188 -1.40625 6.046875 -1.75 L 6.046875 -6 L 1.484375 -14.53125 L -0.046875 -14.75 L -0.03125 -16 L 6.46875 -16 L 6.609375 -15.21875 L 5.25 -14.515625 L 7.53125 -10.21875 L 8.1875 -8.140625 L 8.34375 -8.140625 L 11.53125 -14.484375 L 9.71875 -14.75 L 9.75 -16 L 15.6875 -16 L 15.828125 -15.21875 C 15.398438 -14.957031 14.757812 -14.640625 13.90625 -14.265625 L 9.65625 -6.390625 Z M 9.65625 -1.53125 "/></g></g></g><g fill="#18adc2" fill-opacity="1"><g transform="translate(112.63102, 276.331843)"><g><path d="M 8.796875 -16.1875 C 10.472656 -16.1875 11.910156 -15.796875 13.109375 -15.015625 C 14.316406 -14.242188 15.238281 -13.238281 15.875 -12 C 16.507812 -10.769531 16.828125 -9.476562 16.828125 -8.125 C 16.828125 -5.757812 16.09375 -3.828125 14.625 -2.328125 C 13.15625 -0.835938 11.207031 -0.0625 8.78125 0 L 0.78125 0 L 0.625 -0.78125 C 1.101562 -1.082031 1.796875 -1.414062 2.703125 -1.78125 L 2.703125 -14.53125 L 0.96875 -14.75 L 1 -16 C 3.332031 -16.125 5.929688 -16.1875 8.796875 -16.1875 Z M 8.234375 -2.015625 C 9.628906 -2.015625 10.757812 -2.570312 11.625 -3.6875 C 12.5 -4.8125 12.9375 -6.238281 12.9375 -7.96875 C 12.9375 -9.320312 12.65625 -10.582031 12.09375 -11.75 C 11.53125 -12.914062 10.804688 -13.765625 9.921875 -14.296875 L 6.390625 -13.9375 L 6.390625 -2.3125 C 7.054688 -2.113281 7.671875 -2.015625 8.234375 -2.015625 Z M 8.234375 -2.015625 "/></g></g></g><g fill="#18adc2" fill-opacity="1"><g transform="translate(128.580909, 276.331843)"><g><path d="M 17.65625 -1.234375 L 17.625 0 L 9.96875 0 L 9.828125 -0.78125 C 10.273438 -1.050781 10.976562 -1.390625 11.9375 -1.796875 L 10.921875 -4.421875 L 5.125 -4.421875 L 4.0625 -1.5625 L 6.296875 -1.234375 L 6.265625 0 L -0.34375 0 L -0.484375 -0.78125 C 0.00390625 -1.082031 0.675781 -1.40625 1.53125 -1.75 L 6.90625 -14.953125 L 6.609375 -15.703125 L 9.796875 -16.578125 L 15.921875 -1.484375 Z M 10.21875 -6.265625 L 8.015625 -12.015625 L 5.828125 -6.265625 Z M 10.21875 -6.265625 "/></g></g></g><g fill="#18adc2" fill-opacity="1"><g transform="translate(144.846889, 276.331843)"><g><path d="M 9.65625 -1.53125 L 11.671875 -1.234375 L 11.640625 0 L 4.234375 0 L 4.078125 -0.78125 C 4.585938 -1.082031 5.242188 -1.40625 6.046875 -1.75 L 6.046875 -6 L 1.484375 -14.53125 L -0.046875 -14.75 L -0.03125 -16 L 6.46875 -16 L 6.609375 -15.21875 L 5.25 -14.515625 L 7.53125 -10.21875 L 8.1875 -8.140625 L 8.34375 -8.140625 L 11.53125 -14.484375 L 9.71875 -14.75 L 9.75 -16 L 15.6875 -16 L 15.828125 -15.21875 C 15.398438 -14.957031 14.757812 -14.640625 13.90625 -14.265625 L 9.65625 -6.390625 Z M 9.65625 -1.53125 "/></g></g></g><g fill="#18adc2" fill-opacity="1"><g transform="translate(159.362267, 276.331843)"><g/></g></g><g fill="#18adc2" fill-opacity="1"><g transform="translate(164.589739, 276.331843)"><g><path d="M 6.328125 -5.765625 L 6.328125 -1.65625 L 9.234375 -1.234375 L 9.21875 0 L 0.796875 0 L 0.65625 -0.78125 C 1.15625 -1.082031 1.8125 -1.40625 2.625 -1.75 L 2.625 -14.53125 L 0.828125 -14.75 L 0.84375 -16 L 8.703125 -16.1875 C 10.585938 -16.1875 12.109375 -15.6875 13.265625 -14.6875 C 14.421875 -13.695312 15 -12.441406 15 -10.921875 C 15 -9.472656 14.445312 -8.257812 13.34375 -7.28125 C 12.238281 -6.3125 10.820312 -5.8125 9.09375 -5.78125 Z M 6.328125 -13.9375 L 6.328125 -7.921875 C 6.972656 -7.796875 7.59375 -7.734375 8.1875 -7.734375 C 9.175781 -7.734375 9.921875 -8.046875 10.421875 -8.671875 C 10.929688 -9.296875 11.1875 -10.0625 11.1875 -10.96875 C 11.1875 -11.664062 11.054688 -12.328125 10.796875 -12.953125 C 10.535156 -13.585938 10.171875 -14.035156 9.703125 -14.296875 Z M 6.328125 -13.9375 "/></g></g></g><g fill="#18adc2" fill-opacity="1"><g transform="translate(178.740404, 276.331843)"><g><path d="M 16.609375 -1.234375 L 16.578125 0 L 11.71875 0 L 8.40625 -6.203125 L 6.390625 -6.171875 L 6.390625 -1.5625 L 8.578125 -1.234375 L 8.5625 0 L 0.78125 0 L 0.625 -0.78125 C 1.101562 -1.082031 1.796875 -1.414062 2.703125 -1.78125 L 2.703125 -14.53125 L 0.90625 -14.75 L 0.921875 -16 L 8.671875 -16.1875 C 10.535156 -16.1875 12.0625 -15.71875 13.25 -14.78125 C 14.445312 -13.84375 15.046875 -12.664062 15.046875 -11.25 C 15.046875 -10.300781 14.753906 -9.414062 14.171875 -8.59375 C 13.585938 -7.769531 12.796875 -7.148438 11.796875 -6.734375 L 15.046875 -1.4375 Z M 6.390625 -8.21875 C 6.941406 -8.101562 7.46875 -8.046875 7.96875 -8.046875 C 9.125 -8.046875 9.957031 -8.335938 10.46875 -8.921875 C 10.976562 -9.503906 11.234375 -10.257812 11.234375 -11.1875 C 11.234375 -12.613281 10.75 -13.648438 9.78125 -14.296875 L 6.390625 -13.9375 Z M 6.390625 -8.21875 "/></g></g></g><g fill="#18adc2" fill-opacity="1"><g transform="translate(194.3499, 276.331843)"><g><path d="M 8.125 -16.484375 C 10.4375 -16.484375 12.335938 -15.675781 13.828125 -14.0625 C 15.328125 -12.445312 16.078125 -10.351562 16.078125 -7.78125 C 16.078125 -5.300781 15.347656 -3.300781 13.890625 -1.78125 C 12.441406 -0.269531 10.582031 0.484375 8.3125 0.484375 C 5.976562 0.484375 4.066406 -0.285156 2.578125 -1.828125 C 1.085938 -3.367188 0.34375 -5.394531 0.34375 -7.90625 C 0.34375 -10.425781 1.070312 -12.484375 2.53125 -14.078125 C 4 -15.679688 5.863281 -16.484375 8.125 -16.484375 Z M 6.03125 -14 C 5.5 -13.550781 5.066406 -12.816406 4.734375 -11.796875 C 4.398438 -10.773438 4.234375 -9.625 4.234375 -8.34375 C 4.234375 -6.375 4.617188 -4.765625 5.390625 -3.515625 C 6.171875 -2.273438 7.285156 -1.65625 8.734375 -1.65625 C 9.097656 -1.65625 9.554688 -1.726562 10.109375 -1.875 C 10.722656 -2.351562 11.21875 -3.117188 11.59375 -4.171875 C 11.96875 -5.234375 12.15625 -6.410156 12.15625 -7.703125 C 12.15625 -9.671875 11.757812 -11.269531 10.96875 -12.5 C 10.175781 -13.726562 9.117188 -14.34375 7.796875 -14.34375 C 7.253906 -14.34375 6.664062 -14.226562 6.03125 -14 Z M 6.03125 -14 "/></g></g></g><g fill="#18adc2" fill-opacity="1"><g transform="translate(209.546063, 276.331843)"><g><path d="M 15.46875 -16.140625 L 15.484375 -15.4375 C 15.484375 -13.769531 15.347656 -12.296875 15.078125 -11.015625 L 13.125 -11.015625 L 12.765625 -14.078125 L 9.703125 -14.3125 L 9.703125 -1.609375 L 12.1875 -1.234375 L 12.15625 0 L 3.671875 0 L 3.53125 -0.78125 C 3.882812 -1.007812 4.707031 -1.375 6 -1.875 L 6 -14.3125 L 2.921875 -14.078125 L 2.546875 -11.015625 L 0.609375 -11.015625 C 0.328125 -12.296875 0.1875 -13.769531 0.1875 -15.4375 L 0.21875 -16.140625 L 7.875 -16.046875 Z M 15.46875 -16.140625 "/></g></g></g><g fill="#18adc2" fill-opacity="1"><g transform="translate(224.012821, 276.331843)"><g><path d="M 13.78125 -4.84375 C 13.8125 -3.25 13.71875 -1.632812 13.5 0 L 0.78125 0 L 0.625 -0.78125 C 1.101562 -1.082031 1.796875 -1.414062 2.703125 -1.78125 L 2.703125 -14.53125 L 0.90625 -14.75 L 0.921875 -16 L 13.609375 -16 C 13.691406 -14.664062 13.5625 -13.125 13.21875 -11.375 L 11.1875 -11.375 L 10.765625 -13.78125 L 6.390625 -14.09375 L 6.390625 -8.875 L 11.625 -9.28125 L 11.625 -6.828125 L 6.390625 -7.046875 L 6.390625 -2.015625 L 10.9375 -2.328125 L 11.75 -4.984375 Z M 13.78125 -4.84375 "/></g></g></g><g fill="#18adc2" fill-opacity="1"><g transform="translate(237.798775, 276.331843)"><g><path d="M 13.859375 -1.75 L 8.875 0.390625 C 6.882812 0.453125 5.242188 0.0976562 3.953125 -0.671875 C 2.660156 -1.453125 1.722656 -2.46875 1.140625 -3.71875 C 0.554688 -4.976562 0.265625 -6.335938 0.265625 -7.796875 C 0.265625 -9.296875 0.570312 -10.707031 1.1875 -12.03125 C 1.800781 -13.363281 2.722656 -14.4375 3.953125 -15.25 C 5.191406 -16.070312 6.6875 -16.484375 8.4375 -16.484375 C 10.3125 -16.484375 11.976562 -15.972656 13.4375 -14.953125 C 13.476562 -14.429688 13.445312 -13.734375 13.34375 -12.859375 C 13.25 -11.984375 13.101562 -11.222656 12.90625 -10.578125 L 10.671875 -10.578125 L 10.09375 -13.609375 C 8.96875 -14.097656 7.742188 -14.34375 6.421875 -14.34375 C 5.628906 -13.738281 5.03125 -12.894531 4.625 -11.8125 C 4.226562 -10.726562 4.03125 -9.585938 4.03125 -8.390625 C 4.03125 -6.460938 4.5 -4.929688 5.4375 -3.796875 C 6.382812 -2.660156 7.660156 -2.113281 9.265625 -2.15625 L 13.28125 -3.484375 Z M 13.859375 -1.75 "/></g></g></g><g fill="#18adc2" fill-opacity="1"><g transform="translate(250.733746, 276.331843)"><g><path d="M 15.46875 -16.140625 L 15.484375 -15.4375 C 15.484375 -13.769531 15.347656 -12.296875 15.078125 -11.015625 L 13.125 -11.015625 L 12.765625 -14.078125 L 9.703125 -14.3125 L 9.703125 -1.609375 L 12.1875 -1.234375 L 12.15625 0 L 3.671875 0 L 3.53125 -0.78125 C 3.882812 -1.007812 4.707031 -1.375 6 -1.875 L 6 -14.3125 L 2.921875 -14.078125 L 2.546875 -11.015625 L 0.609375 -11.015625 C 0.328125 -12.296875 0.1875 -13.769531 0.1875 -15.4375 L 0.21875 -16.140625 L 7.875 -16.046875 Z M 15.46875 -16.140625 "/></g></g></g><g fill="#18adc2" fill-opacity="1"><g transform="translate(265.200504, 276.331843)"><g><path d="M 8.625 -1.234375 L 8.609375 0 L 0.78125 0 L 0.625 -0.78125 C 1.101562 -1.082031 1.796875 -1.414062 2.703125 -1.78125 L 2.703125 -14.484375 L 0.828125 -14.75 L 0.84375 -16 L 8.296875 -16 L 8.4375 -15.21875 C 7.832031 -14.863281 7.148438 -14.53125 6.390625 -14.21875 L 6.390625 -1.5625 Z M 8.625 -1.234375 "/></g></g></g><g fill="#18adc2" fill-opacity="1"><g transform="translate(273.272715, 276.331843)"><g><path d="M 8.125 -16.484375 C 10.4375 -16.484375 12.335938 -15.675781 13.828125 -14.0625 C 15.328125 -12.445312 16.078125 -10.351562 16.078125 -7.78125 C 16.078125 -5.300781 15.347656 -3.300781 13.890625 -1.78125 C 12.441406 -0.269531 10.582031 0.484375 8.3125 0.484375 C 5.976562 0.484375 4.066406 -0.285156 2.578125 -1.828125 C 1.085938 -3.367188 0.34375 -5.394531 0.34375 -7.90625 C 0.34375 -10.425781 1.070312 -12.484375 2.53125 -14.078125 C 4 -15.679688 5.863281 -16.484375 8.125 -16.484375 Z M 6.03125 -14 C 5.5 -13.550781 5.066406 -12.816406 4.734375 -11.796875 C 4.398438 -10.773438 4.234375 -9.625 4.234375 -8.34375 C 4.234375 -6.375 4.617188 -4.765625 5.390625 -3.515625 C 6.171875 -2.273438 7.285156 -1.65625 8.734375 -1.65625 C 9.097656 -1.65625 9.554688 -1.726562 10.109375 -1.875 C 10.722656 -2.351562 11.21875 -3.117188 11.59375 -4.171875 C 11.96875 -5.234375 12.15625 -6.410156 12.15625 -7.703125 C 12.15625 -9.671875 11.757812 -11.269531 10.96875 -12.5 C 10.175781 -13.726562 9.117188 -14.34375 7.796875 -14.34375 C 7.253906 -14.34375 6.664062 -14.226562 6.03125 -14 Z M 6.03125 -14 "/></g></g></g><g fill="#18adc2" fill-opacity="1"><g transform="translate(288.468879, 276.331843)"><g><path d="M 18.15625 -15.21875 C 17.65625 -14.90625 17 -14.582031 16.1875 -14.25 L 16.09375 0 L 12.671875 0.3125 L 4.984375 -11.46875 L 5.34375 -8.484375 L 5.34375 -1.5625 L 7.484375 -1.234375 L 7.46875 0 L 0.78125 0 L 0.625 -0.78125 C 1.101562 -1.082031 1.796875 -1.414062 2.703125 -1.78125 L 2.703125 -14.484375 L 1 -14.75 L 1.015625 -16 L 6.421875 -16 L 6.390625 -15.96875 L 13.90625 -4.234375 L 13.546875 -7.3125 L 13.546875 -14.421875 L 11.1875 -14.75 L 11.203125 -16 L 18.015625 -16 Z M 18.15625 -15.21875 "/></g></g></g></svg>