<?xml version="1.0" encoding="UTF-8" standalone="no"?>
<!-- Created with Inkscape (http://www.inkscape.org/) -->

<svg
   width="500.00003"
   height="500.00003"
   viewBox="0 0 132.29166 132.29166"
   version="1.1"
   id="svg5"
   inkscape:version="1.2.2 (b0a84865, 2022-12-01)"
   sodipodi:docname="umbrella.svg"
   xmlns:inkscape="http://www.inkscape.org/namespaces/inkscape"
   xmlns:sodipodi="http://sodipodi.sourceforge.net/DTD/sodipodi-0.dtd"
   xmlns="http://www.w3.org/2000/svg"
   xmlns:svg="http://www.w3.org/2000/svg">
  <sodipodi:namedview
     id="namedview7"
     pagecolor="#ffffff"
     bordercolor="#000000"
     borderopacity="0.25"
     inkscape:showpageshadow="2"
     inkscape:pageopacity="0.0"
     inkscape:pagecheckerboard="0"
     inkscape:deskcolor="#d1d1d1"
     inkscape:document-units="px"
     showgrid="false"
     inkscape:zoom="0.98262439"
     inkscape:cx="397.914"
     inkscape:cy="248.31462"
     inkscape:window-width="1440"
     inkscape:window-height="762"
     inkscape:window-x="0"
     inkscape:window-y="25"
     inkscape:window-maximized="0"
     inkscape:current-layer="layer1" />
  <defs
     id="defs2" />
  <g
     inkscape:label="Layer 1"
     inkscape:groupmode="layer"
     id="layer1">
    <path
       style="fill:#000000;fill-opacity:1;stroke:#000000;stroke-width:1.85208;stroke-linecap:round;stroke-linejoin:round;stroke-dasharray:none;stroke-opacity:1;paint-order:fill markers stroke"
       d="m 11.857358,63.269197 c 0,-25.514344 20.175237,-55.0780809 53.970553,-55.0780809 33.795317,0 52.786839,26.4303959 53.682079,55.0780809 0,0 -1.69591,-7.987767 -13.45658,-8.000709 -11.76068,-0.01295 -13.725842,8.000709 -13.725842,8.000709 0,0 -1.426885,-7.987767 -13.187317,-8.000709 -11.760432,-0.01295 -13.31234,8.000709 -13.31234,8.000709 0,0 -2.511807,-7.993924 -13.600816,-8.000709 -11.089009,-0.0067 -13.456579,8.000709 -13.456579,8.000709 0,0 -2.81519,-7.993925 -13.45658,-8.000709 -10.641388,-0.0067 -13.456578,8.000709 -13.456578,8.000709 z"
       id="path160"
       sodipodi:nodetypes="czczczczczc" />
    <circle
       style="fill:#060606;stroke:#000000;stroke-width:1.85208317;stroke-dasharray:none;stroke-opacity:1;fill-opacity:1"
       id="path1048"
       cx="65.683563"
       cy="88.914429"
       r="17.457184" />
    <path
       style="fill:none;stroke:#000000;stroke-width:3.09562;stroke-dasharray:none;stroke-opacity:1"
       d="M 65.753826,71.510491 V 60.484598"
       id="path1158"
       sodipodi:nodetypes="cc" />
    <path
       style="fill:#000000;fill-opacity:1;stroke:#000000;stroke-width:1.85208;stroke-dasharray:none;stroke-opacity:1"
       d="m 66.079417,107.4901 c 0,0.34503 -0.08043,8.35182 -0.08043,9.05721 0.08211,7.1075 -5.265227,13.69825 -12.978674,13.67234 -7.361754,-0.0247 -12.017907,-5.11191 -13.539842,-9.90722 -0.906836,-2.85725 1.682819,-4.98532 2.919955,-0.6019 1.330763,4.71516 5.499732,9.18712 10.458772,9.18676 7.791606,-5.7e-4 11.588635,-7.86337 12.036335,-11.9192 0.08192,-0.74213 0.267431,-7.87966 0.306225,-10.35016 0.03599,-2.29225 0.87766,0.86217 0.87766,0.86217 z"
       id="path1160"
       sodipodi:nodetypes="ccssssssc" />
    <text
       xml:space="preserve"
       style="font-style:normal;font-variant:normal;font-weight:normal;font-stretch:normal;font-size:30.7805px;font-family:'Kohinoor Telugu';-inkscape-font-specification:'Kohinoor Telugu';fill:#ffffff;fill-opacity:1;stroke:#000000;stroke-width:0.283663;stroke-dasharray:none;stroke-opacity:1"
       x="55.8032"
       y="102.05526"
       id="text1274"
       transform="scale(1.0260132,0.97464633)"><tspan
         sodipodi:role="line"
         id="tspan1272"
         style="font-style:normal;font-variant:normal;font-weight:normal;font-stretch:normal;font-size:30.7805px;font-family:'Kohinoor Telugu';-inkscape-font-specification:'Kohinoor Telugu';fill:#ffffff;fill-opacity:1;stroke:none;stroke-width:0.283663;stroke-dasharray:none"
         x="55.8032"
         y="102.05526">$</tspan></text>
    <path
       style="fill:#000000;fill-opacity:1;stroke:none;stroke-width:1.85208;stroke-linejoin:round;stroke-dasharray:none;stroke-opacity:1"
       d="M 65.866124,0.53069822 64.503482,8.0174344 h 3.009926 z"
       id="path1457"
       sodipodi:nodetypes="cc" />
  </g>
</svg>
