<svg xmlns="http://www.w3.org/2000/svg" xmlns:xlink="http://www.w3.org/1999/xlink" width="500" zoomAndPan="magnify" viewBox="0 0 375 374.999991" height="500" preserveAspectRatio="xMidYMid meet" version="1.0"><defs><g/><clipPath id="87978af126"><path d="M 166 167 L 168 167 L 168 171 L 166 171 Z M 166 167 " clip-rule="nonzero"/></clipPath><clipPath id="313d22f346"><path d="M 150.359375 106.941406 L 240.960938 124.308594 L 224.722656 209.019531 L 134.121094 191.648438 Z M 150.359375 106.941406 " clip-rule="nonzero"/></clipPath><clipPath id="0d2ee1f83c"><path d="M 150.359375 106.941406 L 240.960938 124.308594 L 224.722656 209.019531 L 134.121094 191.648438 Z M 150.359375 106.941406 " clip-rule="nonzero"/></clipPath><clipPath id="49e8889a0e"><path d="M 157 157 L 176 157 L 176 176 L 157 176 Z M 157 157 " clip-rule="nonzero"/></clipPath><clipPath id="36a085148b"><path d="M 150.359375 106.941406 L 240.960938 124.308594 L 224.722656 209.019531 L 134.121094 191.648438 Z M 150.359375 106.941406 " clip-rule="nonzero"/></clipPath><clipPath id="b6a5d4ddfd"><path d="M 150.359375 106.941406 L 240.960938 124.308594 L 224.722656 209.019531 L 134.121094 191.648438 Z M 150.359375 106.941406 " clip-rule="nonzero"/></clipPath><clipPath id="ba07be6f4f"><path d="M 164 162 L 167 162 L 167 166 L 164 166 Z M 164 162 " clip-rule="nonzero"/></clipPath><clipPath id="38a7466c93"><path d="M 150.359375 106.941406 L 240.960938 124.308594 L 224.722656 209.019531 L 134.121094 191.648438 Z M 150.359375 106.941406 " clip-rule="nonzero"/></clipPath><clipPath id="fb70f5bb36"><path d="M 150.359375 106.941406 L 240.960938 124.308594 L 224.722656 209.019531 L 134.121094 191.648438 Z M 150.359375 106.941406 " clip-rule="nonzero"/></clipPath><clipPath id="ad1c95bf72"><path d="M 208 165 L 211 165 L 211 169 L 208 169 Z M 208 165 " clip-rule="nonzero"/></clipPath><clipPath id="e51265aff9"><path d="M 150.359375 106.941406 L 240.960938 124.308594 L 224.722656 209.019531 L 134.121094 191.648438 Z M 150.359375 106.941406 " clip-rule="nonzero"/></clipPath><clipPath id="c71e3fad2b"><path d="M 150.359375 106.941406 L 240.960938 124.308594 L 224.722656 209.019531 L 134.121094 191.648438 Z M 150.359375 106.941406 " clip-rule="nonzero"/></clipPath><clipPath id="004dfdcd25"><path d="M 206 158 L 209 158 L 209 164 L 206 164 Z M 206 158 " clip-rule="nonzero"/></clipPath><clipPath id="c64c4ea7f1"><path d="M 150.359375 106.941406 L 240.960938 124.308594 L 224.722656 209.019531 L 134.121094 191.648438 Z M 150.359375 106.941406 " clip-rule="nonzero"/></clipPath><clipPath id="97d8214605"><path d="M 150.359375 106.941406 L 240.960938 124.308594 L 224.722656 209.019531 L 134.121094 191.648438 Z M 150.359375 106.941406 " clip-rule="nonzero"/></clipPath><clipPath id="5a1e56f4c9"><path d="M 196 151 L 221 151 L 221 176 L 196 176 Z M 196 151 " clip-rule="nonzero"/></clipPath><clipPath id="63a6b91989"><path d="M 150.359375 106.941406 L 240.960938 124.308594 L 224.722656 209.019531 L 134.121094 191.648438 Z M 150.359375 106.941406 " clip-rule="nonzero"/></clipPath><clipPath id="9d2de2b434"><path d="M 150.359375 106.941406 L 240.960938 124.308594 L 224.722656 209.019531 L 134.121094 191.648438 Z M 150.359375 106.941406 " clip-rule="nonzero"/></clipPath><clipPath id="3984fc30e0"><path d="M 146 140 L 157 140 L 157 151 L 146 151 Z M 146 140 " clip-rule="nonzero"/></clipPath><clipPath id="8bd065be01"><path d="M 150.359375 106.941406 L 240.960938 124.308594 L 224.722656 209.019531 L 134.121094 191.648438 Z M 150.359375 106.941406 " clip-rule="nonzero"/></clipPath><clipPath id="2035f6fc8c"><path d="M 150.359375 106.941406 L 240.960938 124.308594 L 224.722656 209.019531 L 134.121094 191.648438 Z M 150.359375 106.941406 " clip-rule="nonzero"/></clipPath><clipPath id="e00db115ae"><path d="M 206 178 L 217 178 L 217 189 L 206 189 Z M 206 178 " clip-rule="nonzero"/></clipPath><clipPath id="4367f1d21d"><path d="M 150.359375 106.941406 L 240.960938 124.308594 L 224.722656 209.019531 L 134.121094 191.648438 Z M 150.359375 106.941406 " clip-rule="nonzero"/></clipPath><clipPath id="4a0e60948d"><path d="M 150.359375 106.941406 L 240.960938 124.308594 L 224.722656 209.019531 L 134.121094 191.648438 Z M 150.359375 106.941406 " clip-rule="nonzero"/></clipPath><clipPath id="ad5cc03721"><path d="M 145 114 L 236 114 L 236 200 L 145 200 Z M 145 114 " clip-rule="nonzero"/></clipPath><clipPath id="4ce38fa7d3"><path d="M 150.359375 106.941406 L 240.960938 124.308594 L 224.722656 209.019531 L 134.121094 191.648438 Z M 150.359375 106.941406 " clip-rule="nonzero"/></clipPath><clipPath id="729ff10152"><path d="M 150.359375 106.941406 L 240.960938 124.308594 L 224.722656 209.019531 L 134.121094 191.648438 Z M 150.359375 106.941406 " clip-rule="nonzero"/></clipPath></defs><g clip-path="url(#87978af126)"><g clip-path="url(#313d22f346)"><g clip-path="url(#0d2ee1f83c)"><path fill="#29d49c" d="M 167.019531 167.433594 L 166.484375 170.203125 C 166.671875 170.207031 166.824219 170.1875 166.949219 170.148438 C 167.148438 170.082031 167.316406 170 167.433594 169.902344 C 167.546875 169.804688 167.636719 169.699219 167.695312 169.585938 C 167.777344 169.4375 167.800781 169.355469 167.808594 169.320312 L 167.808594 169.3125 C 167.921875 168.777344 167.890625 168.351562 167.714844 168.046875 C 167.578125 167.8125 167.347656 167.609375 167.019531 167.433594 " fill-opacity="1" fill-rule="nonzero"/></g></g></g><g clip-path="url(#49e8889a0e)"><g clip-path="url(#36a085148b)"><g clip-path="url(#b6a5d4ddfd)"><path fill="#29d49c" d="M 167.945312 170.8125 C 167.527344 171.125 166.972656 171.265625 166.289062 171.230469 L 166.21875 171.605469 C 166.179688 171.800781 166.074219 171.949219 165.914062 172.027344 C 165.773438 172.09375 165.632812 172.113281 165.496094 172.089844 C 165.359375 172.0625 165.238281 171.988281 165.140625 171.875 C 165.0625 171.769531 164.988281 171.613281 165.03125 171.378906 L 165.101562 171.019531 C 164.421875 170.828125 163.851562 170.515625 163.40625 170.097656 C 162.871094 169.597656 162.601562 168.960938 162.605469 168.207031 C 162.597656 167.984375 162.707031 167.859375 162.777344 167.808594 C 162.855469 167.742188 162.996094 167.675781 163.21875 167.734375 C 163.566406 167.804688 163.683594 168.066406 163.667969 168.285156 C 163.683594 168.652344 163.835938 169.011719 164.140625 169.34375 C 164.394531 169.625 164.78125 169.84375 165.296875 169.996094 L 165.867188 167.011719 C 165.152344 166.777344 164.617188 166.429688 164.246094 165.972656 C 163.828125 165.449219 163.648438 164.832031 163.707031 164.136719 C 163.738281 163.757812 163.859375 163.40625 164.058594 163.089844 C 164.261719 162.777344 164.515625 162.523438 164.820312 162.332031 C 165.117188 162.132812 165.46875 162.003906 165.886719 161.929688 C 166.191406 161.878906 166.515625 161.867188 166.847656 161.890625 L 166.925781 161.492188 C 166.957031 161.320312 167.046875 161.183594 167.179688 161.09375 C 167.5 160.914062 167.78125 160.992188 167.984375 161.21875 C 168.109375 161.371094 168.144531 161.539062 168.113281 161.71875 L 168.023438 162.183594 C 168.546875 162.398438 168.960938 162.726562 169.257812 163.160156 C 169.613281 163.679688 169.734375 164.304688 169.613281 165.023438 L 169.609375 165.058594 L 169.59375 165.089844 C 169.484375 165.363281 169.265625 165.515625 169.007812 165.5 C 168.753906 165.480469 168.519531 165.292969 168.546875 164.925781 C 168.5625 164.761719 168.5625 164.585938 168.535156 164.382812 C 168.511719 164.207031 168.457031 164.039062 168.371094 163.882812 C 168.277344 163.707031 168.15625 163.550781 168.011719 163.40625 C 167.953125 163.351562 167.890625 163.296875 167.820312 163.25 L 167.222656 166.363281 C 167.617188 166.539062 167.929688 166.734375 168.167969 166.960938 C 168.449219 167.222656 168.65625 167.507812 168.777344 167.804688 C 168.898438 168.101562 168.957031 168.410156 168.953125 168.71875 C 168.953125 169.019531 168.914062 169.296875 168.835938 169.550781 C 168.710938 170.035156 168.40625 170.464844 167.945312 170.8125 Z M 175.085938 168.179688 C 176.027344 163.277344 172.796875 158.523438 167.886719 157.582031 C 162.976562 156.640625 158.21875 159.863281 157.277344 164.765625 C 156.335938 169.667969 159.566406 174.425781 164.476562 175.367188 C 169.386719 176.308594 174.144531 173.082031 175.085938 168.179688 " fill-opacity="1" fill-rule="nonzero"/></g></g></g><g clip-path="url(#ba07be6f4f)"><g clip-path="url(#38a7466c93)"><g clip-path="url(#fb70f5bb36)"><path fill="#29d49c" d="M 164.808594 164.289062 C 164.792969 164.425781 164.800781 164.578125 164.824219 164.746094 C 164.847656 164.882812 164.910156 165.027344 165.011719 165.164062 C 165.125 165.328125 165.289062 165.492188 165.496094 165.652344 C 165.644531 165.761719 165.835938 165.867188 166.066406 165.964844 L 166.652344 162.917969 C 166.167969 162.894531 165.777344 162.992188 165.460938 163.214844 C 165.082031 163.484375 164.871094 163.835938 164.808594 164.289062 " fill-opacity="1" fill-rule="nonzero"/></g></g></g><g clip-path="url(#ad1c95bf72)"><g clip-path="url(#e51265aff9)"><g clip-path="url(#c71e3fad2b)"><path fill="#29d49c" d="M 209.453125 165.046875 L 208.738281 168.777344 C 208.984375 168.777344 209.191406 168.753906 209.355469 168.699219 C 209.628906 168.613281 209.851562 168.5 210.011719 168.367188 C 210.160156 168.238281 210.28125 168.09375 210.359375 167.945312 C 210.472656 167.746094 210.503906 167.632812 210.511719 167.585938 L 210.515625 167.574219 C 210.667969 166.859375 210.625 166.285156 210.386719 165.871094 C 210.203125 165.558594 209.894531 165.285156 209.453125 165.046875 " fill-opacity="1" fill-rule="nonzero"/></g></g></g><g clip-path="url(#004dfdcd25)"><g clip-path="url(#c64c4ea7f1)"><g clip-path="url(#97d8214605)"><path fill="#29d49c" d="M 206.480469 160.816406 C 206.460938 161.003906 206.46875 161.210938 206.5 161.4375 C 206.53125 161.617188 206.617188 161.8125 206.75 162 C 206.90625 162.21875 207.128906 162.441406 207.40625 162.652344 C 207.605469 162.800781 207.859375 162.941406 208.175781 163.074219 L 208.960938 158.976562 C 208.308594 158.941406 207.785156 159.074219 207.359375 159.375 C 206.851562 159.738281 206.5625 160.210938 206.480469 160.816406 " fill-opacity="1" fill-rule="nonzero"/></g></g></g><g clip-path="url(#5a1e56f4c9)"><g clip-path="url(#63a6b91989)"><g clip-path="url(#9d2de2b434)"><path fill="#29d49c" d="M 210.695312 169.59375 C 210.136719 170.015625 209.390625 170.203125 208.472656 170.15625 L 208.375 170.660156 C 208.324219 170.921875 208.179688 171.121094 207.96875 171.226562 C 207.777344 171.316406 207.589844 171.347656 207.40625 171.3125 C 207.21875 171.273438 207.058594 171.175781 206.925781 171.019531 C 206.820312 170.878906 206.722656 170.667969 206.78125 170.355469 L 206.875 169.875 C 205.960938 169.613281 205.195312 169.195312 204.59375 168.632812 C 203.875 167.960938 203.511719 167.101562 203.515625 166.085938 C 203.507812 165.792969 203.65625 165.625 203.746094 165.550781 C 203.855469 165.464844 204.039062 165.375 204.34375 165.453125 C 204.808594 165.550781 204.964844 165.902344 204.945312 166.195312 C 204.96875 166.691406 205.175781 167.167969 205.582031 167.617188 C 205.921875 167.992188 206.445312 168.289062 207.136719 168.5 L 207.902344 164.480469 C 206.945312 164.164062 206.222656 163.699219 205.722656 163.082031 C 205.164062 162.378906 204.921875 161.550781 204.996094 160.613281 C 205.042969 160.105469 205.203125 159.636719 205.472656 159.207031 C 205.742188 158.789062 206.085938 158.449219 206.492188 158.1875 C 206.894531 157.921875 207.367188 157.746094 207.929688 157.648438 C 208.34375 157.578125 208.773438 157.5625 209.222656 157.597656 L 209.328125 157.058594 C 209.371094 156.832031 209.488281 156.644531 209.667969 156.523438 C 210.101562 156.28125 210.480469 156.386719 210.753906 156.6875 C 210.917969 156.898438 210.96875 157.125 210.921875 157.363281 L 210.804688 157.992188 C 211.503906 158.277344 212.0625 158.71875 212.464844 159.304688 C 212.945312 160 213.105469 160.84375 212.945312 161.808594 L 212.9375 161.855469 L 212.917969 161.898438 C 212.769531 162.265625 212.472656 162.472656 212.128906 162.449219 C 211.785156 162.421875 211.46875 162.171875 211.507812 161.679688 C 211.53125 161.457031 211.527344 161.222656 211.496094 160.949219 C 211.460938 160.710938 211.386719 160.484375 211.273438 160.277344 C 211.144531 160.042969 210.984375 159.828125 210.789062 159.636719 C 210.710938 159.558594 210.625 159.488281 210.527344 159.421875 L 209.726562 163.613281 C 210.257812 163.84375 210.679688 164.109375 211 164.414062 C 211.378906 164.765625 211.652344 165.148438 211.820312 165.550781 C 211.980469 165.949219 212.058594 166.363281 212.054688 166.777344 C 212.054688 167.183594 212.003906 167.554688 211.898438 167.898438 C 211.726562 168.546875 211.320312 169.125 210.695312 169.59375 Z M 210.621094 151.800781 C 204.015625 150.535156 197.617188 154.867188 196.351562 161.460938 C 195.085938 168.058594 199.429688 174.453125 206.035156 175.71875 C 212.636719 176.984375 219.035156 172.648438 220.300781 166.054688 C 221.566406 159.460938 217.222656 153.066406 210.621094 151.800781 " fill-opacity="1" fill-rule="nonzero"/></g></g></g><g clip-path="url(#3984fc30e0)"><g clip-path="url(#8bd065be01)"><g clip-path="url(#2035f6fc8c)"><path fill="#29d49c" d="M 152.199219 140.730469 C 149.46875 140.207031 146.824219 142 146.300781 144.726562 C 145.777344 147.453125 147.574219 150.097656 150.304688 150.621094 C 153.035156 151.144531 155.679688 149.351562 156.203125 146.625 C 156.726562 143.898438 154.929688 141.253906 152.199219 140.730469 " fill-opacity="1" fill-rule="nonzero"/></g></g></g><g clip-path="url(#e00db115ae)"><g clip-path="url(#4367f1d21d)"><g clip-path="url(#4a0e60948d)"><path fill="#29d49c" d="M 212.242188 178.664062 C 209.511719 178.140625 206.863281 179.933594 206.339844 182.660156 C 205.816406 185.386719 207.613281 188.03125 210.34375 188.554688 C 213.074219 189.078125 215.722656 187.285156 216.242188 184.558594 C 216.765625 181.832031 214.96875 179.1875 212.242188 178.664062 " fill-opacity="1" fill-rule="nonzero"/></g></g></g><g clip-path="url(#ad5cc03721)"><g clip-path="url(#4ce38fa7d3)"><g clip-path="url(#729ff10152)"><path fill="#29d49c" d="M 235.394531 151.769531 C 235.320312 151.46875 227.800781 121.839844 195.652344 115.675781 C 163.5 109.511719 145.558594 134.261719 145.378906 134.511719 C 144.960938 135.101562 145.027344 135.898438 145.53125 136.414062 C 146.039062 136.925781 146.835938 137.003906 147.429688 136.601562 C 154.335938 131.925781 163.753906 139.90625 163.84375 139.992188 C 164.355469 140.421875 165.097656 140.476562 165.65625 140.097656 C 172.128906 135.714844 179.890625 142.96875 179.96875 143.042969 C 180.542969 143.578125 181.4375 143.597656 182.015625 143.054688 C 183.894531 141.304688 186.625 140.898438 188.550781 140.859375 L 182.136719 174.308594 C 181.601562 174.738281 181.183594 175.324219 181.046875 176.050781 L 178.617188 188.757812 C 178.523438 189.496094 177.953125 191.824219 176.605469 192.800781 C 176.179688 193.105469 175.445312 193.484375 173.949219 193.195312 C 169.226562 192.292969 169.285156 190.003906 169.886719 186.871094 C 170.195312 185.257812 169.136719 183.703125 167.519531 183.390625 C 165.90625 183.082031 164.347656 184.136719 164.035156 185.75 C 162.261719 195 167.835938 198.082031 172.828125 199.039062 C 176.328125 199.707031 178.738281 198.617188 180.148438 197.585938 C 183.8125 194.890625 184.46875 190 184.496094 189.675781 L 186.894531 177.171875 C 187.035156 176.445312 186.863281 175.746094 186.523438 175.148438 L 192.9375 141.691406 C 194.707031 142.4375 197.089844 143.820312 198.195312 146.15625 C 198.40625 146.601562 198.808594 146.894531 199.257812 146.980469 C 199.535156 147.035156 199.824219 147.011719 200.097656 146.898438 C 200.195312 146.859375 210.066406 142.949219 214.488281 149.457031 C 214.871094 150.019531 215.574219 150.242188 216.210938 150.027344 C 216.328125 149.988281 228.007812 146.023438 232.714844 152.953125 C 233.121094 153.542969 233.886719 153.769531 234.550781 153.476562 C 235.207031 153.1875 235.566406 152.46875 235.394531 151.769531 " fill-opacity="1" fill-rule="nonzero"/></g></g></g><g fill="#18adc2" fill-opacity="1"><g transform="translate(113.591012, 221.797764)"><g><path d="M 3.90625 -3.5625 L 3.90625 -1.015625 L 5.703125 -0.765625 L 5.6875 0 L 0.5 0 L 0.40625 -0.484375 C 0.71875 -0.671875 1.125 -0.867188 1.625 -1.078125 L 1.625 -8.96875 L 0.515625 -9.109375 L 0.53125 -9.875 L 5.375 -9.984375 C 6.53125 -9.984375 7.460938 -9.675781 8.171875 -9.0625 C 8.890625 -8.445312 9.25 -7.671875 9.25 -6.734375 C 9.25 -5.847656 8.910156 -5.101562 8.234375 -4.5 C 7.554688 -3.894531 6.679688 -3.582031 5.609375 -3.5625 Z M 3.90625 -8.59375 L 3.90625 -4.890625 C 4.300781 -4.804688 4.6875 -4.765625 5.0625 -4.765625 C 5.664062 -4.765625 6.125 -4.957031 6.4375 -5.34375 C 6.75 -5.726562 6.90625 -6.203125 6.90625 -6.765625 C 6.90625 -7.191406 6.820312 -7.597656 6.65625 -7.984375 C 6.5 -8.378906 6.273438 -8.65625 5.984375 -8.8125 Z M 3.90625 -8.59375 "/></g></g></g><g fill="#18adc2" fill-opacity="1"><g transform="translate(122.321, 221.797764)"><g><path d="M 10.890625 -0.765625 L 10.875 0 L 6.15625 0 L 6.0625 -0.484375 C 6.34375 -0.648438 6.773438 -0.859375 7.359375 -1.109375 L 6.734375 -2.734375 L 3.171875 -2.734375 L 2.5 -0.953125 L 3.890625 -0.765625 L 3.875 0 L -0.203125 0 L -0.296875 -0.484375 C 0.00390625 -0.671875 0.414062 -0.867188 0.9375 -1.078125 L 4.265625 -9.21875 L 4.078125 -9.6875 L 6.046875 -10.234375 L 9.828125 -0.921875 Z M 6.296875 -3.875 L 4.953125 -7.40625 L 3.59375 -3.875 Z M 6.296875 -3.875 "/></g></g></g><g fill="#18adc2" fill-opacity="1"><g transform="translate(132.355991, 221.797764)"><g><path d="M 5.953125 -0.9375 L 7.203125 -0.765625 L 7.1875 0 L 2.609375 0 L 2.515625 -0.484375 C 2.828125 -0.671875 3.234375 -0.867188 3.734375 -1.078125 L 3.734375 -3.703125 L 0.921875 -8.96875 L -0.03125 -9.109375 L -0.015625 -9.875 L 3.984375 -9.875 L 4.078125 -9.390625 L 3.234375 -8.953125 L 4.65625 -6.296875 L 5.0625 -5.03125 L 5.140625 -5.03125 L 7.109375 -8.9375 L 6 -9.109375 L 6.015625 -9.875 L 9.671875 -9.875 L 9.765625 -9.390625 C 9.503906 -9.234375 9.109375 -9.039062 8.578125 -8.8125 L 5.953125 -3.9375 Z M 5.953125 -0.9375 "/></g></g></g><g fill="#18adc2" fill-opacity="1"><g transform="translate(141.310981, 221.797764)"><g><path d="M 5.4375 -9.984375 C 6.457031 -9.984375 7.335938 -9.742188 8.078125 -9.265625 C 8.828125 -8.785156 9.394531 -8.164062 9.78125 -7.40625 C 10.175781 -6.644531 10.375 -5.847656 10.375 -5.015625 C 10.375 -3.546875 9.921875 -2.351562 9.015625 -1.4375 C 8.117188 -0.519531 6.921875 -0.0390625 5.421875 0 L 0.484375 0 L 0.390625 -0.484375 C 0.679688 -0.671875 1.109375 -0.875 1.671875 -1.09375 L 1.671875 -8.96875 L 0.59375 -9.109375 L 0.609375 -9.875 C 2.054688 -9.945312 3.664062 -9.984375 5.4375 -9.984375 Z M 5.078125 -1.25 C 5.941406 -1.25 6.640625 -1.59375 7.171875 -2.28125 C 7.710938 -2.96875 7.984375 -3.847656 7.984375 -4.921875 C 7.984375 -5.753906 7.804688 -6.53125 7.453125 -7.25 C 7.109375 -7.96875 6.664062 -8.488281 6.125 -8.8125 L 3.9375 -8.59375 L 3.9375 -1.421875 C 4.351562 -1.304688 4.734375 -1.25 5.078125 -1.25 Z M 5.078125 -1.25 "/></g></g></g><g fill="#18adc2" fill-opacity="1"><g transform="translate(151.150966, 221.797764)"><g><path d="M 10.890625 -0.765625 L 10.875 0 L 6.15625 0 L 6.0625 -0.484375 C 6.34375 -0.648438 6.773438 -0.859375 7.359375 -1.109375 L 6.734375 -2.734375 L 3.171875 -2.734375 L 2.5 -0.953125 L 3.890625 -0.765625 L 3.875 0 L -0.203125 0 L -0.296875 -0.484375 C 0.00390625 -0.671875 0.414062 -0.867188 0.9375 -1.078125 L 4.265625 -9.21875 L 4.078125 -9.6875 L 6.046875 -10.234375 L 9.828125 -0.921875 Z M 6.296875 -3.875 L 4.953125 -7.40625 L 3.59375 -3.875 Z M 6.296875 -3.875 "/></g></g></g><g fill="#18adc2" fill-opacity="1"><g transform="translate(161.185957, 221.797764)"><g><path d="M 5.953125 -0.9375 L 7.203125 -0.765625 L 7.1875 0 L 2.609375 0 L 2.515625 -0.484375 C 2.828125 -0.671875 3.234375 -0.867188 3.734375 -1.078125 L 3.734375 -3.703125 L 0.921875 -8.96875 L -0.03125 -9.109375 L -0.015625 -9.875 L 3.984375 -9.875 L 4.078125 -9.390625 L 3.234375 -8.953125 L 4.65625 -6.296875 L 5.0625 -5.03125 L 5.140625 -5.03125 L 7.109375 -8.9375 L 6 -9.109375 L 6.015625 -9.875 L 9.671875 -9.875 L 9.765625 -9.390625 C 9.503906 -9.234375 9.109375 -9.039062 8.578125 -8.8125 L 5.953125 -3.9375 Z M 5.953125 -0.9375 "/></g></g></g><g fill="#18adc2" fill-opacity="1"><g transform="translate(170.140947, 221.797764)"><g/></g></g><g fill="#18adc2" fill-opacity="1"><g transform="translate(173.365938, 221.797764)"><g><path d="M 3.90625 -3.5625 L 3.90625 -1.015625 L 5.703125 -0.765625 L 5.6875 0 L 0.5 0 L 0.40625 -0.484375 C 0.71875 -0.671875 1.125 -0.867188 1.625 -1.078125 L 1.625 -8.96875 L 0.515625 -9.109375 L 0.53125 -9.875 L 5.375 -9.984375 C 6.53125 -9.984375 7.460938 -9.675781 8.171875 -9.0625 C 8.890625 -8.445312 9.25 -7.671875 9.25 -6.734375 C 9.25 -5.847656 8.910156 -5.101562 8.234375 -4.5 C 7.554688 -3.894531 6.679688 -3.582031 5.609375 -3.5625 Z M 3.90625 -8.59375 L 3.90625 -4.890625 C 4.300781 -4.804688 4.6875 -4.765625 5.0625 -4.765625 C 5.664062 -4.765625 6.125 -4.957031 6.4375 -5.34375 C 6.75 -5.726562 6.90625 -6.203125 6.90625 -6.765625 C 6.90625 -7.191406 6.820312 -7.597656 6.65625 -7.984375 C 6.5 -8.378906 6.273438 -8.65625 5.984375 -8.8125 Z M 3.90625 -8.59375 "/></g></g></g><g fill="#18adc2" fill-opacity="1"><g transform="translate(182.095925, 221.797764)"><g><path d="M 10.25 -0.765625 L 10.234375 0 L 7.234375 0 L 5.1875 -3.828125 L 3.9375 -3.8125 L 3.9375 -0.953125 L 5.296875 -0.765625 L 5.28125 0 L 0.484375 0 L 0.390625 -0.484375 C 0.679688 -0.671875 1.109375 -0.875 1.671875 -1.09375 L 1.671875 -8.96875 L 0.5625 -9.109375 L 0.5625 -9.875 L 5.359375 -9.984375 C 6.503906 -9.984375 7.441406 -9.691406 8.171875 -9.109375 C 8.910156 -8.535156 9.28125 -7.8125 9.28125 -6.9375 C 9.28125 -6.351562 9.097656 -5.804688 8.734375 -5.296875 C 8.378906 -4.796875 7.894531 -4.414062 7.28125 -4.15625 L 9.28125 -0.890625 Z M 3.9375 -5.0625 C 4.28125 -5 4.609375 -4.96875 4.921875 -4.96875 C 5.628906 -4.96875 6.140625 -5.144531 6.453125 -5.5 C 6.773438 -5.863281 6.9375 -6.332031 6.9375 -6.90625 C 6.9375 -7.78125 6.632812 -8.414062 6.03125 -8.8125 L 3.9375 -8.59375 Z M 3.9375 -5.0625 "/></g></g></g><g fill="#18adc2" fill-opacity="1"><g transform="translate(191.72591, 221.797764)"><g><path d="M 5.015625 -10.171875 C 6.441406 -10.171875 7.613281 -9.671875 8.53125 -8.671875 C 9.457031 -7.679688 9.921875 -6.390625 9.921875 -4.796875 C 9.921875 -3.265625 9.472656 -2.03125 8.578125 -1.09375 C 7.679688 -0.164062 6.53125 0.296875 5.125 0.296875 C 3.6875 0.296875 2.503906 -0.175781 1.578125 -1.125 C 0.660156 -2.070312 0.203125 -3.320312 0.203125 -4.875 C 0.203125 -6.4375 0.65625 -7.707031 1.5625 -8.6875 C 2.46875 -9.675781 3.617188 -10.171875 5.015625 -10.171875 Z M 3.71875 -8.640625 C 3.382812 -8.359375 3.113281 -7.898438 2.90625 -7.265625 C 2.707031 -6.640625 2.609375 -5.929688 2.609375 -5.140625 C 2.609375 -3.929688 2.847656 -2.941406 3.328125 -2.171875 C 3.804688 -1.398438 4.492188 -1.015625 5.390625 -1.015625 C 5.617188 -1.015625 5.898438 -1.0625 6.234375 -1.15625 C 6.617188 -1.457031 6.925781 -1.929688 7.15625 -2.578125 C 7.382812 -3.234375 7.5 -3.957031 7.5 -4.75 C 7.5 -5.957031 7.253906 -6.941406 6.765625 -7.703125 C 6.273438 -8.460938 5.625 -8.84375 4.8125 -8.84375 C 4.476562 -8.84375 4.113281 -8.773438 3.71875 -8.640625 Z M 3.71875 -8.640625 "/></g></g></g><g fill="#18adc2" fill-opacity="1"><g transform="translate(201.100898, 221.797764)"><g><path d="M 9.546875 -9.953125 L 9.5625 -9.53125 C 9.5625 -8.5 9.472656 -7.585938 9.296875 -6.796875 L 8.09375 -6.796875 L 7.875 -8.6875 L 5.984375 -8.828125 L 5.984375 -0.984375 L 7.515625 -0.765625 L 7.5 0 L 2.265625 0 L 2.171875 -0.484375 C 2.390625 -0.617188 2.898438 -0.84375 3.703125 -1.15625 L 3.703125 -8.828125 L 1.796875 -8.6875 L 1.578125 -6.796875 L 0.375 -6.796875 C 0.207031 -7.585938 0.125 -8.5 0.125 -9.53125 L 0.140625 -9.953125 L 4.859375 -9.90625 Z M 9.546875 -9.953125 "/></g></g></g><g fill="#18adc2" fill-opacity="1"><g transform="translate(210.025893, 221.797764)"><g><path d="M 8.5 -2.984375 C 8.519531 -2.003906 8.460938 -1.007812 8.328125 0 L 0.484375 0 L 0.390625 -0.484375 C 0.679688 -0.671875 1.109375 -0.875 1.671875 -1.09375 L 1.671875 -8.96875 L 0.5625 -9.109375 L 0.5625 -9.875 L 8.40625 -9.875 C 8.445312 -9.050781 8.363281 -8.097656 8.15625 -7.015625 L 6.90625 -7.015625 L 6.640625 -8.5 L 3.9375 -8.703125 L 3.9375 -5.46875 L 7.171875 -5.734375 L 7.171875 -4.21875 L 3.9375 -4.34375 L 3.9375 -1.25 L 6.75 -1.4375 L 7.25 -3.078125 Z M 8.5 -2.984375 "/></g></g></g><g fill="#18adc2" fill-opacity="1"><g transform="translate(218.530878, 221.797764)"><g><path d="M 8.546875 -1.078125 L 5.46875 0.234375 C 4.238281 0.273438 3.226562 0.0546875 2.4375 -0.421875 C 1.644531 -0.898438 1.066406 -1.523438 0.703125 -2.296875 C 0.347656 -3.078125 0.171875 -3.914062 0.171875 -4.8125 C 0.171875 -5.726562 0.359375 -6.597656 0.734375 -7.421875 C 1.117188 -8.242188 1.6875 -8.90625 2.4375 -9.40625 C 3.195312 -9.914062 4.117188 -10.171875 5.203125 -10.171875 C 6.359375 -10.171875 7.390625 -9.851562 8.296875 -9.21875 C 8.316406 -8.90625 8.296875 -8.476562 8.234375 -7.9375 C 8.171875 -7.394531 8.082031 -6.925781 7.96875 -6.53125 L 6.578125 -6.53125 L 6.21875 -8.40625 C 5.53125 -8.695312 4.773438 -8.84375 3.953125 -8.84375 C 3.460938 -8.476562 3.09375 -7.957031 2.84375 -7.28125 C 2.601562 -6.613281 2.484375 -5.910156 2.484375 -5.171875 C 2.484375 -3.984375 2.773438 -3.039062 3.359375 -2.34375 C 3.941406 -1.644531 4.726562 -1.304688 5.71875 -1.328125 L 8.1875 -2.140625 Z M 8.546875 -1.078125 "/></g></g></g><g fill="#18adc2" fill-opacity="1"><g transform="translate(226.510866, 221.797764)"><g><path d="M 9.546875 -9.953125 L 9.5625 -9.53125 C 9.5625 -8.5 9.472656 -7.585938 9.296875 -6.796875 L 8.09375 -6.796875 L 7.875 -8.6875 L 5.984375 -8.828125 L 5.984375 -0.984375 L 7.515625 -0.765625 L 7.5 0 L 2.265625 0 L 2.171875 -0.484375 C 2.390625 -0.617188 2.898438 -0.84375 3.703125 -1.15625 L 3.703125 -8.828125 L 1.796875 -8.6875 L 1.578125 -6.796875 L 0.375 -6.796875 C 0.207031 -7.585938 0.125 -8.5 0.125 -9.53125 L 0.140625 -9.953125 L 4.859375 -9.90625 Z M 9.546875 -9.953125 "/></g></g></g><g fill="#18adc2" fill-opacity="1"><g transform="translate(235.435861, 221.797764)"><g><path d="M 5.328125 -0.765625 L 5.3125 0 L 0.484375 0 L 0.390625 -0.484375 C 0.679688 -0.671875 1.109375 -0.875 1.671875 -1.09375 L 1.671875 -8.9375 L 0.515625 -9.109375 L 0.53125 -9.875 L 5.109375 -9.875 L 5.203125 -9.390625 C 4.835938 -9.171875 4.414062 -8.96875 3.9375 -8.78125 L 3.9375 -0.953125 Z M 5.328125 -0.765625 "/></g></g></g><g fill="#18adc2" fill-opacity="1"><g transform="translate(240.41586, 221.797764)"><g><path d="M 5.015625 -10.171875 C 6.441406 -10.171875 7.613281 -9.671875 8.53125 -8.671875 C 9.457031 -7.679688 9.921875 -6.390625 9.921875 -4.796875 C 9.921875 -3.265625 9.472656 -2.03125 8.578125 -1.09375 C 7.679688 -0.164062 6.53125 0.296875 5.125 0.296875 C 3.6875 0.296875 2.503906 -0.175781 1.578125 -1.125 C 0.660156 -2.070312 0.203125 -3.320312 0.203125 -4.875 C 0.203125 -6.4375 0.65625 -7.707031 1.5625 -8.6875 C 2.46875 -9.675781 3.617188 -10.171875 5.015625 -10.171875 Z M 3.71875 -8.640625 C 3.382812 -8.359375 3.113281 -7.898438 2.90625 -7.265625 C 2.707031 -6.640625 2.609375 -5.929688 2.609375 -5.140625 C 2.609375 -3.929688 2.847656 -2.941406 3.328125 -2.171875 C 3.804688 -1.398438 4.492188 -1.015625 5.390625 -1.015625 C 5.617188 -1.015625 5.898438 -1.0625 6.234375 -1.15625 C 6.617188 -1.457031 6.925781 -1.929688 7.15625 -2.578125 C 7.382812 -3.234375 7.5 -3.957031 7.5 -4.75 C 7.5 -5.957031 7.253906 -6.941406 6.765625 -7.703125 C 6.273438 -8.460938 5.625 -8.84375 4.8125 -8.84375 C 4.476562 -8.84375 4.113281 -8.773438 3.71875 -8.640625 Z M 3.71875 -8.640625 "/></g></g></g><g fill="#18adc2" fill-opacity="1"><g transform="translate(249.790848, 221.797764)"><g><path d="M 11.203125 -9.390625 C 10.890625 -9.203125 10.484375 -9.003906 9.984375 -8.796875 L 9.9375 0 L 7.8125 0.1875 L 3.078125 -7.078125 L 3.296875 -5.234375 L 3.296875 -0.953125 L 4.625 -0.765625 L 4.609375 0 L 0.484375 0 L 0.390625 -0.484375 C 0.679688 -0.671875 1.109375 -0.875 1.671875 -1.09375 L 1.671875 -8.9375 L 0.609375 -9.109375 L 0.625 -9.875 L 3.953125 -9.875 L 3.9375 -9.859375 L 8.578125 -2.609375 L 8.359375 -4.515625 L 8.359375 -8.890625 L 6.90625 -9.109375 L 6.921875 -9.875 L 11.109375 -9.875 Z M 11.203125 -9.390625 "/></g></g></g></svg>