<svg xmlns="http://www.w3.org/2000/svg" xmlns:xlink="http://www.w3.org/1999/xlink" width="500" zoomAndPan="magnify" viewBox="0 0 375 374.999991" height="500" preserveAspectRatio="xMidYMid meet" version="1.0"><defs><clipPath id="75d7dfee85"><path d="M 113 220 L 119 220 L 119 231 L 113 231 Z M 113 220 " clip-rule="nonzero"/></clipPath><clipPath id="b94a1c7125"><path d="M 57.0625 8.191406 L 375.269531 69.191406 L 318.222656 366.773438 L 0.015625 305.773438 Z M 57.0625 8.191406 " clip-rule="nonzero"/></clipPath><clipPath id="2202649a2b"><path d="M 57.0625 8.191406 L 375.269531 69.191406 L 318.222656 366.773438 L 0.015625 305.773438 Z M 57.0625 8.191406 " clip-rule="nonzero"/></clipPath><clipPath id="850a75aa0b"><path d="M 80 185 L 145 185 L 145 250 L 80 250 Z M 80 185 " clip-rule="nonzero"/></clipPath><clipPath id="7af74a6d45"><path d="M 57.0625 8.191406 L 375.269531 69.191406 L 318.222656 366.773438 L 0.015625 305.773438 Z M 57.0625 8.191406 " clip-rule="nonzero"/></clipPath><clipPath id="38b5876749"><path d="M 57.0625 8.191406 L 375.269531 69.191406 L 318.222656 366.773438 L 0.015625 305.773438 Z M 57.0625 8.191406 " clip-rule="nonzero"/></clipPath><clipPath id="e3784fada3"><path d="M 107 204 L 115 204 L 115 216 L 107 216 Z M 107 204 " clip-rule="nonzero"/></clipPath><clipPath id="625d8a311a"><path d="M 57.0625 8.191406 L 375.269531 69.191406 L 318.222656 366.773438 L 0.015625 305.773438 Z M 57.0625 8.191406 " clip-rule="nonzero"/></clipPath><clipPath id="8f0ffea074"><path d="M 57.0625 8.191406 L 375.269531 69.191406 L 318.222656 366.773438 L 0.015625 305.773438 Z M 57.0625 8.191406 " clip-rule="nonzero"/></clipPath><clipPath id="099739be8e"><path d="M 262 212 L 269 212 L 269 226 L 262 226 Z M 262 212 " clip-rule="nonzero"/></clipPath><clipPath id="fcfae1677c"><path d="M 57.0625 8.191406 L 375.269531 69.191406 L 318.222656 366.773438 L 0.015625 305.773438 Z M 57.0625 8.191406 " clip-rule="nonzero"/></clipPath><clipPath id="93ba49cff8"><path d="M 57.0625 8.191406 L 375.269531 69.191406 L 318.222656 366.773438 L 0.015625 305.773438 Z M 57.0625 8.191406 " clip-rule="nonzero"/></clipPath><clipPath id="94faebbfac"><path d="M 254 190 L 263 190 L 263 206 L 254 206 Z M 254 190 " clip-rule="nonzero"/></clipPath><clipPath id="9360f5bb0b"><path d="M 57.0625 8.191406 L 375.269531 69.191406 L 318.222656 366.773438 L 0.015625 305.773438 Z M 57.0625 8.191406 " clip-rule="nonzero"/></clipPath><clipPath id="40cba9e836"><path d="M 57.0625 8.191406 L 375.269531 69.191406 L 318.222656 366.773438 L 0.015625 305.773438 Z M 57.0625 8.191406 " clip-rule="nonzero"/></clipPath><clipPath id="8a9df186dc"><path d="M 217 165 L 304 165 L 304 251 L 217 251 Z M 217 165 " clip-rule="nonzero"/></clipPath><clipPath id="ffba70b9e5"><path d="M 57.0625 8.191406 L 375.269531 69.191406 L 318.222656 366.773438 L 0.015625 305.773438 Z M 57.0625 8.191406 " clip-rule="nonzero"/></clipPath><clipPath id="2fca8b0d41"><path d="M 57.0625 8.191406 L 375.269531 69.191406 L 318.222656 366.773438 L 0.015625 305.773438 Z M 57.0625 8.191406 " clip-rule="nonzero"/></clipPath><clipPath id="7871e4f1fa"><path d="M 42 126 L 78 126 L 78 162 L 42 162 Z M 42 126 " clip-rule="nonzero"/></clipPath><clipPath id="43961c1741"><path d="M 57.0625 8.191406 L 375.269531 69.191406 L 318.222656 366.773438 L 0.015625 305.773438 Z M 57.0625 8.191406 " clip-rule="nonzero"/></clipPath><clipPath id="db308cc8f1"><path d="M 57.0625 8.191406 L 375.269531 69.191406 L 318.222656 366.773438 L 0.015625 305.773438 Z M 57.0625 8.191406 " clip-rule="nonzero"/></clipPath><clipPath id="43324a2da7"><path d="M 253 259 L 289 259 L 289 296 L 253 296 Z M 253 259 " clip-rule="nonzero"/></clipPath><clipPath id="28a1f651d2"><path d="M 57.0625 8.191406 L 375.269531 69.191406 L 318.222656 366.773438 L 0.015625 305.773438 Z M 57.0625 8.191406 " clip-rule="nonzero"/></clipPath><clipPath id="4ecea16118"><path d="M 57.0625 8.191406 L 375.269531 69.191406 L 318.222656 366.773438 L 0.015625 305.773438 Z M 57.0625 8.191406 " clip-rule="nonzero"/></clipPath><clipPath id="77d0e30600"><path d="M 38 35 L 356 35 L 356 333 L 38 333 Z M 38 35 " clip-rule="nonzero"/></clipPath><clipPath id="3c044835bf"><path d="M 57.0625 8.191406 L 375.269531 69.191406 L 318.222656 366.773438 L 0.015625 305.773438 Z M 57.0625 8.191406 " clip-rule="nonzero"/></clipPath><clipPath id="0d1db0758a"><path d="M 57.0625 8.191406 L 375.269531 69.191406 L 318.222656 366.773438 L 0.015625 305.773438 Z M 57.0625 8.191406 " clip-rule="nonzero"/></clipPath></defs><g clip-path="url(#75d7dfee85)"><g clip-path="url(#b94a1c7125)"><g clip-path="url(#2202649a2b)"><path fill="#089d79" d="M 115.558594 220.6875 L 113.691406 230.429688 C 114.335938 230.433594 114.878906 230.367188 115.3125 230.222656 C 116.019531 230.003906 116.605469 229.707031 117.019531 229.363281 C 117.414062 229.023438 117.726562 228.648438 117.933594 228.261719 C 118.222656 227.738281 118.308594 227.445312 118.332031 227.316406 L 118.335938 227.289062 C 118.738281 225.417969 118.625 223.921875 118.003906 222.84375 C 117.519531 222.019531 116.714844 221.308594 115.558594 220.6875 " fill-opacity="1" fill-rule="nonzero"/></g></g></g><g clip-path="url(#850a75aa0b)"><g clip-path="url(#7af74a6d45)"><g clip-path="url(#38b5876749)"><path fill="#089d79" d="M 118.808594 232.566406 C 117.351562 233.664062 115.398438 234.15625 113 234.039062 L 112.746094 235.355469 C 112.617188 236.03125 112.238281 236.554688 111.679688 236.828125 C 111.191406 237.066406 110.699219 237.140625 110.21875 237.046875 C 109.730469 236.953125 109.308594 236.699219 108.960938 236.292969 C 108.683594 235.925781 108.429688 235.371094 108.585938 234.558594 L 108.828125 233.296875 C 106.4375 232.613281 104.4375 231.527344 102.867188 230.054688 C 100.988281 228.292969 100.042969 226.058594 100.054688 223.40625 C 100.03125 222.632812 100.417969 222.195312 100.65625 222.007812 C 100.945312 221.78125 101.425781 221.546875 102.21875 221.746094 C 103.4375 222.003906 103.839844 222.921875 103.792969 223.691406 C 103.847656 224.980469 104.386719 226.230469 105.449219 227.402344 C 106.339844 228.386719 107.703125 229.15625 109.515625 229.703125 L 111.515625 219.210938 C 109.011719 218.386719 107.121094 217.164062 105.820312 215.554688 C 104.359375 213.71875 103.726562 211.554688 103.925781 209.109375 C 104.042969 207.785156 104.460938 206.550781 105.167969 205.433594 C 105.875 204.339844 106.769531 203.449219 107.835938 202.769531 C 108.878906 202.078125 110.113281 201.617188 111.585938 201.359375 C 112.660156 201.179688 113.792969 201.132812 114.960938 201.230469 L 115.230469 199.820312 C 115.347656 199.226562 115.65625 198.742188 116.125 198.421875 C 117.253906 197.792969 118.242188 198.066406 118.957031 198.855469 C 119.386719 199.40625 119.523438 199.992188 119.402344 200.617188 L 119.089844 202.253906 C 120.925781 203.007812 122.378906 204.160156 123.425781 205.6875 C 124.679688 207.503906 125.101562 209.703125 124.675781 212.226562 L 124.65625 212.347656 L 124.613281 212.460938 C 124.226562 213.421875 123.449219 213.960938 122.546875 213.90625 C 121.65625 213.828125 120.824219 213.179688 120.925781 211.886719 C 120.988281 211.304688 120.980469 210.695312 120.894531 209.980469 C 120.804688 209.367188 120.609375 208.765625 120.3125 208.222656 C 119.980469 207.609375 119.558594 207.050781 119.050781 206.550781 C 118.847656 206.347656 118.621094 206.164062 118.371094 206 L 116.277344 216.941406 C 117.667969 217.546875 118.761719 218.234375 119.601562 219.027344 C 120.589844 219.957031 121.3125 220.953125 121.742188 222 C 122.164062 223.046875 122.367188 224.121094 122.355469 225.207031 C 122.355469 226.269531 122.21875 227.234375 121.945312 228.132812 C 121.5 229.832031 120.4375 231.339844 118.808594 232.566406 Z M 143.894531 223.316406 C 147.195312 206.09375 135.851562 189.390625 118.605469 186.085938 C 101.367188 182.78125 84.648438 194.101562 81.34375 211.328125 C 78.042969 228.550781 89.390625 245.253906 106.628906 248.558594 C 123.875 251.863281 140.589844 240.542969 143.894531 223.316406 " fill-opacity="1" fill-rule="nonzero"/></g></g></g><g clip-path="url(#e3784fada3)"><g clip-path="url(#625d8a311a)"><g clip-path="url(#8f0ffea074)"><path fill="#089d79" d="M 107.800781 209.644531 C 107.75 210.128906 107.765625 210.667969 107.851562 211.253906 C 107.933594 211.730469 108.15625 212.234375 108.503906 212.726562 C 108.910156 213.300781 109.488281 213.875 110.21875 214.433594 C 110.730469 214.824219 111.402344 215.191406 112.21875 215.53125 L 114.273438 204.828125 C 112.578125 204.742188 111.203125 205.089844 110.09375 205.875 C 108.765625 206.820312 108.011719 208.054688 107.800781 209.644531 " fill-opacity="1" fill-rule="nonzero"/></g></g></g><g clip-path="url(#099739be8e)"><g clip-path="url(#fcfae1677c)"><g clip-path="url(#93ba49cff8)"><path fill="#089d79" d="M 264.59375 212.308594 L 262.082031 225.40625 C 262.953125 225.414062 263.683594 225.324219 264.261719 225.132812 C 265.214844 224.835938 266.003906 224.4375 266.558594 223.976562 C 267.085938 223.519531 267.507812 223.011719 267.789062 222.492188 C 268.175781 221.789062 268.289062 221.394531 268.324219 221.222656 L 268.332031 221.1875 C 268.871094 218.667969 268.722656 216.65625 267.882812 215.207031 C 267.234375 214.097656 266.148438 213.136719 264.59375 212.308594 " fill-opacity="1" fill-rule="nonzero"/></g></g></g><g clip-path="url(#94faebbfac)"><g clip-path="url(#9360f5bb0b)"><g clip-path="url(#40cba9e836)"><path fill="#089d79" d="M 254.164062 197.453125 C 254.09375 198.105469 254.117188 198.835938 254.226562 199.621094 C 254.339844 200.257812 254.640625 200.941406 255.109375 201.605469 C 255.65625 202.375 256.429688 203.148438 257.414062 203.894531 C 258.105469 204.421875 259.007812 204.917969 260.105469 205.371094 L 262.867188 190.976562 C 260.585938 190.863281 258.738281 191.328125 257.25 192.382812 C 255.457031 193.65625 254.445312 195.316406 254.164062 197.453125 " fill-opacity="1" fill-rule="nonzero"/></g></g></g><g clip-path="url(#8a9df186dc)"><g clip-path="url(#ffba70b9e5)"><g clip-path="url(#2fca8b0d41)"><path fill="#089d79" d="M 268.964844 228.285156 C 267.003906 229.757812 264.382812 230.417969 261.152344 230.257812 L 260.8125 232.03125 C 260.636719 232.941406 260.128906 233.644531 259.378906 234.011719 C 258.71875 234.332031 258.058594 234.433594 257.410156 234.308594 C 256.757812 234.183594 256.1875 233.839844 255.722656 233.289062 C 255.351562 232.796875 255.007812 232.054688 255.214844 230.957031 L 255.542969 229.261719 C 252.332031 228.34375 249.640625 226.886719 247.527344 224.902344 C 245 222.539062 243.726562 219.527344 243.746094 215.964844 C 243.710938 214.921875 244.238281 214.335938 244.554688 214.082031 C 244.941406 213.777344 245.589844 213.460938 246.652344 213.734375 C 248.292969 214.074219 248.839844 215.3125 248.769531 216.347656 C 248.847656 218.082031 249.574219 219.761719 251 221.339844 C 252.199219 222.660156 254.035156 223.695312 256.46875 224.429688 L 259.160156 210.320312 C 255.789062 209.207031 253.25 207.566406 251.496094 205.402344 C 249.535156 202.9375 248.679688 200.023438 248.949219 196.734375 C 249.109375 194.953125 249.671875 193.296875 250.621094 191.792969 C 251.570312 190.324219 252.773438 189.125 254.207031 188.210938 C 255.609375 187.285156 257.269531 186.660156 259.253906 186.316406 C 260.699219 186.066406 262.21875 186.011719 263.792969 186.140625 L 264.15625 184.242188 C 264.308594 183.445312 264.726562 182.792969 265.359375 182.367188 C 266.875 181.515625 268.207031 181.886719 269.164062 182.949219 C 269.742188 183.683594 269.921875 184.476562 269.761719 185.316406 L 269.34375 187.519531 C 271.808594 188.53125 273.765625 190.078125 275.175781 192.136719 C 276.863281 194.574219 277.429688 197.535156 276.859375 200.929688 L 276.832031 201.089844 L 276.769531 201.246094 C 276.25 202.539062 275.207031 203.261719 273.992188 203.183594 C 272.792969 203.082031 271.679688 202.207031 271.8125 200.472656 C 271.898438 199.691406 271.886719 198.871094 271.769531 197.910156 C 271.652344 197.082031 271.386719 196.277344 270.988281 195.546875 C 270.542969 194.722656 269.972656 193.96875 269.292969 193.296875 C 269.019531 193.023438 268.714844 192.777344 268.375 192.554688 L 265.558594 207.269531 C 267.429688 208.082031 268.902344 209.011719 270.03125 210.078125 C 271.359375 211.320312 272.332031 212.667969 272.914062 214.070312 C 273.476562 215.476562 273.753906 216.925781 273.734375 218.382812 C 273.734375 219.816406 273.554688 221.109375 273.183594 222.316406 C 272.582031 224.605469 271.15625 226.632812 268.964844 228.285156 Z M 268.699219 165.769531 C 245.507812 161.324219 223.027344 176.554688 218.585938 199.714844 C 214.144531 222.882812 229.402344 245.34375 252.589844 249.789062 C 275.777344 254.234375 298.257812 239.007812 302.699219 215.839844 C 307.140625 192.679688 291.882812 170.214844 268.699219 165.769531 " fill-opacity="1" fill-rule="nonzero"/></g></g></g><g clip-path="url(#7871e4f1fa)"><g clip-path="url(#43961c1741)"><g clip-path="url(#db308cc8f1)"><path fill="#089d79" d="M 63.515625 126.890625 C 53.929688 125.054688 44.632812 131.351562 42.796875 140.929688 C 40.960938 150.507812 47.269531 159.796875 56.855469 161.636719 C 66.449219 163.472656 75.742188 157.175781 77.578125 147.59375 C 79.414062 138.019531 73.109375 128.730469 63.515625 126.890625 " fill-opacity="1" fill-rule="nonzero"/></g></g></g><g clip-path="url(#43324a2da7)"><g clip-path="url(#28a1f651d2)"><g clip-path="url(#4ecea16118)"><path fill="#089d79" d="M 274.386719 260.140625 C 264.796875 258.300781 255.503906 264.601562 253.667969 274.175781 C 251.832031 283.757812 258.136719 293.046875 267.726562 294.886719 C 277.316406 296.722656 286.613281 290.425781 288.449219 280.84375 C 290.285156 271.269531 283.976562 261.976562 274.386719 260.140625 " fill-opacity="1" fill-rule="nonzero"/></g></g></g><g clip-path="url(#77d0e30600)"><g clip-path="url(#3c044835bf)"><g clip-path="url(#0d1db0758a)"><path fill="#089d79" d="M 355.710938 165.660156 C 355.453125 164.613281 329.042969 60.527344 216.128906 38.882812 C 103.207031 17.234375 40.1875 104.175781 39.5625 105.054688 C 38.09375 107.117188 38.324219 109.925781 40.089844 111.726562 C 41.875 113.535156 44.671875 113.804688 46.765625 112.394531 C 71.027344 95.96875 104.089844 123.996094 104.417969 124.300781 C 106.207031 125.808594 108.820312 126.007812 110.773438 124.667969 C 133.515625 109.269531 160.777344 134.761719 161.050781 135.011719 C 163.058594 136.902344 166.207031 136.96875 168.230469 135.058594 C 174.835938 128.910156 184.421875 127.484375 191.183594 127.339844 L 168.660156 244.84375 C 166.773438 246.347656 165.3125 248.40625 164.824219 250.960938 L 156.289062 295.59375 C 155.964844 298.191406 153.960938 306.367188 149.226562 309.800781 C 147.734375 310.875 145.152344 312.199219 139.894531 311.191406 C 123.3125 308.011719 123.519531 299.976562 125.628906 288.980469 C 126.714844 283.308594 123 277.839844 117.320312 276.75 C 111.648438 275.660156 106.171875 279.371094 105.082031 285.039062 C 98.855469 317.523438 118.433594 328.351562 135.960938 331.710938 C 148.25 334.066406 156.71875 330.238281 161.667969 326.605469 C 174.546875 317.148438 176.84375 299.957031 176.949219 298.816406 L 185.367188 254.898438 C 185.855469 252.347656 185.265625 249.890625 184.066406 247.796875 L 206.597656 130.265625 C 212.8125 132.886719 221.171875 137.746094 225.054688 145.953125 C 225.800781 147.515625 227.210938 148.542969 228.796875 148.847656 C 229.761719 149.03125 230.785156 148.953125 231.742188 148.5625 C 232.09375 148.421875 266.757812 134.683594 282.289062 157.546875 C 283.628906 159.519531 286.101562 160.300781 288.335938 159.546875 C 288.746094 159.40625 329.773438 145.476562 346.300781 169.816406 C 347.722656 171.898438 350.421875 172.683594 352.75 171.664062 C 355.054688 170.644531 356.308594 168.121094 355.710938 165.660156 " fill-opacity="1" fill-rule="nonzero"/></g></g></g></svg>