<?xml version="1.0" encoding="UTF-8" standalone="no"?>
<!-- Created with Inkscape (http://www.inkscape.org/) -->

<svg
   width="500.00003"
   height="500.00003"
   viewBox="0 0 132.29166 132.29166"
   version="1.1"
   id="svg5"
   inkscape:version="1.2.2 (b0a84865, 2022-12-01)"
   sodipodi:docname="umbrella.svg"
   xmlns:inkscape="http://www.inkscape.org/namespaces/inkscape"
   xmlns:sodipodi="http://sodipodi.sourceforge.net/DTD/sodipodi-0.dtd"
   xmlns="http://www.w3.org/2000/svg"
   xmlns:svg="http://www.w3.org/2000/svg">
  <sodipodi:namedview
     id="namedview7"
     pagecolor="#ffffff"
     bordercolor="#000000"
     borderopacity="0.25"
     inkscape:showpageshadow="2"
     inkscape:pageopacity="0.0"
     inkscape:pagecheckerboard="0"
     inkscape:deskcolor="#d1d1d1"
     inkscape:document-units="px"
     showgrid="false"
     inkscape:zoom="2.7697033"
     inkscape:cx="99.288614"
     inkscape:cy="279.81337"
     inkscape:window-width="2560"
     inkscape:window-height="1412"
     inkscape:window-x="0"
     inkscape:window-y="28"
     inkscape:window-maximized="0"
     inkscape:current-layer="layer1" />
  <defs
     id="defs2" />
  <g
     inkscape:label="Layer 1"
     inkscape:groupmode="layer"
     id="layer1">
    <path
       style="fill:none;stroke:#000000;stroke-width:1.32291655;stroke-linejoin:round;stroke-dasharray:none;stroke-opacity:1;stroke-linecap:round;paint-order:fill markers stroke"
       d="m 33.157244,65.972935 c 0,-15.960504 11.760371,-34.721097 32.901039,-34.721097 21.140668,0 33.88107,16.940535 34.441087,34.861101 0,0 -1.060874,-7.946904 -8.417765,-7.955 -7.356895,-0.0081 -8.417766,7.919999 -8.417766,7.919999 0,0 -1.061025,-7.946904 -8.417766,-7.955 -7.356741,-0.0081 -8.327537,7.874885 -8.327537,7.874885 0,0 -1.571262,-7.905642 -8.507994,-7.909886 -6.936732,-0.0042 -8.417766,7.919999 -8.417766,7.919999 0,0 -1.761043,-7.950756 -8.417766,-7.955 -6.656723,-0.0042 -8.417766,7.919999 -8.417766,7.919999 z"
       id="path160"
       sodipodi:nodetypes="czczczczczc" />
    <circle
       style="fill:none;stroke:#000000;stroke-width:1.32292;stroke-dasharray:none;stroke-opacity:1"
       id="path1048"
       cx="66.828247"
       cy="81.748322"
       r="10.920345" />
    <path
       style="fill:none;stroke:#000000;stroke-width:1.32292;stroke-dasharray:none;stroke-opacity:1"
       d="M 66.918516,70.861287 V 65.979306"
       id="path1158"
       sodipodi:nodetypes="cc" />
    <path
       style="fill:none;stroke:#000000;stroke-width:1.32292;stroke-dasharray:none;stroke-opacity:1"
       d="m 66.957412,93.131432 c 0,0.215835 0.06814,5.461389 0.06814,5.902648 0,4.857 -3.450153,8.51418 -7.348373,8.65547 -6.81358,0.24695 -9.240291,-6.3002 -9.240291,-6.3002"
       id="path1160"
       sodipodi:nodetypes="ccsc" />
    <text
       xml:space="preserve"
       style="font-style:normal;font-variant:normal;font-weight:normal;font-stretch:normal;font-size:19.7556px;font-family:'Kohinoor Telugu';-inkscape-font-specification:'Kohinoor Telugu';fill:none;stroke:#000000;stroke-width:0.529167;stroke-dasharray:none;stroke-opacity:1"
       x="61.886665"
       y="88.544502"
       id="text1274"><tspan
         sodipodi:role="line"
         id="tspan1272"
         style="font-style:normal;font-variant:normal;font-weight:normal;font-stretch:normal;font-size:19.7556px;font-family:'Kohinoor Telugu';-inkscape-font-specification:'Kohinoor Telugu';fill:#000000;fill-opacity:1;stroke:none;stroke-width:0.529167"
         x="61.886665"
         y="88.544502">$</tspan></text>
    <path
       style="fill:none;fill-opacity:1;stroke:#000000;stroke-width:1.09974;stroke-linejoin:round;stroke-dasharray:none;stroke-opacity:1"
       d="M 66.94244,30.739215 V 26.459862"
       id="path1457" />
  </g>
</svg>
