<?xml version="1.0" encoding="UTF-8"?>
<svg width="649px" height="190px" viewBox="0 0 649 190" version="1.1" xmlns="http://www.w3.org/2000/svg" xmlns:xlink="http://www.w3.org/1999/xlink">
    <title>Artboard</title>
    <defs>
        <polygon id="path-1" points="-3.55271368e-15 0 167.768 0 167.768 167.7677 -3.55271368e-15 167.7677"></polygon>
    </defs>
    <g id="Artboard" stroke="none" stroke-width="1" fill="none" fill-rule="evenodd">
        <g id="Group-82" transform="translate(13.000000, 12.000000)">
            <path d="M459.2822,87.4816 C458.6732,86.8256 457.8282,86.4386 456.9342,86.4056 C456.0392,86.3726 455.1682,86.6956 454.5122,87.3056 C450.5032,91.0076 445.2392,93.0516 439.7812,93.0246 C431.9762,93.0246 424.7632,88.8606 420.8622,82.1006 C416.9592,75.3416 416.9592,67.0136 420.8622,60.2526 C424.7642,53.4936 431.9772,49.3296 439.7812,49.3296 C445.2392,49.3016 450.5032,51.3456 454.5122,55.0476 C455.1682,55.6566 456.0392,55.9796 456.9342,55.9466 C457.8282,55.9136 458.6732,55.5266 459.2822,54.8706 C459.8912,54.2146 460.2152,53.3436 460.1822,52.4496 C460.1492,51.5546 459.7612,50.7096 459.1062,50.1006 C453.8492,45.2376 446.9432,42.5486 439.7812,42.5783517 C432.1972,42.5783517 424.9222,45.5916 419.5592,50.9546 C414.1962,56.3186 411.1832,63.5916 411.1832,71.1766 C411.1832,78.7616 414.1962,86.0356 419.5592,91.3986 C424.9222,96.7616 432.1972,99.7748322 439.7812,99.7748322 C446.9432,99.8036 453.8492,97.1156 459.1062,92.2516 C459.7632,91.6436 460.1522,90.7976 460.1852,89.9026 C460.2182,89.0076 459.8932,88.1366 459.2822,87.4806 L459.2822,87.4816 Z" id="Fill-1" fill="#183058"></path>
            <path d="M459.2822,87.4816 C458.6732,86.8256 457.8282,86.4386 456.9342,86.4056 C456.0392,86.3726 455.1682,86.6956 454.5122,87.3056 C450.5032,91.0076 445.2392,93.0516 439.7812,93.0246 C431.9762,93.0246 424.7632,88.8606 420.8622,82.1006 C416.9592,75.3416 416.9592,67.0136 420.8622,60.2526 C424.7642,53.4936 431.9772,49.3296 439.7812,49.3296 C445.2392,49.3016 450.5032,51.3456 454.5122,55.0476 C455.1682,55.6566 456.0392,55.9796 456.9342,55.9466 C457.8282,55.9136 458.6732,55.5266 459.2822,54.8706 C459.8912,54.2146 460.2152,53.3436 460.1822,52.4496 C460.1492,51.5546 459.7612,50.7096 459.1062,50.1006 C453.8492,45.2376 446.9432,42.5486 439.7812,42.5783517 C432.1972,42.5783517 424.9222,45.5916 419.5592,50.9546 C414.1962,56.3186 411.1832,63.5916 411.1832,71.1766 C411.1832,78.7616 414.1962,86.0356 419.5592,91.3986 C424.9222,96.7616 432.1972,99.7748322 439.7812,99.7748322 C446.9432,99.8036 453.8492,97.1156 459.1062,92.2516 C459.7632,91.6436 460.1522,90.7976 460.1852,89.9026 C460.2182,89.0076 459.8932,88.1366 459.2822,87.4806 L459.2822,87.4816 Z" id="Stroke-3" stroke="#183058"></path>
            <path d="M465.9147,15.7894 L465.9147,95.3444 C465.9147,96.4464 466.5577,97.4664 467.6027,98.0174 C468.6467,98.5694 469.9337,98.5694 470.9777,98.0174 C472.0227,97.4664 472.6657,96.4474 472.6657,95.3444 L472.6657,15.7894 C472.6657,14.6864 472.0227,13.6674 470.9777,13.1154 C469.9337,12.5644 468.6467,12.5644 467.6027,13.1154 C466.5577,13.6674 465.9147,14.6864 465.9147,15.7894" id="Fill-5" fill="#183058"></path>
            <path d="M465.9147,15.7894 L465.9147,95.3444 C465.9147,96.4464 466.5577,97.4664 467.6027,98.0174 C468.6467,98.5694 469.9337,98.5694 470.9777,98.0174 C472.0227,97.4664 472.6657,96.4474 472.6657,95.3444 L472.6657,15.7894 C472.6657,14.6864 472.0227,13.6674 470.9777,13.1154 C469.9337,12.5644 468.6467,12.5644 467.6027,13.1154 C466.5577,13.6674 465.9147,14.6864 465.9147,15.7894 Z" id="Stroke-7" stroke="#183058"></path>
            <path d="M535.5476,87.4816 C534.9386,86.8256 534.0936,86.4386 533.1996,86.4056 C532.3046,86.3726 531.4336,86.6956 530.7776,87.3056 C526.7686,91.0076 521.5046,93.0516 516.0466,93.0246 C508.2416,93.0246 501.0286,88.8606 497.1276,82.1006 C493.2246,75.3416 493.2246,67.0136 497.1276,60.2526 C501.0296,53.4936 508.2426,49.3296 516.0466,49.3296 C521.5046,49.3016 526.7686,51.3456 530.7776,55.0476 C531.4336,55.6566 532.3046,55.9796 533.1996,55.9466 C534.0936,55.9136 534.9386,55.5266 535.5476,54.8706 C536.1566,54.2146 536.4806,53.3436 536.4476,52.4496 C536.4146,51.5546 536.0266,50.7096 535.3716,50.1006 C530.1146,45.2376 523.2086,42.5486 516.0466,42.5783517 C508.4626,42.5783517 501.1876,45.5916 495.8246,50.9546 C490.4616,56.3186 487.4486,63.5916 487.4486,71.1766 C487.4486,78.7616 490.4616,86.0356 495.8246,91.3986 C501.1876,96.7616 508.4626,99.7748322 516.0466,99.7748322 C523.2086,99.8036 530.1146,97.1156 535.3716,92.2516 C536.0286,91.6436 536.4176,90.7976 536.4506,89.9026 C536.4836,89.0076 536.1586,88.1366 535.5476,87.4806 L535.5476,87.4816 Z" id="Fill-9" fill="#183058"></path>
            <path d="M535.5476,87.4816 C534.9386,86.8256 534.0936,86.4386 533.1996,86.4056 C532.3046,86.3726 531.4336,86.6956 530.7776,87.3056 C526.7686,91.0076 521.5046,93.0516 516.0466,93.0246 C508.2416,93.0246 501.0286,88.8606 497.1276,82.1006 C493.2246,75.3416 493.2246,67.0136 497.1276,60.2526 C501.0296,53.4936 508.2426,49.3296 516.0466,49.3296 C521.5046,49.3016 526.7686,51.3456 530.7776,55.0476 C531.4336,55.6566 532.3046,55.9796 533.1996,55.9466 C534.0936,55.9136 534.9386,55.5266 535.5476,54.8706 C536.1566,54.2146 536.4806,53.3436 536.4476,52.4496 C536.4146,51.5546 536.0266,50.7096 535.3716,50.1006 C530.1146,45.2376 523.2086,42.5486 516.0466,42.5783517 C508.4626,42.5783517 501.1876,45.5916 495.8246,50.9546 C490.4616,56.3186 487.4486,63.5916 487.4486,71.1766 C487.4486,78.7616 490.4616,86.0356 495.8246,91.3986 C501.1876,96.7616 508.4626,99.7748322 516.0466,99.7748322 C523.2086,99.8036 530.1146,97.1156 535.3716,92.2516 C536.0286,91.6436 536.4176,90.7976 536.4506,89.9026 C536.4836,89.0076 536.1586,88.1366 535.5476,87.4806 L535.5476,87.4816 Z" id="Stroke-11" stroke="#183058"></path>
            <path d="M542.1801,45.666 L542.1801,95.469 C542.1801,96.571 542.8231,97.591 543.8681,98.142 C544.9121,98.694 546.1981,98.694 547.2431,98.142 C548.2881,97.591 548.9311,96.571 548.9311,95.469 L548.9311,45.666 C548.9311,44.563 548.2881,43.544 547.2431,42.992 C546.1991,42.441 544.9121,42.441 543.8681,42.992 C542.8231,43.544 542.1801,44.563 542.1801,45.666" id="Fill-13" fill="#183058"></path>
            <path d="M542.1801,45.666 L542.1801,95.469 C542.1801,96.571 542.8231,97.591 543.8681,98.142 C544.9121,98.694 546.1981,98.694 547.2431,98.142 C548.2881,97.591 548.9311,96.571 548.9311,95.469 L548.9311,45.666 C548.9311,44.563 548.2881,43.544 547.2431,42.992 C546.1991,42.441 544.9121,42.441 543.8681,42.992 C542.8231,43.544 542.1801,44.563 542.1801,45.666 Z" id="Stroke-15" stroke="#183058"></path>
            <path d="M214.6653,55.9089 C215.2743,56.5649 216.1193,56.9519 217.0133,56.9849 C217.9083,57.0179 218.7793,56.6949 219.4353,56.0849 C223.4443,52.3829 228.7083,50.3389 234.1663,50.3659 C241.9713,50.3659 249.1843,54.5299 253.0853,61.2899 C256.9883,68.0489 256.9883,76.3769 253.0853,83.1379 C249.1833,89.8969 241.9703,94.0609 234.1663,94.0609 C228.7083,94.0889 223.4443,92.0449 219.4353,88.3429 C218.7793,87.7339 217.9083,87.4109 217.0133,87.4439 C216.1193,87.4769 215.2743,87.8639 214.6653,88.5199 C214.0563,89.1759 213.7323,90.0469 213.7653,90.9409 C213.7983,91.8359 214.1863,92.6809 214.8413,93.2899 C220.0983,98.1529 227.0043,100.8419 234.1663,100.812148 C241.7503,100.812148 249.0253,97.7989 254.3883,92.4359 C259.7513,87.0719 262.7643,79.7989 262.7643,72.2139 C262.7643,64.6289 259.7513,57.3549 254.3883,51.9919 C249.0253,46.6289 241.7503,43.6156678 234.1663,43.6156678 C227.0043,43.5869 220.0983,46.2749 214.8413,51.1389 C214.1843,51.7469 213.7953,52.5929 213.7623,53.4879 C213.7293,54.3829 214.0543,55.2539 214.6653,55.9099 L214.6653,55.9089 Z" id="Fill-17" fill="#183058"></path>
            <path d="M214.6653,55.9089 C215.2743,56.5649 216.1193,56.9519 217.0133,56.9849 C217.9083,57.0179 218.7793,56.6949 219.4353,56.0849 C223.4443,52.3829 228.7083,50.3389 234.1663,50.3659 C241.9713,50.3659 249.1843,54.5299 253.0853,61.2899 C256.9883,68.0489 256.9883,76.3769 253.0853,83.1379 C249.1833,89.8969 241.9703,94.0609 234.1663,94.0609 C228.7083,94.0889 223.4443,92.0449 219.4353,88.3429 C218.7793,87.7339 217.9083,87.4109 217.0133,87.4439 C216.1193,87.4769 215.2743,87.8639 214.6653,88.5199 C214.0563,89.1759 213.7323,90.0469 213.7653,90.9409 C213.7983,91.8359 214.1863,92.6809 214.8413,93.2899 C220.0983,98.1529 227.0043,100.8419 234.1663,100.812148 C241.7503,100.812148 249.0253,97.7989 254.3883,92.4359 C259.7513,87.0719 262.7643,79.7989 262.7643,72.2139 C262.7643,64.6289 259.7513,57.3549 254.3883,51.9919 C249.0253,46.6289 241.7503,43.6156678 234.1663,43.6156678 C227.0043,43.5869 220.0983,46.2749 214.8413,51.1389 C214.1843,51.7469 213.7953,52.5929 213.7623,53.4879 C213.7293,54.3829 214.0543,55.2539 214.6653,55.9099 L214.6653,55.9089 Z" id="Stroke-19" stroke="#183058"></path>
            <path d="M208.0328,116.6011 L208.0328,48.0461 C208.0328,46.9441 207.3898,45.9241 206.3448,45.3731 C205.3008,44.8211 204.0138,44.8211 202.9698,45.3731 C201.9248,45.9241 201.2818,46.9431 201.2818,48.0461 L201.2818,116.6011 C201.2818,117.7041 201.9248,118.7231 202.9698,119.2751 C204.0138,119.8261 205.3008,119.8261 206.3448,119.2751 C207.3898,118.7231 208.0328,117.7041 208.0328,116.6011" id="Fill-21" fill="#183058"></path>
            <path d="M208.0328,116.6011 L208.0328,48.0461 C208.0328,46.9441 207.3898,45.9241 206.3448,45.3731 C205.3008,44.8211 204.0138,44.8211 202.9698,45.3731 C201.9248,45.9241 201.2818,46.9431 201.2818,48.0461 L201.2818,116.6011 C201.2818,117.7041 201.9248,118.7231 202.9698,119.2751 C204.0138,119.8261 205.3008,119.8261 206.3448,119.2751 C207.3898,118.7231 208.0328,117.7041 208.0328,116.6011 Z" id="Stroke-23" stroke="#183058"></path>
            <path d="M321.872,87.4816 C321.263,86.8256 320.418,86.4386 319.524,86.4056 C318.629,86.3726 317.758,86.6956 317.102,87.3056 C313.093,91.0076 307.829,93.0516 302.371,93.0246 C294.566,93.0246 287.353,88.8606 283.452,82.1006 C279.549,75.3416 279.549,67.0136 283.452,60.2526 C287.354,53.4936 294.567,49.3296 302.371,49.3296 C307.829,49.3016 313.093,51.3456 317.102,55.0476 C317.758,55.6566 318.629,55.9796 319.524,55.9466 C320.418,55.9136 321.263,55.5266 321.872,54.8706 C322.481,54.2146 322.805,53.3436 322.772,52.4496 C322.739,51.5546 322.351,50.7096 321.696,50.1006 C316.439,45.2376 309.533,42.5486 302.371,42.5783517 C294.787,42.5783517 287.512,45.5916 282.149,50.9546 C276.786,56.3186 273.773,63.5916 273.773,71.1766 C273.773,78.7616 276.786,86.0356 282.149,91.3986 C287.512,96.7616 294.787,99.7748322 302.371,99.7748322 C309.533,99.8036 316.439,97.1156 321.696,92.2516 C322.353,91.6436 322.742,90.7976 322.775,89.9026 C322.808,89.0076 322.483,88.1366 321.872,87.4806 L321.872,87.4816 Z" id="Fill-25" fill="#183058"></path>
            <path d="M321.872,87.4816 C321.263,86.8256 320.418,86.4386 319.524,86.4056 C318.629,86.3726 317.758,86.6956 317.102,87.3056 C313.093,91.0076 307.829,93.0516 302.371,93.0246 C294.566,93.0246 287.353,88.8606 283.452,82.1006 C279.549,75.3416 279.549,67.0136 283.452,60.2526 C287.354,53.4936 294.567,49.3296 302.371,49.3296 C307.829,49.3016 313.093,51.3456 317.102,55.0476 C317.758,55.6566 318.629,55.9796 319.524,55.9466 C320.418,55.9136 321.263,55.5266 321.872,54.8706 C322.481,54.2146 322.805,53.3436 322.772,52.4496 C322.739,51.5546 322.351,50.7096 321.696,50.1006 C316.439,45.2376 309.533,42.5486 302.371,42.5783517 C294.787,42.5783517 287.512,45.5916 282.149,50.9546 C276.786,56.3186 273.773,63.5916 273.773,71.1766 C273.773,78.7616 276.786,86.0356 282.149,91.3986 C287.512,96.7616 294.787,99.7748322 302.371,99.7748322 C309.533,99.8036 316.439,97.1156 321.696,92.2516 C322.353,91.6436 322.742,90.7976 322.775,89.9026 C322.808,89.0076 322.483,88.1366 321.872,87.4806 L321.872,87.4816 Z" id="Stroke-27" stroke="#183058"></path>
            <path d="M328.5045,45.666 L328.5045,95.469 C328.5045,96.571 329.1475,97.591 330.1925,98.142 C331.2365,98.694 332.5235,98.694 333.5675,98.142 C334.6125,97.591 335.2555,96.571 335.2555,95.469 L335.2555,45.666 C335.2555,44.563 334.6125,43.544 333.5675,42.992 C332.5235,42.441 331.2365,42.441 330.1925,42.992 C329.1475,43.544 328.5045,44.563 328.5045,45.666" id="Fill-29" fill="#183058"></path>
            <path d="M328.5045,45.666 L328.5045,95.469 C328.5045,96.571 329.1475,97.591 330.1925,98.142 C331.2365,98.694 332.5235,98.694 333.5675,98.142 C334.6125,97.591 335.2555,96.571 335.2555,95.469 L335.2555,45.666 C335.2555,44.563 334.6125,43.544 333.5675,42.992 C332.5235,42.441 331.2365,42.441 330.1925,42.992 C329.1475,43.544 328.5045,44.563 328.5045,45.666 Z" id="Stroke-31" stroke="#183058"></path>
            <path d="M348.7832,47.1815 L365.1202,86.5105 C365.4822,87.3815 366.3242,87.9755 367.3302,88.0675 C368.3352,88.1615 369.3522,87.7395 369.9952,86.9605 C370.6402,86.1825 370.8132,85.1665 370.4512,84.2955 L354.1142,44.9665 C353.7532,44.0965 352.9102,43.5025 351.9042,43.4095 C350.8992,43.3165 349.8822,43.7385 349.2392,44.5165 C348.5952,45.2945 348.4212,46.3105 348.7832,47.1815" id="Fill-33" fill="#183058"></path>
            <path d="M348.7832,47.1815 L365.1202,86.5105 C365.4822,87.3815 366.3242,87.9755 367.3302,88.0675 C368.3352,88.1615 369.3522,87.7395 369.9952,86.9605 C370.6402,86.1825 370.8132,85.1665 370.4512,84.2955 L354.1142,44.9665 C353.7532,44.0965 352.9102,43.5025 351.9042,43.4095 C350.8992,43.3165 349.8822,43.7385 349.2392,44.5165 C348.5952,45.2945 348.4212,46.3105 348.7832,47.1815 Z" id="Stroke-35" stroke="#183058"></path>
            <path d="M397.8147,45.4014 L361.3317,115.0974 C360.8257,116.0774 360.9297,117.2784 361.6047,118.2474 C362.2797,119.2164 363.4237,119.8064 364.6047,119.795551 C365.7857,119.7844 366.8247,119.1734 367.3307,118.1934 L403.8137,48.4974 C404.3197,47.5174 404.2157,46.3164 403.5397,45.3474 C402.8647,44.3784 401.7217,43.7884 400.5407,43.7992488 C399.3597,43.8104 398.3207,44.4214 397.8147,45.4014" id="Fill-37" fill="#183058"></path>
            <path d="M397.8147,45.4014 L361.3317,115.0974 C360.8257,116.0774 360.9297,117.2784 361.6047,118.2474 C362.2797,119.2164 363.4237,119.8064 364.6047,119.795551 C365.7857,119.7844 366.8247,119.1734 367.3307,118.1934 L403.8137,48.4974 C404.3197,47.5174 404.2157,46.3164 403.5397,45.3474 C402.8647,44.3784 401.7217,43.7884 400.5407,43.7992488 C399.3597,43.8104 398.3207,44.4214 397.8147,45.4014 Z" id="Stroke-39" stroke="#183058"></path>
            <g id="Group-43" transform="translate(-0.000000, 0.000000)">
                <mask id="mask-2" fill="white">
                    <use xlink:href="#path-1"></use>
                </mask>
                <g id="Clip-42"></g>
                <path d="M27.401,10.066 L134.213,10.066 L134.213,44.737 L27.401,44.737 C21.207,44.737 15.485,41.433 12.389,36.069 C9.292,30.705 9.292,24.097 12.389,18.733 C15.485,13.369 21.208,10.065 27.401,10.065 L27.401,10.066 Z M144.279,44.737 L144.279,0 L27.401,0 C20.136,0.008 13.172,2.898 8.035,8.035 C2.898,13.172 0.008,20.137 -3.55271368e-15,27.401 L-3.55271368e-15,147.629 C0.006,152.968 2.129,158.087 5.905,161.863 C9.68,165.638 14.799,167.762 20.138,167.768 L147.629,167.768 C152.968,167.762 158.087,165.638 161.863,161.863 C165.638,158.087 167.762,152.969 167.768,147.629 L167.768,44.737 L144.279,44.737 Z" id="Fill-41" fill="#183058" mask="url(#mask-2)"></path>
            </g>
            <path d="M72.7171,83.8881 C73.0591,84.2561 73.5341,84.4741 74.0361,84.4931 C74.5391,84.5111 75.0281,84.3291 75.3971,83.9871 C77.6491,81.9071 80.6061,80.7591 83.6721,80.7741 C88.0571,80.7741 92.1091,83.1131 94.3001,86.9111 C96.4931,90.7081 96.4931,95.3871 94.3001,99.1841 C92.1081,102.9821 88.0561,105.3211 83.6721,105.3211 C80.6061,105.3371 77.6491,104.1881 75.3971,102.1081 C75.0281,101.7661 74.5391,101.5851 74.0361,101.6031 C73.5341,101.6221 73.0591,101.8391 72.7171,102.2081 C72.3751,102.5761 72.1931,103.0661 72.2121,103.5681 C72.2301,104.0711 72.4481,104.5451 72.8161,104.8871 C75.7691,107.6201 79.6491,109.1301 83.6721,109.113242 C87.9331,109.113242 92.0201,107.4211 95.0321,104.4081 C98.0451,101.3951 99.7381,97.3091 99.7381,93.0481 C99.7381,88.7871 98.0451,84.7001 95.0321,81.6881 C92.0191,78.6751 87.9331,76.9819741 83.6721,76.9819741 C79.6491,76.9661 75.7691,78.4761 72.8161,81.2091 C72.4471,81.5501 72.2281,82.0251 72.2101,82.5281 C72.1911,83.0311 72.3741,83.5201 72.7171,83.8881 Z" id="Fill-44" fill="#FEFEFE"></path>
            <path d="M69.7663,131.4151 L69.7663,83.3191 C69.7663,82.6521 69.4563,82.0361 68.9543,81.7031 C68.4513,81.3691 67.8323,81.3691 67.3303,81.7031 C66.8273,82.0361 66.5173,82.6521 66.5173,83.3191 L66.5173,131.4151 C66.5173,132.0821 66.8273,132.6981 67.3303,133.0321 C67.8323,133.3651 68.4513,133.3651 68.9543,133.0321 C69.4563,132.6981 69.7663,132.0821 69.7663,131.4151" id="Fill-46" fill="#FEFEFE"></path>
            <path d="M65.8998,77.871 C66.4608,78.475 67.2388,78.832 68.0628,78.862 C68.8868,78.893 69.6888,78.594 70.2928,78.033 C73.9848,74.624 78.8328,72.741 83.8588,72.766 C91.0468,72.766 97.6898,76.601 101.2828,82.826 C104.8768,89.051 104.8768,96.721 101.2828,102.947 C97.6888,109.172 91.0468,113.007 83.8588,113.007 C78.8328,113.033 73.9848,111.151 70.2928,107.741 C69.6888,107.18 68.8868,106.882 68.0628,106.913 C67.2388,106.943 66.4608,107.3 65.8998,107.904 C65.3388,108.508 65.0408,109.31 65.0708,110.134 C65.1018,110.958 65.4588,111.736 66.0618,112.297 C70.9038,116.776 77.2638,119.252 83.8598,119.224235 C90.8438,119.224235 97.5438,116.45 102.4828,111.51 C107.4218,106.571 110.1968,99.872 110.1968,92.887 C110.1968,85.902 107.4218,79.203 102.4828,74.264 C97.5438,69.324 90.8438,66.5487972 83.8598,66.5487972 C77.2638,66.523 70.9038,68.998 66.0618,73.478 C65.4568,74.038 65.0988,74.817 65.0688,75.641 C65.0378,76.465 65.3368,77.268 65.8998,77.872 L65.8998,77.871 Z" id="Fill-48" fill="#3DB87E"></path>
            <path d="M63.7885,143.8961 L63.7885,70.6301 C63.7885,69.6141 63.1955,68.6761 62.2345,68.1681 C61.2725,67.6601 60.0875,67.6601 59.1255,68.1681 C58.1635,68.6751 57.5715,69.6141 57.5715,70.6301 L57.5715,143.8961 C57.5715,144.9111 58.1635,145.8501 59.1255,146.3591 C60.0875,146.8661 61.2725,146.8661 62.2345,146.3591 C63.1965,145.8501 63.7885,144.9121 63.7885,143.8961" id="Fill-50" fill="#3DB87E"></path>
            <path d="M26.2082,9.664 L134.6142,9.664 L134.6142,44.852 L26.2082,44.852 C19.9222,44.852 14.1142,41.499 10.9722,36.055 C7.8282,30.611 7.8282,23.905 10.9722,18.46 C14.1142,13.017 19.9222,9.663 26.2082,9.663 L26.2082,9.664 Z" id="Fill-52" fill="#3DB87E"></path>
            <path d="M220.6906,143.4222 C222.0846,142.1452 222.7806,140.3272 222.7806,137.9662 C222.7806,132.9742 219.9166,130.4782 214.1896,130.4782 L209.0536,130.4782 C207.5946,130.4782 206.4116,131.6602 206.4116,133.1192 L206.4116,142.6962 C206.4116,144.1552 207.5946,145.3382 209.0536,145.3382 L214.1896,145.3382 C217.1306,145.3382 219.2976,144.6992 220.6906,143.4222 M224.7246,146.3532 C222.4226,148.5792 218.9106,149.6912 214.1896,149.6912 L207.5036,149.6912 C206.9006,149.6912 206.4116,150.1802 206.4116,150.7832 L206.4116,163.9412 C206.4116,165.4002 205.2296,166.5822 203.7706,166.5822 C202.3116,166.5822 201.1296,165.4002 201.1296,163.9412 L201.1296,128.7662 C201.1296,127.3072 202.3116,126.1252 203.7706,126.1252 L214.1896,126.1252 C218.7556,126.1252 222.2286,127.2272 224.6086,129.4332 C226.9886,131.6392 228.1786,134.4832 228.1786,137.9662 C228.1786,141.3322 227.0266,144.1292 224.7246,146.3532" id="Fill-54" fill="#3DB87E"></path>
            <path d="M246.8116,143.1608 C246.8116,144.6198 247.9946,145.8018 249.4526,145.8018 L254.5896,145.8018 C257.4526,145.8018 259.6006,145.0968 261.0326,143.6838 C262.4636,142.2718 263.1796,140.3848 263.1796,138.0238 C263.1796,135.6248 262.4736,133.7678 261.0616,132.4518 C259.6486,131.1368 257.4916,130.4778 254.5896,130.4778 L249.4526,130.4778 C247.9946,130.4778 246.8116,131.6608 246.8116,133.1188 L246.8116,143.1608 Z M262.0676,165.2708 L253.9606,151.3518 C253.4876,150.5398 252.6186,150.0398 251.6786,150.0398 L249.4526,150.0398 C247.9946,150.0398 246.8116,151.2218 246.8116,152.6808 L246.8116,163.9408 C246.8116,165.3998 245.6286,166.5828 244.1706,166.5828 C242.7116,166.5828 241.5296,165.3998 241.5296,163.9408 L241.5296,128.7658 C241.5296,127.3078 242.7116,126.1248 244.1706,126.1248 L254.5896,126.1248 C257.6466,126.1248 260.2296,126.6478 262.3386,127.6918 C264.4476,128.7368 266.0246,130.1498 267.0696,131.9298 C268.1146,133.7098 268.6366,135.7418 268.6366,138.0238 C268.6366,140.8108 267.8326,143.2688 266.2276,145.3958 C264.8546,147.2158 262.8946,148.5118 260.3486,149.2848 C259.6796,149.4878 259.3816,150.2688 259.7416,150.8688 L266.7626,162.5838 C267.8176,164.3438 266.5496,166.5828 264.4966,166.5828 L264.3496,166.5828 C263.4096,166.5828 262.5406,166.0828 262.0676,165.2708 L262.0676,165.2708 Z" id="Fill-56" fill="#3DB87E"></path>
            <path d="M309.5871,160.4297 C311.8501,159.1147 313.6301,157.2377 314.9271,154.7997 C316.2231,152.3617 316.8721,149.5367 316.8721,146.3247 C316.8721,143.0737 316.2231,140.2397 314.9271,137.8217 C313.6301,135.4027 311.8601,133.5357 309.6161,132.2197 C307.3711,130.9047 304.8181,130.2457 301.9541,130.2457 C299.0901,130.2457 296.5361,130.9047 294.2921,132.2197 C292.0481,133.5357 290.2771,135.4027 288.9811,137.8217 C287.6841,140.2397 287.0361,143.0737 287.0361,146.3247 C287.0361,149.5367 287.6841,152.3617 288.9811,154.7997 C290.2771,157.2377 292.0581,159.1147 294.3211,160.4297 C296.5851,161.7457 299.1291,162.4037 301.9541,162.4037 C304.7791,162.4037 307.3241,161.7457 309.5871,160.4297 M291.6801,164.3477 C288.5831,162.5867 286.1371,160.1297 284.3381,156.9757 C282.5381,153.8227 281.6381,150.2717 281.6381,146.3247 C281.6381,142.3777 282.5381,138.8277 284.3381,135.6737 C286.1371,132.5197 288.5831,130.0627 291.6801,128.3017 C294.7761,126.5407 298.2001,125.6607 301.9541,125.6607 C305.7461,125.6607 309.1901,126.5407 312.2861,128.3017 C315.3821,130.0627 317.8201,132.5097 319.6001,135.6447 C321.3791,138.7787 322.2701,142.3397 322.2701,146.3247 C322.2701,150.3107 321.3791,153.8707 319.6001,157.0047 C317.8201,160.1397 315.3821,162.5867 312.2861,164.3477 C309.1901,166.1087 305.7461,166.9887 301.9541,166.9887 C298.2001,166.9887 294.7761,166.1087 291.6801,164.3477" id="Fill-58" fill="#3DB87E"></path>
            <path d="M360.928,128.2727 L360.928,128.2727 C360.928,129.4587 359.966,130.4207 358.78,130.4207 L352.048,130.4207 C350.861,130.4207 349.9,131.3817 349.9,132.5677 L349.9,164.4347 C349.9,165.6207 348.938,166.5827 347.752,166.5827 L346.765,166.5827 C345.579,166.5827 344.617,165.6207 344.617,164.4347 L344.617,132.5677 C344.617,131.3817 343.656,130.4207 342.47,130.4207 L335.678,130.4207 C334.492,130.4207 333.531,129.4587 333.531,128.2727 L333.531,128.2727 C333.531,127.0867 334.492,126.1247 335.678,126.1247 L358.78,126.1247 C359.966,126.1247 360.928,127.0867 360.928,128.2727" id="Fill-60" fill="#3DB87E"></path>
            <path d="M379.5011,132.5971 L379.5011,141.7681 C379.5011,142.9701 380.4761,143.9441 381.6781,143.9441 L392.0671,143.9441 C393.2691,143.9441 394.2441,144.9191 394.2441,146.1211 L394.2441,146.1211 C394.2441,147.3231 393.2691,148.2981 392.0671,148.2981 L381.6781,148.2981 C380.4761,148.2981 379.5011,149.2731 379.5011,150.4751 L379.5011,160.0521 C379.5011,161.2541 380.4761,162.2291 381.6781,162.2291 L393.8091,162.2291 C395.0111,162.2291 395.9861,163.2031 395.9861,164.4061 L395.9861,164.4061 C395.9861,165.6081 395.0111,166.5821 393.8091,166.5821 L376.3951,166.5821 C375.1931,166.5821 374.2191,165.6081 374.2191,164.4061 L374.2191,128.2431 C374.2191,127.0411 375.1931,126.0671 376.3951,126.0671 L393.8091,126.0671 C395.0111,126.0671 395.9861,127.0411 395.9861,128.2431 L395.9861,128.2431 C395.9861,129.4461 395.0111,130.4201 393.8091,130.4201 L381.6781,130.4201 C380.4761,130.4201 379.5011,131.3951 379.5011,132.5971" id="Fill-62" fill="#3DB87E"></path>
            <path d="M411.4831,135.6735 C413.2631,132.5195 415.6911,130.0525 418.7681,128.2725 C421.8441,126.4935 425.2581,125.6025 429.0121,125.6025 C433.4241,125.6025 437.2741,126.6665 440.5631,128.7955 C442.4691,130.0285 444.0761,131.5605 445.3841,133.3905 C446.7181,135.2565 445.4351,137.8495 443.1411,137.8495 L443.1091,137.8495 C442.1191,137.8495 441.2141,137.3165 440.7081,136.4655 C439.6511,134.6895 438.2781,133.2745 436.5881,132.2195 C434.4781,130.9045 431.9531,130.2455 429.0121,130.2455 C426.1881,130.2455 423.6531,130.9045 421.4091,132.2195 C419.1641,133.5355 417.4041,135.4025 416.1261,137.8215 C414.8501,140.2395 414.2111,143.0735 414.2111,146.3245 C414.2111,149.5365 414.8501,152.3525 416.1261,154.7695 C417.4041,157.1885 419.1641,159.0565 421.4091,160.3715 C423.6531,161.6875 426.1881,162.3455 429.0121,162.3455 C431.9531,162.3455 434.4781,161.6975 436.5881,160.4005 C438.2781,159.3615 439.6521,157.9555 440.7081,156.1825 C441.2141,155.3325 442.1191,154.7995 443.1081,154.7995 L443.1081,154.7995 C445.4081,154.7995 446.6981,157.4105 445.3451,159.2695 C444.0431,161.0585 442.4491,162.5575 440.5631,163.7675 C437.2741,165.8765 433.4241,166.9305 429.0121,166.9305 C425.2581,166.9305 421.8441,166.0505 418.7681,164.2895 C415.6911,162.5295 413.2631,160.0815 411.4831,156.9465 C409.7021,153.8125 408.8131,150.2715 408.8131,146.3245 C408.8131,142.3775 409.7021,138.8275 411.4831,135.6735" id="Fill-64" fill="#3DB87E"></path>
            <path d="M487.2893,128.2727 L487.2893,128.2727 C487.2893,129.4587 486.3273,130.4207 485.1413,130.4207 L478.4093,130.4207 C477.2223,130.4207 476.2613,131.3817 476.2613,132.5677 L476.2613,164.4347 C476.2613,165.6207 475.2993,166.5827 474.1133,166.5827 L473.1263,166.5827 C471.9403,166.5827 470.9783,165.6207 470.9783,164.4347 L470.9783,132.5677 C470.9783,131.3817 470.0173,130.4207 468.8313,130.4207 L462.0393,130.4207 C460.8533,130.4207 459.8923,129.4587 459.8923,128.2727 L459.8923,128.2727 C459.8923,127.0867 460.8533,126.1247 462.0393,126.1247 L485.1413,126.1247 C486.3273,126.1247 487.2893,127.0867 487.2893,128.2727" id="Fill-66" fill="#3DB87E"></path>
            <path d="M505.8634,128.7663 L505.8634,163.9413 C505.8634,165.4003 504.6804,166.5823 503.2224,166.5823 L503.2224,166.5823 C501.7634,166.5823 500.5814,165.4003 500.5814,163.9413 L500.5814,128.7663 C500.5814,127.3073 501.7634,126.1253 503.2224,126.1253 L503.2224,126.1253 C504.6804,126.1253 505.8634,127.3073 505.8634,128.7663" id="Fill-68" fill="#3DB87E"></path>
            <path d="M547.6264,160.4297 C549.8894,159.1147 551.6694,157.2377 552.9664,154.7997 C554.2624,152.3617 554.9114,149.5367 554.9114,146.3247 C554.9114,143.0737 554.2624,140.2397 552.9664,137.8217 C551.6694,135.4027 549.8994,133.5357 547.6554,132.2197 C545.4104,130.9047 542.8574,130.2457 539.9934,130.2457 C537.1294,130.2457 534.5754,130.9047 532.3314,132.2197 C530.0874,133.5357 528.3164,135.4027 527.0204,137.8217 C525.7234,140.2397 525.0754,143.0737 525.0754,146.3247 C525.0754,149.5367 525.7234,152.3617 527.0204,154.7997 C528.3164,157.2377 530.0974,159.1147 532.3604,160.4297 C534.6244,161.7457 537.1684,162.4037 539.9934,162.4037 C542.8184,162.4037 545.3634,161.7457 547.6264,160.4297 M529.7194,164.3477 C526.6224,162.5867 524.1764,160.1297 522.3774,156.9757 C520.5774,153.8227 519.6774,150.2717 519.6774,146.3247 C519.6774,142.3777 520.5774,138.8277 522.3774,135.6737 C524.1764,132.5197 526.6224,130.0627 529.7194,128.3017 C532.8154,126.5407 536.2394,125.6607 539.9934,125.6607 C543.7854,125.6607 547.2294,126.5407 550.3254,128.3017 C553.4214,130.0627 555.8594,132.5097 557.6394,135.6447 C559.4184,138.7787 560.3094,142.3397 560.3094,146.3247 C560.3094,150.3107 559.4184,153.8707 557.6394,157.0047 C555.8594,160.1397 553.4214,162.5867 550.3254,164.3477 C547.2294,166.1087 543.7854,166.9887 539.9934,166.9887 C536.2394,166.9887 532.8154,166.1087 529.7194,164.3477" id="Fill-70" fill="#3DB87E"></path>
            <path d="M603.2338,166.5824 L602.0148,166.5824 C601.1268,166.5824 600.2988,166.1364 599.8098,165.3954 L581.1608,137.1154 C580.6208,136.2974 579.3488,136.6794 579.3488,137.6594 L579.3488,163.9414 C579.3488,165.3994 578.1658,166.5824 576.7068,166.5824 C575.2488,166.5824 574.0658,165.3994 574.0658,163.9414 L574.0658,128.7084 C574.0658,127.2494 575.2488,126.0664 576.7068,126.0664 L577.9278,126.0664 C578.8148,126.0664 579.6428,126.5124 580.1318,127.2524 L598.8938,155.6524 C599.3998,156.4184 600.5928,156.0594 600.5928,155.1414 L600.5928,128.7084 C600.5928,127.2494 601.7748,126.0664 603.2338,126.0664 C604.6928,126.0664 605.8748,127.2494 605.8748,128.7084 L605.8748,163.9414 C605.8748,165.3994 604.6928,166.5824 603.2338,166.5824" id="Fill-72" fill="#3DB87E"></path>
            <path d="M563.1445,47.1815 L579.4815,86.5105 C579.8435,87.3815 580.6855,87.9755 581.6915,88.0675 C582.6965,88.1615 583.7135,87.7395 584.3565,86.9605 C585.0015,86.1825 585.1745,85.1665 584.8125,84.2955 L568.4755,44.9665 C568.1145,44.0965 567.2715,43.5025 566.2655,43.4095 C565.2595,43.3165 564.2435,43.7385 563.6005,44.5165 C562.9565,45.2945 562.7825,46.3105 563.1445,47.1815" id="Fill-74" fill="#183058"></path>
            <path d="M563.1445,47.1815 L579.4815,86.5105 C579.8435,87.3815 580.6855,87.9755 581.6915,88.0675 C582.6965,88.1615 583.7135,87.7395 584.3565,86.9605 C585.0015,86.1825 585.1745,85.1665 584.8125,84.2955 L568.4755,44.9665 C568.1145,44.0965 567.2715,43.5025 566.2655,43.4095 C565.2595,43.3165 564.2435,43.7385 563.6005,44.5165 C562.9565,45.2945 562.7825,46.3105 563.1445,47.1815 Z" id="Stroke-76" stroke="#183058"></path>
            <path d="M612.176,45.4014 L575.693,115.0974 C575.187,116.0774 575.291,117.2784 575.966,118.2474 C576.641,119.2164 577.785,119.8064 578.966,119.795551 C580.147,119.7844 581.186,119.1734 581.692,118.1934 L618.175,48.4974 C618.681,47.5174 618.577,46.3164 617.901,45.3474 C617.226,44.3784 616.083,43.7884 614.902,43.7992488 C613.721,43.8104 612.682,44.4214 612.176,45.4014" id="Fill-78" fill="#183058"></path>
            <path d="M612.176,45.4014 L575.693,115.0974 C575.187,116.0774 575.291,117.2784 575.966,118.2474 C576.641,119.2164 577.785,119.8064 578.966,119.795551 C580.147,119.7844 581.186,119.1734 581.692,118.1934 L618.175,48.4974 C618.681,47.5174 618.577,46.3164 617.901,45.3474 C617.226,44.3784 616.083,43.7884 614.902,43.7992488 C613.721,43.8104 612.682,44.4214 612.176,45.4014 Z" id="Stroke-80" stroke="#183058"></path>
        </g>
    </g>
</svg>