<?xml version="1.0" encoding="UTF-8"?>
<svg width="355px" height="355px" viewBox="0 0 355 355" version="1.1" xmlns="http://www.w3.org/2000/svg" xmlns:xlink="http://www.w3.org/1999/xlink">
    <title>Artboard</title>
    <defs>
        <polygon id="path-1" points="0 0 354.703 0 354.703 354.703 0 354.703"></polygon>
    </defs>
    <g id="Artboard" stroke="none" stroke-width="1" fill="none" fill-rule="evenodd">
        <g id="Group-14" transform="translate(0.000000, -0.000000)">
            <g id="Group-3">
                <mask id="mask-2" fill="white">
                    <use xlink:href="#path-1"></use>
                </mask>
                <g id="Clip-2"></g>
                <path d="M57.9327,21.282 L283.7597,21.282 L283.7597,94.584 L57.9327,94.584 C44.8377,94.584 32.7387,87.599 26.1927,76.258 C19.6447,64.918 19.6447,50.947 26.1927,39.605 C32.7397,28.266 44.8387,21.28 57.9327,21.28 L57.9327,21.282 Z M305.0427,94.584 L305.0427,0 L57.9327,0 C42.5727,0.017 27.8477,6.126 16.9877,16.988 C6.1267,27.848 0.0177,42.574 -0.0003,57.933 L-0.0003,312.124 C0.0127,323.413 4.5017,334.236 12.4837,342.218 C20.4657,350.2 31.2877,354.69 42.5777,354.703 L312.1247,354.703 C323.4137,354.69 334.2357,350.2 342.2187,342.218 C350.2007,334.236 354.6907,323.414 354.7037,312.124 L354.7037,94.585 L305.0427,94.584 Z" id="Fill-1" fill="#183058" mask="url(#mask-2)"></path>
            </g>
            <path d="M153.7424,177.3605 C154.4654,178.1395 155.4694,178.5995 156.5314,178.6385 C157.5944,178.6775 158.6294,178.2935 159.4084,177.5695 C164.1694,173.1725 170.4224,170.7445 176.9044,170.7765 C186.1744,170.7765 194.7414,175.7225 199.3754,183.7515 C204.0104,191.7795 204.0104,201.6715 199.3754,209.7005 C194.7404,217.7295 186.1734,222.6755 176.9044,222.6755 C170.4224,222.7085 164.1694,220.2805 159.4084,215.8835 C158.6294,215.1595 157.5944,214.7755 156.5314,214.8155 C155.4694,214.8545 154.4654,215.3135 153.7424,216.0935 C153.0184,216.8725 152.6344,217.9065 152.6734,218.9695 C152.7134,220.0315 153.1734,221.0355 153.9514,221.7585 C160.1954,227.5355 168.3974,230.7285 176.9044,230.692801 C185.9124,230.692801 194.5524,227.1145 200.9224,220.7445 C207.2924,214.3745 210.8704,205.7345 210.8704,196.7265 C210.8704,187.7175 207.2924,179.0775 200.9224,172.7085 C194.5524,166.3385 185.9124,162.759215 176.9044,162.759215 C168.3984,162.7245 160.1954,165.9175 153.9514,171.6955 C153.1714,172.4175 152.7094,173.4215 152.6704,174.4845 C152.6314,175.5475 153.0164,176.5825 153.7424,177.3615 L153.7424,177.3605 Z" id="Fill-4" fill="#FEFEFE"></path>
            <path d="M147.5036,277.8444 L147.5036,176.1574 C147.5036,174.7484 146.8486,173.4454 145.7866,172.7404 C144.7236,172.0354 143.4146,172.0354 142.3526,172.7404 C141.2896,173.4454 140.6346,174.7474 140.6346,176.1574 L140.6346,277.8444 C140.6346,279.2534 141.2896,280.5564 142.3526,281.2624 C143.4146,281.9664 144.7236,281.9664 145.7866,281.2624 C146.8486,280.5564 147.5036,279.2544 147.5036,277.8444" id="Fill-6" fill="#FEFEFE"></path>
            <path d="M139.3289,164.6389 C140.5149,165.9149 142.1599,166.6699 143.9009,166.7339 C145.6429,166.7989 147.3399,166.1679 148.6179,164.9819 C156.4229,157.7729 166.6729,153.7929 177.2989,153.8459 C192.4969,153.8459 206.5409,161.9539 214.1379,175.1159 C221.7359,188.2769 221.7359,204.4939 214.1379,217.6569 C206.5389,230.8179 192.4959,238.9259 177.2989,238.9259 C166.6729,238.9799 156.4229,235.0009 148.6179,227.7919 C147.3399,226.6059 145.6429,225.9759 143.9009,226.0409 C142.1599,226.1049 140.5149,226.8589 139.3289,228.1359 C138.1429,229.4139 137.5129,231.1089 137.5769,232.8509 C137.6409,234.5929 138.3959,236.2379 139.6719,237.4239 C149.9079,246.8939 163.3549,252.1289 177.2999,252.070393 C192.0669,252.070393 206.2319,246.2039 216.6739,235.7609 C227.1159,225.3179 232.9839,211.1549 232.9839,196.3869 C232.9839,181.6179 227.1159,167.4539 216.6739,157.0119 C206.2309,146.5689 192.0669,140.701455 177.2999,140.701455 C163.3549,140.6459 149.9079,145.8799 139.6719,155.3519 C138.3929,156.5359 137.6359,158.1809 137.5709,159.9239 C137.5069,161.6669 138.1399,163.3639 139.3289,164.6399 L139.3289,164.6389 Z" id="Fill-8" fill="#3DB87E"></path>
            <path d="M134.8651,304.2325 L134.8651,149.3295 C134.8651,147.1825 133.6121,145.1975 131.5791,144.1235 C129.5461,143.0495 127.0401,143.0495 125.0071,144.1235 C122.9731,145.1975 121.7201,147.1825 121.7201,149.3295 L121.7201,304.2325 C121.7201,306.3795 122.9731,308.3645 125.0071,309.4385 C127.0401,310.5125 129.5461,310.5125 131.5791,309.4385 C133.6121,308.3645 134.8651,306.3795 134.8651,304.2325" id="Fill-10" fill="#3DB87E"></path>
            <path d="M55.4109,20.4322 L284.6089,20.4322 L284.6089,94.8282 L55.4109,94.8282 C42.1209,94.8282 29.8409,87.7392 23.1969,76.2292 C16.5519,64.7202 16.5519,50.5402 23.1969,39.0292 C29.8419,27.5202 42.1219,20.4302 55.4109,20.4302 L55.4109,20.4322 Z" id="Fill-12" fill="#3DB87E"></path>
        </g>
    </g>
</svg>